{
date = "2012-03-16 11:25:16 +0000";
designer = "Juvalis Design Team";
designerURL = juvalis.de;
familyName = "Juvalis-Icons";
featurePrefixes = (
{
automatic = 1;
code = "languagesystem DFLT dflt;\012";
name = Languagesystems;
}
);
fontMaster = (
{
ascender = 2560;
capHeight = 2048;
descender = "-1024";
id = "7A8B565B-8C4A-454F-8A9F-3F36545C59D3";
xHeight = 2048;
}
);
glyphs = (
{
glyphname = uniE000;
lastChange = "2013-12-19 15:29:02 +0000";
layers = (
{
layerId = "7A8B565B-8C4A-454F-8A9F-3F36545C59D3";
name = Regular;
paths = (
{
closed = 1;
nodes = (
"640 128 LINE",
"1600 768 LINE",
"640 1408 LINE"
);
}
);
width = 2048;
}
);
unicode = E000;
},
{
glyphname = uniE001;
lastChange = "2013-12-19 15:29:40 +0000";
layers = (
{
layerId = "7A8B565B-8C4A-454F-8A9F-3F36545C59D3";
name = Regular;
paths = (
{
closed = 1;
nodes = (
"1408 1408 LINE",
"448 768 LINE",
"1408 128 LINE"
);
}
);
width = 2048;
}
);
unicode = E001;
},
{
glyphname = uniE002;
lastChange = "2013-12-19 15:35:32 +0000";
layers = (
{
layerId = "7A8B565B-8C4A-454F-8A9F-3F36545C59D3";
name = Regular;
paths = (
{
closed = 1;
nodes = (
"384 1216 LINE",
"1024 256 LINE",
"1664 1216 LINE"
);
}
);
width = 2048;
}
);
unicode = E002;
},
{
glyphname = uniE003;
lastChange = "2013-12-19 15:35:48 +0000";
layers = (
{
layerId = "7A8B565B-8C4A-454F-8A9F-3F36545C59D3";
name = Regular;
paths = (
{
closed = 1;
nodes = (
"1664 320 LINE",
"1024 1280 LINE",
"384 320 LINE"
);
}
);
width = 2048;
}
);
unicode = E003;
},
{
glyphname = uniE004;
lastChange = "2016-06-20 10:10:49 +0000";
layers = (
{
layerId = "7A8B565B-8C4A-454F-8A9F-3F36545C59D3";
name = Regular;
paths = (
{
closed = 1;
nodes = (
"1152 896 LINE",
"1152 1472 LINE",
"896 1472 LINE",
"896 896 LINE",
"320 896 LINE",
"320 640 LINE",
"896 640 LINE",
"896 64 LINE",
"1152 64 LINE",
"1152 640 LINE",
"1728 640 LINE",
"1728 896 LINE"
);
}
);
width = 2048;
}
);
unicode = E004;
},
{
glyphname = uniE005;
lastChange = "2016-06-20 10:11:05 +0000";
layers = (
{
layerId = "7A8B565B-8C4A-454F-8A9F-3F36545C59D3";
name = Regular;
paths = (
{
closed = 1;
nodes = (
"320 640 LINE",
"1728 640 LINE",
"1728 896 LINE",
"320 896 LINE"
);
}
);
width = 2048;
}
);
unicode = E005;
},
{
glyphname = uniE006;
lastChange = "2015-01-22 12:59:21 +0000";
layers = (
{
layerId = "7A8B565B-8C4A-454F-8A9F-3F36545C59D3";
name = Regular;
paths = (
{
closed = 1;
nodes = (
"1023.99 949.059 LINE",
"616.72 1356.33 LINE",
"435.815 1175.42 LINE",
"843.083 768.153 LINE",
"435.662 360.732 LINE",
"616.704 179.69 LINE",
"1024.12 587.111 LINE",
"1431.42 179.815 LINE",
"1612.33 360.721 LINE",
"1205.03 768.017 LINE",
"1612.31 1175.3 LINE",
"1431.27 1356.34 LINE"
);
}
);
width = 2048;
}
);
unicode = E006;
},
{
glyphname = uniE007;
lastChange = "2014-02-03 11:06:42 +0000";
layers = (
{
layerId = "7A8B565B-8C4A-454F-8A9F-3F36545C59D3";
name = Regular;
paths = (
{
closed = 1;
nodes = (
"544 1344 LINE",
"1120 768 LINE",
"544 192 LINE",
"736 0 LINE",
"1504 768 LINE",
"736 1536 LINE"
);
}
);
width = 2048;
}
);
unicode = E007;
},
{
glyphname = uniE008;
lastChange = "2014-02-03 11:06:53 +0000";
layers = (
{
layerId = "7A8B565B-8C4A-454F-8A9F-3F36545C59D3";
name = Regular;
paths = (
{
closed = 1;
nodes = (
"1504 1344 LINE",
"928 768 LINE",
"1504 192 LINE",
"1312 0 LINE",
"544 768 LINE",
"1312 1536 LINE"
);
}
);
width = 2048;
}
);
unicode = E008;
},
{
glyphname = uniE009;
lastChange = "2013-12-19 15:37:50 +0000";
layers = (
{
layerId = "7A8B565B-8C4A-454F-8A9F-3F36545C59D3";
name = Regular;
paths = (
{
closed = 1;
nodes = (
"448 1248 LINE",
"1024 671.999 LINE",
"1600 1248 LINE",
"1792 1056 LINE",
"1024 287.999 LINE",
"255.999 1056 LINE"
);
}
);
width = 2048;
}
);
unicode = E009;
},
{
glyphname = uniE010;
lastChange = "2013-12-19 15:38:08 +0000";
layers = (
{
layerId = "7A8B565B-8C4A-454F-8A9F-3F36545C59D3";
name = Regular;
paths = (
{
closed = 1;
nodes = (
"1600 288 LINE",
"1024 864 LINE",
"448 288 LINE",
"256 480 LINE",
"1024 1248 LINE",
"1792 480 LINE"
);
}
);
width = 2048;
}
);
unicode = E010;
},
{
glyphname = uniE011;
lastChange = "2014-01-29 10:41:21 +0000";
layers = (
{
layerId = "7A8B565B-8C4A-454F-8A9F-3F36545C59D3";
name = Regular;
paths = (
{
closed = 1;
nodes = (
"1600 1280 LINE",
"832 576 LINE",
"447.597 969.602 LINE",
"256 768 LINE",
"832 192 LINE",
"1792 1088 LINE"
);
}
);
width = 2048;
}
);
unicode = E011;
},
{
glyphname = uniE012;
lastChange = "2013-12-19 15:40:39 +0000";
layers = (
{
layerId = "7A8B565B-8C4A-454F-8A9F-3F36545C59D3";
name = Regular;
paths = (
{
closed = 1;
nodes = (
"1387.49 595.552 LINE",
"1441.09 683.028 OFFCURVE",
"1472.01 785.894 OFFCURVE",
"1472.01 896.002 CURVE SMOOTH",
"1472.01 1214.12 OFFCURVE",
"1214.12 1472 OFFCURVE",
"896.011 1472 CURVE SMOOTH",
"577.895 1472 OFFCURVE",
"320 1214.12 OFFCURVE",
"320 896.002 CURVE SMOOTH",
"320 577.885 OFFCURVE",
"577.895 320 OFFCURVE",
"896.011 320 CURVE SMOOTH",
"971.623 320 OFFCURVE",
"1043.83 334.584 OFFCURVE",
"1109.98 361.07 CURVE",
"1535.05 -64 LINE",
"1791.05 192 LINE"
);
},
{
closed = 1;
nodes = (
"513.242 1107.87 OFFCURVE",
"684.75 1279.38 OFFCURVE",
"896.314 1279.38 CURVE SMOOTH",
"1107.88 1279.38 OFFCURVE",
"1279.38 1107.87 OFFCURVE",
"1279.38 896.305 CURVE SMOOTH",
"1279.38 684.739 OFFCURVE",
"1107.88 513.235 OFFCURVE",
"896.314 513.235 CURVE SMOOTH",
"684.75 513.235 OFFCURVE",
"513.242 684.739 OFFCURVE",
"513.242 896.305 CURVE SMOOTH"
);
}
);
width = 2048;
}
);
unicode = E012;
},
{
glyphname = uniE013;
lastChange = "2013-12-19 15:40:58 +0000";
layers = (
{
layerId = "7A8B565B-8C4A-454F-8A9F-3F36545C59D3";
name = Regular;
paths = (
{
closed = 1;
nodes = (
"512 1216 LINE",
"512 64 LINE",
"1536 64 LINE",
"1536 1472 LINE",
"768 1472 LINE"
);
},
{
closed = 1;
nodes = (
"640 192 LINE",
"640 1088 LINE",
"896 1088 LINE",
"896 1344 LINE",
"1408 1344 LINE",
"1408 192 LINE"
);
}
);
width = 2048;
}
);
unicode = E013;
},
{
glyphname = uniE014;
lastChange = "2014-01-29 10:39:21 +0000";
layers = (
{
layerId = "7A8B565B-8C4A-454F-8A9F-3F36545C59D3";
name = Regular;
paths = (
{
closed = 1;
nodes = (
"1408 192 LINE",
"640 192 LINE",
"640 1088 LINE",
"896 1088 LINE",
"896 1344 LINE",
"1536 1344 LINE",
"1536 1472 LINE",
"768 1472 LINE",
"512 1216 LINE",
"512 64 LINE",
"1536 64 LINE",
"1536 320 LINE",
"1408 320 LINE"
);
},
{
closed = 1;
nodes = (
"1600 960 LINE",
"1600 1216 LINE",
"1344 1216 LINE",
"1344 960 LINE",
"1088 960 LINE",
"1088 704 LINE",
"1344 704 LINE",
"1344 448 LINE",
"1600 448 LINE",
"1600 704 LINE",
"1856 704 LINE",
"1856 960 LINE"
);
}
);
width = 2048;
}
);
unicode = E014;
},
{
glyphname = uniE015;
lastChange = "2013-12-19 15:41:48 +0000";
layers = (
{
layerId = "7A8B565B-8C4A-454F-8A9F-3F36545C59D3";
name = Regular;
paths = (
{
closed = 1;
nodes = (
"640 192 LINE",
"640 1088 LINE",
"896 1088 LINE",
"896 1344 LINE",
"1408 1344 LINE",
"1408 1152 LINE",
"1536 1152 LINE",
"1536 1472 LINE",
"768 1472 LINE",
"512 1216 LINE",
"512 64 LINE",
"1536 64 LINE",
"1536 192 LINE"
);
},
{
closed = 1;
nodes = (
"1728 1216 LINE",
"1216 704 LINE",
"960 960 LINE",
"768 768 LINE",
"1216 320 LINE",
"1920 1024 LINE"
);
}
);
width = 2048;
}
);
unicode = E015;
},
{
glyphname = uniE016;
lastChange = "2013-12-19 15:42:11 +0000";
layers = (
{
layerId = "7A8B565B-8C4A-454F-8A9F-3F36545C59D3";
name = Regular;
paths = (
{
closed = 1;
nodes = (
"512 1216 LINE",
"512 64 LINE",
"1536 64 LINE",
"1536 1472 LINE",
"768 1472 LINE"
);
},
{
closed = 1;
nodes = (
"640 192 LINE",
"640 1088 LINE",
"896 1088 LINE",
"896 1344 LINE",
"1408 1344 LINE",
"1408 192 LINE"
);
},
{
closed = 1;
nodes = (
"768 832 LINE",
"768 960 LINE",
"1280 960 LINE",
"1280 832 LINE"
);
},
{
closed = 1;
nodes = (
"768 576 LINE",
"768 704 LINE",
"1280 704 LINE",
"1280 576 LINE"
);
},
{
closed = 1;
nodes = (
"768 320 LINE",
"768 448 LINE",
"1280 448 LINE",
"1280 320 LINE"
);
}
);
width = 2048;
}
);
unicode = E016;
},
{
glyphname = uniE017;
lastChange = "2013-12-19 15:42:40 +0000";
layers = (
{
layerId = "7A8B565B-8C4A-454F-8A9F-3F36545C59D3";
name = Regular;
paths = (
{
closed = 1;
nodes = (
"1152 448 LINE",
"1152 128 LINE",
"576 128 LINE",
"576 1088 LINE",
"1472 1088 LINE",
"1472 448 LINE"
);
},
{
closed = 1;
nodes = (
"1408 1408 LINE",
"1408 1536 LINE",
"1152 1536 LINE",
"1152 1408 LINE",
"896 1408 LINE",
"896 1536 LINE",
"640 1536 LINE",
"640 1408 LINE",
"448 1408 LINE",
"448 0 LINE",
"1280 0 LINE",
"1600 320 LINE",
"1600 1408 LINE"
);
}
);
width = 2048;
}
);
unicode = E017;
},
{
glyphname = uniE018;
lastChange = "2013-12-19 15:43:04 +0000";
layers = (
{
layerId = "7A8B565B-8C4A-454F-8A9F-3F36545C59D3";
name = Regular;
paths = (
{
closed = 1;
nodes = (
"1472 896 LINE",
"1472 768 LINE",
"1536 768 LINE",
"1600 576 LINE",
"1600 256 LINE",
"448 256 LINE",
"448 576 LINE",
"512 768 LINE",
"576 768 LINE",
"576 896 LINE",
"448 896 LINE",
"320 609.846 LINE",
"320 128 LINE",
"1728 128 LINE",
"1728 640 LINE",
"1600 896 LINE"
);
},
{
closed = 1;
nodes = (
"768 1408 LINE",
"640 1280 LINE",
"640 640 LINE",
"1408 640 LINE",
"1408 1408 LINE"
);
},
{
closed = 1;
nodes = (
"768 768 LINE",
"768 1152 LINE",
"896 1152 LINE",
"896 1280 LINE",
"1280 1280 LINE",
"1280 768 LINE"
);
},
{
closed = 1;
nodes = (
"1472 384 LINE",
"1472 512 LINE",
"1344 512 LINE",
"1344 384 LINE"
);
}
);
width = 2048;
}
);
unicode = E018;
},
{
glyphname = uniE019;
lastChange = "2014-01-29 10:42:34 +0000";
layers = (
{
layerId = "7A8B565B-8C4A-454F-8A9F-3F36545C59D3";
name = Regular;
paths = (
{
closed = 1;
nodes = (
"831.54 191.543 LINE",
"1856 192 LINE",
"1856 960 LINE",
"1728 832 LINE",
"1728 320 LINE",
"448 320 LINE",
"448 896 LINE",
"640 896 LINE",
"640 1088 LINE",
"1280 1088 LINE",
"1408 1216 LINE",
"512 1216 LINE",
"320 1024 LINE",
"320 192 LINE"
);
},
{
closed = 1;
nodes = (
"1148.86 831.771 LINE",
"1035.03 490.286 LINE",
"1376.52 604.114 LINE",
"1965.8 1197.26 LINE",
"1741.99 1421.07 LINE"
);
},
{
closed = 1;
nodes = (
"1205.78 774.856 LINE",
"1319.61 661.027 LINE",
"1148.86 604.114 LINE"
);
}
);
width = 2048;
}
);
unicode = E019;
},
{
glyphname = uniE020;
lastChange = "2013-12-19 15:44:43 +0000";
layers = (
{
layerId = "7A8B565B-8C4A-454F-8A9F-3F36545C59D3";
name = Regular;
paths = (
{
closed = 1;
nodes = (
"1356.23 503.868 LINE",
"1340.85 511.725 OFFCURVE",
"1318.32 508.142 OFFCURVE",
"1306.12 495.946 CURVE SMOOTH",
"1219.15 408.977 LINE SMOOTH",
"1206.99 396.797 OFFCURVE",
"1182.88 386.66 OFFCURVE",
"1165.64 386.459 CURVE SMOOTH",
"1165.64 386.459 OFFCURVE",
"1054.51 385.182 OFFCURVE",
"847.868 591.84 CURVE SMOOTH",
"641.215 798.486 OFFCURVE",
"642.201 909.981 OFFCURVE",
"642.201 909.981 CURVE",
"642.365 927.221 OFFCURVE",
"652.465 951.31 OFFCURVE",
"664.642 963.473 CURVE SMOOTH",
"738.785 1037.6 LINE SMOOTH",
"750.983 1049.82 OFFCURVE",
"755.076 1072.59 OFFCURVE",
"747.875 1088.28 CURVE",
"584.819 1394.97 LINE",
"577.624 1410.64 OFFCURVE",
"561.754 1413.49 OFFCURVE",
"549.571 1401.32 CURVE SMOOTH",
"347.357 1199.59 LINE SMOOTH",
"335.156 1187.45 OFFCURVE",
"323.307 1163.49 OFFCURVE",
"321.015 1146.39 CURVE",
"321.015 1146.39 OFFCURVE",
"281.565 851.631 OFFCURVE",
"694.598 438.601 CURVE SMOOTH",
"1107.64 25.5664 OFFCURVE",
"1402.4 65.0146 OFFCURVE",
"1402.4 65.0146 CURVE",
"1419.47 67.3135 OFFCURVE",
"1443.44 79.1494 OFFCURVE",
"1455.62 91.333 CURVE SMOOTH",
"1657.58 293.302 LINE SMOOTH",
"1669.77 305.478 OFFCURVE",
"1667.17 321.882 OFFCURVE",
"1651.83 329.696 CURVE"
);
}
);
width = 2048;
}
);
unicode = E020;
},
{
glyphname = uniE021;
lastChange = "2013-12-19 15:45:09 +0000";
layers = (
{
layerId = "7A8B565B-8C4A-454F-8A9F-3F36545C59D3";
name = Regular;
paths = (
{
closed = 1;
nodes = (
"1356.23 503.868 LINE",
"1340.85 511.725 OFFCURVE",
"1318.32 508.142 OFFCURVE",
"1306.12 495.946 CURVE SMOOTH",
"1219.15 408.977 LINE SMOOTH",
"1206.99 396.797 OFFCURVE",
"1182.88 386.66 OFFCURVE",
"1165.64 386.459 CURVE SMOOTH",
"1165.64 386.459 OFFCURVE",
"1054.51 385.182 OFFCURVE",
"847.868 591.84 CURVE SMOOTH",
"641.215 798.486 OFFCURVE",
"642.201 909.981 OFFCURVE",
"642.201 909.981 CURVE",
"642.365 927.221 OFFCURVE",
"652.465 951.31 OFFCURVE",
"664.642 963.473 CURVE SMOOTH",
"738.785 1037.6 LINE SMOOTH",
"750.983 1049.82 OFFCURVE",
"755.076 1072.59 OFFCURVE",
"747.875 1088.28 CURVE",
"584.819 1394.97 LINE",
"577.624 1410.64 OFFCURVE",
"561.754 1413.49 OFFCURVE",
"549.571 1401.32 CURVE SMOOTH",
"347.357 1199.59 LINE SMOOTH",
"335.156 1187.45 OFFCURVE",
"323.307 1163.49 OFFCURVE",
"321.015 1146.39 CURVE",
"321.015 1146.39 OFFCURVE",
"281.565 851.631 OFFCURVE",
"694.598 438.601 CURVE SMOOTH",
"1107.64 25.5664 OFFCURVE",
"1402.4 65.0146 OFFCURVE",
"1402.4 65.0146 CURVE",
"1419.47 67.3135 OFFCURVE",
"1443.44 79.1494 OFFCURVE",
"1455.62 91.333 CURVE SMOOTH",
"1657.58 293.302 LINE SMOOTH",
"1669.77 305.478 OFFCURVE",
"1667.17 321.882 OFFCURVE",
"1651.83 329.696 CURVE"
);
},
{
closed = 1;
nodes = (
"998.73 862.465 OFFCURVE",
"1035.44 842.734 OFFCURVE",
"1065.71 812.465 CURVE SMOOTH",
"1096.16 782.011 OFFCURVE",
"1115.94 745.031 OFFCURVE",
"1125.57 706.065 CURVE",
"1199.35 706.065 LINE",
"1191.69 766.443 OFFCURVE",
"1164.7 822.253 OFFCURVE",
"1121.23 865.925 CURVE SMOOTH",
"1077.23 910.149 OFFCURVE",
"1020.9 937.388 OFFCURVE",
"960.012 944.681 CURVE",
"960.012 872.144 LINE"
);
},
{
closed = 1;
nodes = (
"1600.02 706.065 LINE",
"1593.71 1036.95 OFFCURVE",
"1291.05 1338.97 OFFCURVE",
"960.022 1344 CURVE",
"960 1259.19 LINE",
"1256.85 1242.71 OFFCURVE",
"1495.48 1003.82 OFFCURVE",
"1513.28 706.047 CURVE"
);
},
{
closed = 1;
nodes = (
"1399.9 706.047 LINE",
"1382.47 941.403 OFFCURVE",
"1194.45 1129.65 OFFCURVE",
"960.012 1145.83 CURVE",
"960.012 1058.25 LINE",
"1146.72 1042.4 OFFCURVE",
"1296.01 893.178 OFFCURVE",
"1312.98 706.065 CURVE"
);
}
);
width = 2048;
}
);
unicode = E021;
},
{
glyphname = uniE022;
lastChange = "2013-12-19 15:45:37 +0000";
layers = (
{
layerId = "7A8B565B-8C4A-454F-8A9F-3F36545C59D3";
name = Regular;
paths = (
{
closed = 1;
nodes = (
"1344 1152 LINE",
"1344 1344 LINE",
"1216 1472 LINE",
"832 1472 LINE",
"704 1344 LINE",
"704 1152 LINE",
"512 1152 LINE",
"384 1024 LINE",
"512 1024 LINE",
"512 64 LINE",
"1536 64 LINE",
"1536 1024 LINE",
"1664 1024 LINE",
"1536 1152 LINE"
);
},
{
closed = 1;
nodes = (
"1216 1344 LINE",
"1216 1152 LINE",
"832 1152 LINE",
"832 1344 LINE"
);
},
{
closed = 1;
nodes = (
"640 192 LINE",
"640 1024 LINE",
"1408 1024 LINE",
"1408 192 LINE"
);
},
{
closed = 1;
nodes = (
"768 896 LINE",
"768 320 LINE",
"896 320 LINE",
"896 896 LINE"
);
},
{
closed = 1;
nodes = (
"1152 896 LINE",
"1152 320 LINE",
"1280 320 LINE",
"1280 896 LINE"
);
},
{
closed = 1;
nodes = (
"960 896 LINE",
"960 320 LINE",
"1088 320 LINE",
"1088 896 LINE"
);
}
);
width = 2048;
}
);
unicode = E022;
},
{
glyphname = uniE023;
lastChange = "2014-01-28 16:22:25 +0000";
layers = (
{
layerId = "7A8B565B-8C4A-454F-8A9F-3F36545C59D3";
name = Regular;
paths = (
{
closed = 1;
nodes = (
"1728 768 LINE",
"1024 1473.17 LINE",
"320 768 LINE",
"512 768 LINE",
"512 64 LINE",
"832 64 LINE",
"832 640 LINE",
"1216 640 LINE",
"1216 64 LINE",
"1536 64 LINE",
"1536 768 LINE"
);
}
);
width = 2048;
}
);
unicode = E023;
},
{
glyphname = uniE024;
lastChange = "2013-12-19 15:47:16 +0000";
layers = (
{
layerId = "7A8B565B-8C4A-454F-8A9F-3F36545C59D3";
name = Regular;
paths = (
{
closed = 1;
nodes = (
"1088 0 LINE",
"1152 64 LINE",
"896 64 LINE",
"966.241 0.299805 LINE"
);
},
{
closed = 1;
nodes = (
"1181.41 1520.54 OFFCURVE",
"866.594 1520.54 OFFCURVE",
"672.424 1326.37 CURVE SMOOTH",
"478.252 1132.2 OFFCURVE",
"478.254 817.388 OFFCURVE",
"672.424 623.22 CURVE SMOOTH",
"733.62 562.024 OFFCURVE",
"789.217 518.42 OFFCURVE",
"832 448 CURVE",
"832 320 LINE",
"1216 320 LINE",
"1216 448 LINE",
"1259.3 518.924 OFFCURVE",
"1314 561.643 OFFCURVE",
"1375.58 623.22 CURVE SMOOTH",
"1569.75 817.392 OFFCURVE",
"1569.75 1132.2 OFFCURVE",
"1375.58 1326.37 CURVE SMOOTH"
);
},
{
closed = 1;
nodes = (
"1217.76 604.655 OFFCURVE",
"1124.98 515.581 OFFCURVE",
"1088 447.999 CURVE",
"1088 896 LINE",
"959.999 832 LINE",
"960 447.999 LINE",
"923.014 515.581 OFFCURVE",
"828.475 604.655 OFFCURVE",
"774.076 662.608 CURVE SMOOTH",
"629.38 816.758 OFFCURVE",
"617.315 1071.73 OFFCURVE",
"762.009 1225.88 CURVE SMOOTH",
"906.705 1380.03 OFFCURVE",
"1141.3 1380.03 OFFCURVE",
"1285.99 1225.88 CURVE SMOOTH",
"1430.69 1071.73 OFFCURVE",
"1416.85 816.759 OFFCURVE",
"1272.16 662.608 CURVE SMOOTH"
);
},
{
closed = 1;
nodes = (
"1216 128 LINE",
"1216 256 LINE",
"832 256 LINE",
"832 128 LINE"
);
}
);
width = 2048;
}
);
unicode = E024;
},
{
glyphname = uniE025;
lastChange = "2013-12-19 15:47:31 +0000";
layers = (
{
layerId = "7A8B565B-8C4A-454F-8A9F-3F36545C59D3";
name = Regular;
paths = (
{
closed = 1;
nodes = (
"320 320 LINE",
"1728 320 LINE",
"1728 1280 LINE",
"320 1280 LINE"
);
},
{
closed = 1;
nodes = (
"1600 1024 LINE",
"448 1024 LINE",
"448 1152 LINE",
"1600 1152 LINE"
);
},
{
closed = 1;
nodes = (
"448 832 LINE",
"1600 832 LINE",
"1600 448 LINE",
"448 448 LINE"
);
}
);
width = 2048;
}
);
unicode = E025;
},
{
glyphname = uniE026;
lastChange = "2013-12-19 15:48:21 +0000";
layers = (
{
layerId = "7A8B565B-8C4A-454F-8A9F-3F36545C59D3";
name = Regular;
paths = (
{
closed = 1;
nodes = (
"761.262 320 OFFCURVE",
"704 262.736 OFFCURVE",
"704 192.102 CURVE SMOOTH",
"704 121.464 OFFCURVE",
"761.262 64.2031 OFFCURVE",
"831.898 64.2031 CURVE SMOOTH",
"902.533 64.2031 OFFCURVE",
"959.797 121.464 OFFCURVE",
"959.797 192.102 CURVE SMOOTH",
"959.797 262.736 OFFCURVE",
"902.533 320 OFFCURVE",
"831.898 320 CURVE SMOOTH"
);
},
{
closed = 1;
nodes = (
"1401.46 320 OFFCURVE",
"1344.2 262.736 OFFCURVE",
"1344.2 192.102 CURVE SMOOTH",
"1344.2 121.464 OFFCURVE",
"1401.46 64.2031 OFFCURVE",
"1472.1 64.2031 CURVE SMOOTH",
"1542.74 64.2031 OFFCURVE",
"1600 121.464 OFFCURVE",
"1600 192.102 CURVE SMOOTH",
"1600 262.736 OFFCURVE",
"1542.74 320 OFFCURVE",
"1472.1 320 CURVE SMOOTH"
);
},
{
closed = 1;
nodes = (
"1639.76 1151.67 LINE",
"688.933 1152 LINE",
"640 1408 LINE",
"190.909 1408 LINE",
"190.909 1280 LINE",
"534.002 1280 LINE",
"704 384 LINE",
"835.732 384 LINE",
"1472 384 LINE",
"1603.75 384 LINE",
"1795.75 1280 LINE",
"1667.81 1280 LINE"
);
},
{
closed = 1;
nodes = (
"811.656 512 LINE",
"713.4 1024 LINE",
"1612.04 1024.79 LINE",
"1611.78 1023.62 LINE",
"1499.82 512 LINE"
);
},
{
closed = 1;
nodes = (
"896 576 LINE",
"1024 576 LINE",
"960 960 LINE",
"832 960 LINE"
);
},
{
closed = 1;
nodes = (
"1408 576 LINE",
"1280 576 LINE",
"1344 960 LINE",
"1472 960 LINE"
);
},
{
closed = 1;
nodes = (
"1216 960 LINE",
"1216 576 LINE",
"1088 576 LINE",
"1088 960 LINE"
);
}
);
width = 2048;
}
);
unicode = E026;
},
{
glyphname = uniE027;
lastChange = "2013-12-19 15:48:45 +0000";
layers = (
{
layerId = "7A8B565B-8C4A-454F-8A9F-3F36545C59D3";
name = Regular;
paths = (
{
closed = 1;
nodes = (
"256 192 LINE",
"1792 192 LINE",
"1024 1472 LINE"
);
},
{
closed = 1;
nodes = (
"1088 640 LINE",
"960 640 LINE",
"896 1024 LINE",
"1152 1024 LINE"
);
},
{
closed = 1;
nodes = (
"979.377 367.801 OFFCURVE",
"943.206 403.973 OFFCURVE",
"943.206 448.597 CURVE SMOOTH",
"943.206 493.218 OFFCURVE",
"979.377 529.392 OFFCURVE",
"1024 529.392 CURVE SMOOTH",
"1068.62 529.392 OFFCURVE",
"1104.8 493.218 OFFCURVE",
"1104.8 448.597 CURVE SMOOTH",
"1104.8 403.973 OFFCURVE",
"1068.62 367.801 OFFCURVE",
"1024 367.801 CURVE SMOOTH"
);
}
);
width = 2048;
}
);
unicode = E027;
},
{
glyphname = uniE028;
lastChange = "2014-02-17 11:12:09 +0000";
layers = (
{
layerId = "7A8B565B-8C4A-454F-8A9F-3F36545C59D3";
name = Regular;
paths = (
{
closed = 1;
nodes = (
"256 1216 LINE",
"256 640 LINE",
"1152 640 LINE",
"1152 1216 LINE"
);
},
{
closed = 1;
nodes = (
"1344 1024 LINE",
"1216 1152 LINE",
"1216 512 LINE",
"1216 448 LINE",
"1408 448 LINE",
"1408 448 OFFCURVE",
"1408 448 OFFCURVE",
"1408 448 CURVE SMOOTH",
"1408 384 OFFCURVE",
"1440 320 OFFCURVE",
"1536 320 CURVE SMOOTH",
"1600 320 OFFCURVE",
"1664 384 OFFCURVE",
"1664 448 CURVE SMOOTH",
"1664 448 OFFCURVE",
"1664 448 OFFCURVE",
"1792 448 CURVE",
"1792 480 LINE",
"1792 512 LINE",
"1792 704 LINE",
"1472 1024 LINE"
);
},
{
closed = 1;
nodes = (
"1664 704 LINE",
"1344 704 LINE",
"1344 896 LINE",
"1472 896 LINE",
"1568 800 LINE"
);
},
{
closed = 1;
nodes = (
"320 448 LINE",
"448 448 LINE",
"448 448 OFFCURVE",
"448 448 OFFCURVE",
"448 448 CURVE SMOOTH",
"448 384 OFFCURVE",
"480 320 OFFCURVE",
"576 320 CURVE SMOOTH",
"640 320 OFFCURVE",
"704 384 OFFCURVE",
"704 448 CURVE SMOOTH",
"704 448 OFFCURVE",
"704 448 OFFCURVE",
"1152 448 CURVE",
"1152 576 LINE",
"256 576 LINE"
);
}
);
width = 2048;
}
);
unicode = E028;
},
{
glyphname = uniE029;
lastChange = "2013-12-19 15:49:33 +0000";
layers = (
{
layerId = "7A8B565B-8C4A-454F-8A9F-3F36545C59D3";
name = Regular;
paths = (
{
closed = 1;
nodes = (
"1563.75 1113.5 OFFCURVE",
"1522.1 1168.43 OFFCURVE",
"1472.47 1216.28 CURVE",
"1472.47 1659.76 LINE",
"1049.44 1413 LINE",
"1018.74 1416.64 OFFCURVE",
"987.574 1418.48 OFFCURVE",
"956.504 1418.48 CURVE SMOOTH",
"861.567 1418.48 OFFCURVE",
"769.382 1401.72 OFFCURVE",
"682.514 1368.65 CURVE SMOOTH",
"598.251 1336.57 OFFCURVE",
"522.477 1290.57 OFFCURVE",
"457.308 1231.91 CURVE SMOOTH",
"391.651 1172.82 OFFCURVE",
"340.025 1103.85 OFFCURVE",
"303.864 1026.9 CURVE SMOOTH",
"266.168 946.692 OFFCURVE",
"247.056 861.444 OFFCURVE",
"247.056 773.53 CURVE SMOOTH",
"247.056 671.512 OFFCURVE",
"273.914 569.916 OFFCURVE",
"324.727 479.728 CURVE SMOOTH",
"366.324 405.897 OFFCURVE",
"424.155 339.215 OFFCURVE",
"493.445 284.833 CURVE",
"422.55 0 LINE",
"877.941 0 LINE",
"910.336 129.93 LINE",
"925.714 129.026 OFFCURVE",
"941.132 128.574 OFFCURVE",
"956.504 128.574 CURVE",
"956.508 0 LINE",
"1407.98 0 LINE",
"1407.97 275.9 LINE",
"1487.19 335.283 OFFCURVE",
"1550.92 409.057 OFFCURVE",
"1595.35 492.594 CURVE",
"1794.95 451.052 LINE",
"1794.95 1096.01 LINE",
"1595.29 1054.44 LINE"
);
},
{
closed = 1;
nodes = (
"1524.75 652.099 LINE",
"1501.83 596.428 LINE SMOOTH",
"1463.61 503.6 OFFCURVE",
"1396.36 422.729 OFFCURVE",
"1307.36 362.559 CURVE SMOOTH",
"1278.98 343.376 LINE",
"1278.98 127.812 LINE",
"1085.5 127.812 LINE",
"1085.5 266.453 LINE",
"1015.26 260.182 LINE SMOOTH",
"995.821 258.447 OFFCURVE",
"976.051 257.565 OFFCURVE",
"956.504 257.565 CURVE SMOOTH",
"927.462 257.565 OFFCURVE",
"898.249 259.498 OFFCURVE",
"869.672 263.311 CURVE SMOOTH",
"812.47 270.942 LINE",
"777.085 128.574 LINE",
"587.523 128.574 LINE",
"639.856 339.141 LINE",
"602.887 364.445 LINE SMOOTH",
"533.513 411.926 OFFCURVE",
"476.186 473.689 OFFCURVE",
"437.109 543.046 CURVE SMOOTH",
"396.591 614.959 OFFCURVE",
"376.047 692.505 OFFCURVE",
"376.047 773.53 CURVE SMOOTH",
"376.047 1058.03 OFFCURVE",
"636.439 1289.49 OFFCURVE",
"956.504 1289.49 CURVE SMOOTH",
"988.981 1289.49 OFFCURVE",
"1021.55 1287.09 OFFCURVE",
"1053.3 1282.35 CURVE SMOOTH",
"1075.73 1279 LINE",
"1343.48 1435.19 LINE",
"1343.48 1158.95 LINE",
"1365.3 1139.69 LINE SMOOTH",
"1425.6 1086.49 OFFCURVE",
"1472.81 1021.11 OFFCURVE",
"1501.83 950.632 CURVE SMOOTH",
"1524.75 894.959 LINE",
"1665.95 942.027 LINE",
"1665.95 605.029 LINE"
);
},
{
closed = 1;
nodes = (
"1251.81 1031.73 OFFCURVE",
"1222.82 1002.74 OFFCURVE",
"1222.82 966.984 CURVE SMOOTH",
"1222.82 931.227 OFFCURVE",
"1251.81 902.241 OFFCURVE",
"1287.56 902.241 CURVE SMOOTH",
"1323.32 902.241 OFFCURVE",
"1352.31 931.227 OFFCURVE",
"1352.31 966.984 CURVE SMOOTH",
"1352.31 1002.74 OFFCURVE",
"1323.32 1031.73 OFFCURVE",
"1287.56 1031.73 CURVE SMOOTH"
);
},
{
closed = 1;
nodes = (
"614.04 922.904 LINE",
"629.801 947.771 OFFCURVE",
"649.552 971.088 OFFCURVE",
"673.033 992.22 CURVE SMOOTH",
"747.398 1059.15 OFFCURVE",
"848.071 1096.01 OFFCURVE",
"956.504 1096.01 CURVE",
"956.504 1160.5 LINE",
"832.11 1160.5 OFFCURVE",
"716.116 1117.76 OFFCURVE",
"629.889 1040.16 CURVE SMOOTH",
"605.795 1018.48 OFFCURVE",
"584.97 994.788 OFFCURVE",
"567.574 969.589 CURVE"
);
}
);
width = 2048;
}
);
unicode = E029;
},
{
glyphname = uniE030;
lastChange = "2013-12-19 15:50:21 +0000";
layers = (
{
layerId = "7A8B565B-8C4A-454F-8A9F-3F36545C59D3";
name = Regular;
paths = (
{
closed = 1;
nodes = (
"501.907 509.69 OFFCURVE",
"477.411 517.652 OFFCURVE",
"452.06 521.261 CURVE",
"325.068 835.573 LINE",
"349.086 866.43 OFFCURVE",
"364.685 903.175 OFFCURVE",
"370.197 941.888 CURVE",
"1202.02 1277.96 LINE",
"1232.87 1253.94 OFFCURVE",
"1269.62 1238.35 OFFCURVE",
"1308.33 1232.84 CURVE",
"1435.32 918.523 LINE",
"1430.72 912.618 OFFCURVE",
"1426.44 906.495 OFFCURVE",
"1422.47 900.185 CURVE",
"1563.12 900.185 LINE",
"1381.24 1350.38 LINE",
"1324.08 1327.28 OFFCURVE",
"1259.01 1354.9 OFFCURVE",
"1235.92 1412.06 CURVE",
"252.659 1014.8 LINE",
"275.753 957.633 OFFCURVE",
"248.135 892.571 OFFCURVE",
"190.974 869.477 CURVE",
"379.152 403.723 LINE",
"436.312 426.817 OFFCURVE",
"501.375 399.199 OFFCURVE",
"524.47 342.038 CURVE",
"524.47 497.897 LINE"
);
},
{
closed = 1;
nodes = (
"691.915 844.371 LINE",
"691.915 782.721 OFFCURVE",
"641.934 732.741 OFFCURVE",
"580.286 732.741 CURVE",
"580.286 230.408 LINE",
"641.934 230.408 OFFCURVE",
"691.915 180.43 OFFCURVE",
"691.915 118.778 CURVE",
"1752.4 118.778 LINE",
"1752.4 180.43 OFFCURVE",
"1802.37 230.408 OFFCURVE",
"1864.03 230.408 CURVE",
"1864.03 732.741 LINE",
"1802.37 732.741 OFFCURVE",
"1752.4 782.721 OFFCURVE",
"1752.4 844.371 CURVE"
);
},
{
closed = 1;
nodes = (
"1718.57 292.465 OFFCURVE",
"1690.34 264.237 OFFCURVE",
"1670.73 230.408 CURVE",
"773.581 230.408 LINE",
"753.97 264.237 OFFCURVE",
"725.744 292.465 OFFCURVE",
"691.915 312.075 CURVE",
"691.915 651.074 LINE",
"725.744 670.685 OFFCURVE",
"753.97 698.913 OFFCURVE",
"773.581 732.741 CURVE",
"1670.73 732.741 LINE",
"1690.34 698.913 OFFCURVE",
"1718.57 670.685 OFFCURVE",
"1752.4 651.074 CURVE",
"1752.4 312.075 LINE"
);
},
{
closed = 1;
nodes = (
"803.435 676.927 LINE",
"787.585 655.849 OFFCURVE",
"768.808 637.071 OFFCURVE",
"747.73 621.219 CURVE",
"747.73 341.93 LINE",
"768.809 326.077 OFFCURVE",
"787.583 307.307 OFFCURVE",
"803.435 286.223 CURVE",
"1640.87 286.223 LINE",
"1656.73 307.304 OFFCURVE",
"1675.5 326.078 OFFCURVE",
"1696.58 341.93 CURVE",
"1696.58 621.219 LINE",
"1675.5 637.074 OFFCURVE",
"1656.73 655.846 OFFCURVE",
"1640.87 676.927 CURVE"
);
},
{
closed = 1;
nodes = (
"580.286 788.556 LINE SMOOTH",
"611.062 788.556 OFFCURVE",
"636.101 813.595 OFFCURVE",
"636.101 844.371 CURVE SMOOTH",
"636.101 900.185 LINE",
"1358.96 900.185 LINE",
"1363.01 908.769 OFFCURVE",
"1367.48 917.153 OFFCURVE",
"1372.39 925.294 CURVE",
"1267.76 1184.25 LINE",
"1242.28 1191.05 OFFCURVE",
"1217.84 1201.42 OFFCURVE",
"1195.24 1215.03 CURVE",
"418.786 901.322 LINE",
"411.984 875.839 OFFCURVE",
"401.607 851.395 OFFCURVE",
"388.003 828.801 CURVE",
"492.627 569.848 LINE",
"503.451 566.959 OFFCURVE",
"514.084 563.419 OFFCURVE",
"524.47 559.269 CURVE",
"524.47 788.556 LINE"
);
}
);
width = 2048;
}
);
unicode = E030;
},
{
glyphname = uniE031;
lastChange = "2013-12-19 15:51:11 +0000";
layers = (
{
layerId = "7A8B565B-8C4A-454F-8A9F-3F36545C59D3";
name = Regular;
paths = (
{
closed = 1;
nodes = (
"1671.27 1168.33 OFFCURVE",
"1657.26 1184.6 OFFCURVE",
"1642.15 1199.59 CURVE",
"1643.41 1185.28 OFFCURVE",
"1644.23 1170.79 OFFCURVE",
"1644.2 1155.93 CURVE SMOOTH",
"1644.29 1084.15 OFFCURVE",
"1630.27 1013.53 OFFCURVE",
"1602.59 946.088 CURVE SMOOTH",
"1574.87 878.526 OFFCURVE",
"1538.98 822.206 OFFCURVE",
"1495.86 778.671 CURVE SMOOTH",
"1453.67 736.162 OFFCURVE",
"1406.79 703.078 OFFCURVE",
"1356.21 680.205 CURVE SMOOTH",
"1308.17 658.66 OFFCURVE",
"1251.48 643.791 OFFCURVE",
"1177.58 633.408 CURVE SMOOTH",
"1134.57 627.49 OFFCURVE",
"1071.41 624.914 OFFCURVE",
"966.415 624.863 CURVE SMOOTH",
"943.501 624.863 LINE",
"883.064 335.85 LINE",
"875.094 298.002 LINE",
"859.164 222.387 LINE",
"781.881 222.387 LINE",
"664.822 222.387 LINE",
"647.096 126.361 LINE",
"961.805 126.361 LINE",
"969.78 175.613 LINE",
"1046.02 540.201 LINE",
"1146.34 540.201 LINE SMOOTH",
"1241.01 540.269 OFFCURVE",
"1305.1 542.43 OFFCURVE",
"1344.53 547.828 CURVE SMOOTH",
"1405.87 556.435 OFFCURVE",
"1456.19 568.815 OFFCURVE",
"1497.16 587.207 CURVE SMOOTH",
"1537.49 605.441 OFFCURVE",
"1574.62 632.025 OFFCURVE",
"1608.16 665.842 CURVE SMOOTH",
"1643.68 701.674 OFFCURVE",
"1671.92 747.57 OFFCURVE",
"1694.36 802.304 CURVE SMOOTH",
"1717.3 858.151 OFFCURVE",
"1728.93 916.41 OFFCURVE",
"1728.86 975.858 CURVE",
"1729.01 1040.47 OFFCURVE",
"1714.1 1099.75 OFFCURVE",
"1682.79 1149.72 CURVE SMOOTH"
);
},
{
closed = 1;
nodes = (
"708.125 1468.39 LINE",
"467.171 317.656 LINE",
"781.881 317.656 LINE",
"789.873 355.522 LINE",
"866.112 720.106 LINE",
"966.415 720.106 LINE SMOOTH",
"1061.1 720.16 OFFCURVE",
"1125.18 722.336 OFFCURVE",
"1164.59 727.756 CURVE SMOOTH",
"1225.93 736.379 OFFCURVE",
"1276.29 748.721 OFFCURVE",
"1317.21 767.12 CURVE SMOOTH",
"1357.56 785.368 OFFCURVE",
"1394.71 811.968 OFFCURVE",
"1428.26 845.769 CURVE SMOOTH",
"1463.75 881.62 OFFCURVE",
"1492.01 927.515 OFFCURVE",
"1514.43 982.227 CURVE SMOOTH",
"1537.38 1038.08 OFFCURVE",
"1549.03 1096.34 OFFCURVE",
"1548.95 1155.78 CURVE",
"1549.08 1220.38 OFFCURVE",
"1534.16 1279.7 OFFCURVE",
"1502.84 1329.64 CURVE SMOOTH",
"1472.32 1379.01 OFFCURVE",
"1428.19 1416.48 OFFCURVE",
"1374.87 1437.87 CURVE SMOOTH",
"1321.6 1459.3 OFFCURVE",
"1255.95 1468.26 OFFCURVE",
"1175.93 1468.39 CURVE SMOOTH"
);
},
{
closed = 1;
nodes = (
"1083.06 1199.57 LINE SMOOTH",
"1086.37 1199.61 OFFCURVE",
"1089.63 1199.63 OFFCURVE",
"1092.81 1199.63 CURVE SMOOTH",
"1147.53 1199.63 OFFCURVE",
"1186.65 1195.58 OFFCURVE",
"1199.38 1192.52 CURVE SMOOTH",
"1201.2 1192.09 OFFCURVE",
"1202.46 1191.67 OFFCURVE",
"1203.18 1191.29 CURVE",
"1215.67 1186.58 OFFCURVE",
"1222.22 1181.21 OFFCURVE",
"1227.83 1173.37 CURVE SMOOTH",
"1232.33 1166.69 OFFCURVE",
"1236.18 1156.38 OFFCURVE",
"1236.26 1137.8 CURVE SMOOTH",
"1236.13 1109.15 OFFCURVE",
"1228.56 1085.11 OFFCURVE",
"1211.74 1060.63 CURVE SMOOTH",
"1195 1036.98 OFFCURVE",
"1173.82 1020.42 OFFCURVE",
"1143.35 1008.85 CURVE SMOOTH",
"1140.31 1007.61 OFFCURVE",
"1136.51 1006.38 OFFCURVE",
"1131.99 1005.19 CURVE SMOOTH",
"1100.37 996.916 OFFCURVE",
"1033.28 990.328 OFFCURVE",
"939.723 990.328 CURVE SMOOTH",
"936.645 990.328 OFFCURVE",
"933.567 990.328 OFFCURVE",
"930.437 990.328 CURVE SMOOTH",
"922.118 990.328 LINE",
"966.142 1199.57 LINE"
);
}
);
width = 2048;
}
);
unicode = E031;
},
{
glyphname = uniE032;
lastChange = "2013-12-19 15:51:36 +0000";
layers = (
{
layerId = "7A8B565B-8C4A-454F-8A9F-3F36545C59D3";
name = Regular;
paths = (
{
closed = 1;
nodes = (
"898.108 1151.18 OFFCURVE",
"640.601 893.697 OFFCURVE",
"640.601 576.072 CURVE SMOOTH",
"640.601 258.444 OFFCURVE",
"898.108 0.961914 OFFCURVE",
"1215.77 0.961914 CURVE SMOOTH",
"1533.42 0.961914 OFFCURVE",
"1790.93 258.444 OFFCURVE",
"1790.93 576.072 CURVE SMOOTH",
"1790.93 893.697 OFFCURVE",
"1533.42 1151.18 OFFCURVE",
"1215.77 1151.18 CURVE SMOOTH"
);
},
{
closed = 1;
nodes = (
"933.401 64.8652 OFFCURVE",
"704.509 293.736 OFFCURVE",
"704.509 576.072 CURVE SMOOTH",
"704.509 858.405 OFFCURVE",
"933.401 1087.28 OFFCURVE",
"1215.77 1087.28 CURVE SMOOTH",
"1498.13 1087.28 OFFCURVE",
"1727.02 858.405 OFFCURVE",
"1727.02 576.072 CURVE SMOOTH",
"1727.02 293.736 OFFCURVE",
"1498.13 64.8652 OFFCURVE",
"1215.77 64.8652 CURVE SMOOTH"
);
},
{
closed = 1;
nodes = (
"961.646 1036.26 OFFCURVE",
"755.646 830.268 OFFCURVE",
"755.646 576.169 CURVE SMOOTH",
"755.646 322.061 OFFCURVE",
"961.646 116.079 OFFCURVE",
"1215.76 116.079 CURVE SMOOTH",
"1469.88 116.079 OFFCURVE",
"1675.88 322.061 OFFCURVE",
"1675.88 576.169 CURVE SMOOTH",
"1675.88 830.268 OFFCURVE",
"1469.88 1036.26 OFFCURVE",
"1215.76 1036.26 CURVE SMOOTH"
);
},
{
closed = 1;
nodes = (
"1215.98 603.515 LINE",
"1097.9 603.515 LINE",
"1096.24 594.635 OFFCURVE",
"1095.36 585.477 OFFCURVE",
"1095.36 576.115 CURVE SMOOTH",
"1095.36 566.746 OFFCURVE",
"1096.24 557.577 OFFCURVE",
"1097.9 548.684 CURVE",
"1270.8 548.684 LINE",
"1215.98 493.855 LINE",
"1120.3 493.855 LINE",
"1146.86 454.183 OFFCURVE",
"1192.07 428.058 OFFCURVE",
"1243.39 428.058 CURVE SMOOTH",
"1271.42 428.058 OFFCURVE",
"1297.63 435.853 OFFCURVE",
"1319.98 449.389 CURVE",
"1389.85 377.541 LINE",
"1348.89 347.272 OFFCURVE",
"1298.23 329.368 OFFCURVE",
"1243.39 329.368 CURVE SMOOTH",
"1135.98 329.368 OFFCURVE",
"1044.62 398.026 OFFCURVE",
"1010.74 493.855 CURVE",
"941.873 493.855 LINE",
"941.873 548.684 LINE",
"998.206 548.684 LINE",
"997.209 557.694 OFFCURVE",
"996.679 566.845 OFFCURVE",
"996.679 576.115 CURVE SMOOTH",
"996.679 585.377 OFFCURVE",
"997.209 594.519 OFFCURVE",
"998.202 603.515 CURVE",
"941.873 603.515 LINE",
"941.873 658.342 LINE",
"1010.73 658.342 LINE",
"1044.59 754.19 OFFCURVE",
"1135.97 822.867 OFFCURVE",
"1243.39 822.867 CURVE SMOOTH",
"1298.93 822.867 OFFCURVE",
"1350.18 804.506 OFFCURVE",
"1391.42 773.533 CURVE",
"1320.47 702.543 LINE",
"1298.01 716.268 OFFCURVE",
"1271.63 724.17 OFFCURVE",
"1243.39 724.17 CURVE SMOOTH",
"1192.06 724.17 OFFCURVE",
"1146.83 698.036 OFFCURVE",
"1120.28 658.342 CURVE",
"1270.8 658.342 LINE"
);
},
{
closed = 1;
nodes = (
"426.107 622.759 OFFCURVE",
"349.714 739.707 OFFCURVE",
"327.476 878.793 CURVE SMOOTH",
"282.902 1157.58 OFFCURVE",
"472.788 1419.73 OFFCURVE",
"751.61 1464.31 CURVE SMOOTH",
"948.146 1495.73 OFFCURVE",
"1136.4 1410.66 OFFCURVE",
"1246.01 1260.07 CURVE",
"1273.62 1258.88 OFFCURVE",
"1300.95 1256.06 OFFCURVE",
"1327.95 1251.62 CURVE",
"1211.33 1449.34 OFFCURVE",
"981.934 1565.85 OFFCURVE",
"741.523 1527.41 CURVE SMOOTH",
"427.848 1477.26 OFFCURVE",
"214.222 1182.34 OFFCURVE",
"264.369 868.703 CURVE SMOOTH",
"292.511 692.685 OFFCURVE",
"397.752 548.179 OFFCURVE",
"540.133 464.114 CURVE",
"535.696 491.098 OFFCURVE",
"532.888 518.418 OFFCURVE",
"531.704 546.007 CURVE"
);
},
{
closed = 1;
nodes = (
"619.394 924.155 OFFCURVE",
"668.75 997.364 OFFCURVE",
"731.598 1060.21 CURVE SMOOTH",
"794.446 1123.05 OFFCURVE",
"867.663 1172.4 OFFCURVE",
"949.212 1206.89 CURVE SMOOTH",
"1023.05 1238.12 OFFCURVE",
"1100.86 1255.89 OFFCURVE",
"1180.98 1259.87 CURVE",
"1080.23 1376.62 OFFCURVE",
"923.137 1440.06 OFFCURVE",
"759.666 1413.92 CURVE SMOOTH",
"508.734 1373.8 OFFCURVE",
"337.838 1137.87 OFFCURVE",
"377.955 886.961 CURVE SMOOTH",
"395.808 775.304 OFFCURVE",
"452.456 679.524 OFFCURVE",
"531.924 611.106 CURVE",
"535.932 691.13 OFFCURVE",
"553.701 768.852 OFFCURVE",
"584.901 842.611 CURVE SMOOTH"
);
}
);
width = 2048;
}
);
unicode = E032;
},
{
glyphname = uniE033;
lastChange = "2013-12-19 15:52:07 +0000";
layers = (
{
layerId = "7A8B565B-8C4A-454F-8A9F-3F36545C59D3";
name = Regular;
paths = (
{
closed = 1;
nodes = (
"1220.64 84.1377 OFFCURVE",
"1115.76 65.9883 OFFCURVE",
"970.556 65.9883 CURVE SMOOTH",
"635.767 65.9883 OFFCURVE",
"341.314 305.987 OFFCURVE",
"341.314 701.279 CURVE SMOOTH",
"341.314 1112.71 OFFCURVE",
"641.816 1469.68 OFFCURVE",
"1095.6 1469.68 CURVE SMOOTH",
"1452.57 1469.68 OFFCURVE",
"1706.69 1225.65 OFFCURVE",
"1706.69 886.827 CURVE SMOOTH",
"1706.69 590.357 OFFCURVE",
"1541.31 404.811 OFFCURVE",
"1323.5 404.811 CURVE SMOOTH",
"1228.71 404.811 OFFCURVE",
"1160.14 455.23 OFFCURVE",
"1150.05 560.104 CURVE",
"1146.02 560.104 LINE",
"1081.48 459.264 OFFCURVE",
"992.742 404.811 OFFCURVE",
"883.833 404.811 CURVE SMOOTH",
"754.758 404.811 OFFCURVE",
"657.953 503.635 OFFCURVE",
"657.953 669.013 CURVE SMOOTH",
"657.953 917.078 OFFCURVE",
"841.481 1138.93 OFFCURVE",
"1131.9 1138.93 CURVE SMOOTH",
"1220.64 1138.93 OFFCURVE",
"1321.48 1116.74 OFFCURVE",
"1371.9 1090.52 CURVE",
"1311.4 715.398 LINE SMOOTH",
"1291.23 596.408 OFFCURVE",
"1305.35 541.952 OFFCURVE",
"1361.81 539.935 CURVE SMOOTH",
"1448.54 535.902 OFFCURVE",
"1557.44 646.827 OFFCURVE",
"1557.44 880.776 CURVE SMOOTH",
"1557.44 1144.98 OFFCURVE",
"1388.03 1346.66 OFFCURVE",
"1075.43 1346.66 CURVE SMOOTH",
"764.841 1346.66 OFFCURVE",
"496.609 1106.66 OFFCURVE",
"496.609 719.432 CURVE SMOOTH",
"496.609 380.608 OFFCURVE",
"710.388 191.028 OFFCURVE",
"1010.89 191.028 CURVE SMOOTH",
"1113.75 191.028 OFFCURVE",
"1224.67 213.215 OFFCURVE",
"1305.35 253.552 CURVE",
"1341.65 138.593 LINE"
);
},
{
closed = 1;
nodes = (
"1146.02 975.566 OFFCURVE",
"1123.83 979.598 OFFCURVE",
"1099.63 979.598 CURVE SMOOTH",
"966.522 979.598 OFFCURVE",
"861.648 848.507 OFFCURVE",
"861.648 693.212 CURVE SMOOTH",
"861.648 616.574 OFFCURVE",
"895.933 568.172 OFFCURVE",
"962.488 568.172 CURVE SMOOTH",
"1037.11 568.172 OFFCURVE",
"1115.76 662.962 OFFCURVE",
"1133.92 779.937 CURVE SMOOTH",
"1162.15 971.532 LINE"
);
}
);
width = 2048;
}
);
unicode = E033;
},
{
glyphname = uniE034;
lastChange = "2013-12-19 15:52:30 +0000";
layers = (
{
layerId = "7A8B565B-8C4A-454F-8A9F-3F36545C59D3";
name = Regular;
paths = (
{
closed = 1;
nodes = (
"257.841 300.053 LINE",
"257.841 1219.44 LINE",
"993.356 974.272 LINE",
"993.356 54.8809 LINE"
);
},
{
closed = 1;
nodes = (
"1544.99 729.102 LINE",
"1299.82 647.379 LINE",
"1299.82 1056 LINE",
"1054.65 974.272 LINE",
"1054.65 54.8809 LINE",
"1790.16 300.053 LINE",
"1790.16 1219.44 LINE",
"1544.99 1137.72 LINE"
);
},
{
closed = 1;
nodes = (
"1790.16 1280.74 LINE",
"1024 1525.91 LINE",
"809.477 1457.26 LINE",
"1535.21 1199.15 LINE"
);
},
{
closed = 1;
nodes = (
"257.841 1280.74 LINE",
"1024 1035.56 LINE",
"1299.82 1123.83 LINE",
"564.306 1378.8 LINE"
);
}
);
width = 2048;
}
);
unicode = E034;
},
{
glyphname = uniE035;
lastChange = "2014-01-28 15:09:38 +0000";
layers = (
{
layerId = "7A8B565B-8C4A-454F-8A9F-3F36545C59D3";
name = Regular;
paths = (
{
closed = 1;
nodes = (
"1920 768 LINE",
"1786.17 857.221 LINE",
"1745.51 1210.6 OFFCURVE",
"1465.25 1491.06 OFFCURVE",
"1111.98 1532.03 CURVE",
"1024 1664 LINE",
"936.273 1532.41 LINE",
"580.671 1492.75 OFFCURVE",
"298.323 1210.54 OFFCURVE",
"258.47 854.98 CURVE",
"128 768 LINE",
"258.561 680.959 LINE",
"298.744 325.985 OFFCURVE",
"580.654 44.2998 OFFCURVE",
"935.711 4.43359 CURVE",
"1024 -128 LINE",
"1112.55 4.82031 LINE",
"1465.27 45.9971 OFFCURVE",
"1745.08 325.919 OFFCURVE",
"1786.07 678.71 CURVE"
);
},
{
closed = 1;
nodes = (
"849.92 122.486 OFFCURVE",
"687.718 189.672 OFFCURVE",
"565.722 311.664 CURVE SMOOTH",
"443.726 433.659 OFFCURVE",
"376.539 595.86 OFFCURVE",
"376.539 768.392 CURVE SMOOTH",
"376.539 940.922 OFFCURVE",
"443.726 1103.13 OFFCURVE",
"565.722 1225.12 CURVE SMOOTH",
"687.718 1347.11 OFFCURVE",
"849.917 1414.3 OFFCURVE",
"1022.44 1414.3 CURVE SMOOTH",
"1194.97 1414.3 OFFCURVE",
"1357.17 1347.11 OFFCURVE",
"1479.17 1225.12 CURVE SMOOTH",
"1601.16 1103.13 OFFCURVE",
"1668.35 940.922 OFFCURVE",
"1668.35 768.392 CURVE SMOOTH",
"1668.35 595.86 OFFCURVE",
"1601.16 433.659 OFFCURVE",
"1479.17 311.664 CURVE SMOOTH",
"1357.17 189.672 OFFCURVE",
"1194.97 122.486 OFFCURVE",
"1022.44 122.486 CURVE SMOOTH"
);
},
{
closed = 1;
nodes = (
"1174.75 617.017 LINE",
"1422.06 1168.5 LINE",
"870.635 921.13 LINE",
"623.213 369.648 LINE"
);
},
{
closed = 1;
nodes = (
"746.159 492.56 LINE",
"913.875 877.891 LINE",
"1131.31 660.451 LINE"
);
}
);
width = 2048;
}
);
unicode = E035;
},
{
glyphname = uniE036;
lastChange = "2013-12-19 15:53:19 +0000";
layers = (
{
layerId = "7A8B565B-8C4A-454F-8A9F-3F36545C59D3";
name = Regular;
paths = (
{
closed = 1;
nodes = (
"1508.48 424.881 OFFCURVE",
"1383.65 545.762 OFFCURVE",
"1192.96 589.928 CURVE",
"1192.96 629.635 LINE",
"1233.46 685.581 OFFCURVE",
"1266.86 761.442 OFFCURVE",
"1301.04 848.506 CURVE SMOOTH",
"1325.12 909.773 OFFCURVE",
"1320.99 962.004 OFFCURVE",
"1320.99 1036.38 CURVE SMOOTH",
"1320.99 1091.32 OFFCURVE",
"1331.34 1179.48 OFFCURVE",
"1317.7 1227.94 CURVE SMOOTH",
"1271.72 1391.69 OFFCURVE",
"1160.13 1471.83 OFFCURVE",
"1024 1471.83 CURVE SMOOTH",
"887.744 1471.83 OFFCURVE",
"766.746 1391.47 OFFCURVE",
"720.843 1227.45 CURVE SMOOTH",
"707.331 1179.14 OFFCURVE",
"717.688 1091.17 OFFCURVE",
"717.688 1036.38 CURVE SMOOTH",
"717.688 961.834 OFFCURVE",
"713.639 909.433 OFFCURVE",
"737.762 848.06 CURVE SMOOTH",
"774.903 753.751 OFFCURVE",
"810.409 672.973 OFFCURVE",
"855.041 616.255 CURVE",
"855.041 592.354 LINE",
"658.158 550.386 OFFCURVE",
"530.411 425.203 OFFCURVE",
"431.618 407.914 CURVE SMOOTH",
"235.519 373.595 OFFCURVE",
"235.519 225.645 OFFCURVE",
"235.519 225.645 CURVE",
"192 64 LINE",
"1856 64 LINE",
"1812.48 229.22 LINE",
"1812.48 229.22 OFFCURVE",
"1801.53 373.595 OFFCURVE",
"1605.43 407.914 CURVE SMOOTH"
);
}
);
width = 2048;
}
);
unicode = E036;
},
{
glyphname = uniE037;
lastChange = "2013-12-19 15:53:42 +0000";
layers = (
{
layerId = "7A8B565B-8C4A-454F-8A9F-3F36545C59D3";
name = Regular;
paths = (
{
closed = 1;
nodes = (
"1547.01 730.229 LINE",
"1439.48 1061.19 LINE",
"1331.94 730.229 LINE",
"983.951 730.231 LINE",
"1265.48 525.687 LINE",
"1157.95 194.729 LINE",
"1439.48 399.271 LINE",
"1721.01 194.729 LINE",
"1613.47 525.687 LINE",
"1895 730.229 LINE"
);
},
{
closed = 1;
nodes = (
"1000.1 837.663 OFFCURVE",
"1000.19 977.505 OFFCURVE",
"1000.19 1052.68 CURVE SMOOTH",
"1000.19 1127.86 OFFCURVE",
"965.131 1292.94 OFFCURVE",
"734.049 1292.94 CURVE SMOOTH",
"613.767 1292.94 OFFCURVE",
"494.643 1229.8 OFFCURVE",
"494.643 1049.38 CURVE",
"494.643 1049.38 OFFCURVE",
"502.162 968.711 OFFCURVE",
"502.162 908.572 CURVE SMOOTH",
"502.162 848.43 OFFCURVE",
"502.162 863.465 OFFCURVE",
"502.162 803.323 CURVE SMOOTH",
"502.162 743.183 OFFCURVE",
"562.303 683.041 OFFCURVE",
"622.442 622.899 CURVE",
"442.021 622.899 OFFCURVE",
"416.921 551.691 OFFCURVE",
"306.7 502.617 CURVE SMOOTH",
"156.348 435.677 OFFCURVE",
"156.348 310.214 OFFCURVE",
"156.348 310.214 CURVE",
"153 194.729 LINE",
"1031.57 194.729 LINE",
"1125.7 508.504 LINE",
"1125.7 508.504 OFFCURVE",
"992.815 595.742 OFFCURVE",
"932.642 643.574 CURVE SMOOTH",
"872.471 691.404 OFFCURVE",
"887.575 754.368 OFFCURVE",
"923.197 778.179 CURVE"
);
}
);
width = 2048;
}
);
unicode = E037;
},
{
glyphname = uniE038;
lastChange = "2013-12-19 15:54:10 +0000";
layers = (
{
layerId = "7A8B565B-8C4A-454F-8A9F-3F36545C59D3";
name = Regular;
paths = (
{
closed = 1;
nodes = (
"256 1280 LINE",
"1024 640 LINE",
"1792 1280 LINE"
);
},
{
closed = 1;
nodes = (
"256 320 LINE",
"704 768 LINE",
"256 1152 LINE"
);
},
{
closed = 1;
nodes = (
"1792 1152 LINE",
"1344 768 LINE",
"1792 320 LINE"
);
},
{
closed = 1;
nodes = (
"762.263 717.5 LINE",
"320 256 LINE",
"1728 256 LINE",
"1285.74 717.5 LINE",
"1024 512 LINE"
);
}
);
width = 2048;
}
);
unicode = E038;
},
{
glyphname = uniE039;
lastChange = "2013-12-19 15:54:37 +0000";
layers = (
{
layerId = "7A8B565B-8C4A-454F-8A9F-3F36545C59D3";
name = Regular;
paths = (
{
closed = 1;
nodes = (
"1189.69 959.05 LINE",
"1727.18 959.05 LINE",
"1292.34 643.12 LINE",
"1458.43 131.932 LINE",
"1023.59 447.862 LINE",
"588.75 131.932 LINE",
"754.841 643.12 LINE",
"320 959.05 LINE",
"857.497 959.05 LINE",
"1023.59 1470.24 LINE"
);
}
);
width = 2048;
}
);
unicode = E039;
},
{
glyphname = uniE040;
lastChange = "2013-12-19 15:55:13 +0000";
layers = (
{
layerId = "7A8B565B-8C4A-454F-8A9F-3F36545C59D3";
name = Regular;
paths = (
{
closed = 1;
nodes = (
"1664 384 LINE",
"1664 448 LINE",
"1792 448 LINE",
"1792 1380.8 LINE SMOOTH",
"1792 1442.8 OFFCURVE",
"1762.77 1472 OFFCURVE",
"1700.8 1472 CURVE SMOOTH",
"347.201 1472 LINE SMOOTH",
"285.177 1472 OFFCURVE",
"256 1442.8 OFFCURVE",
"256 1380.8 CURVE SMOOTH",
"255.999 448 LINE",
"384 448 LINE",
"384 384 LINE",
"255.999 384 LINE",
"64 128 LINE",
"64 128 OFFCURVE",
"56.2832 0 OFFCURVE",
"117.771 0 CURVE SMOOTH",
"188.815 0 OFFCURVE",
"1865.59 0 OFFCURVE",
"1920 0 CURVE SMOOTH",
"1978.73 0 OFFCURVE",
"1984 128 OFFCURVE",
"1984 128 CURVE",
"1792 384 LINE"
);
},
{
closed = 1;
nodes = (
"1664 1344.52 LINE",
"1664 576.518 LINE",
"384 576 LINE",
"384 1344 LINE"
);
},
{
closed = 1;
nodes = (
"896 256 LINE",
"1152 256 LINE",
"1280 128 LINE",
"768 128 LINE"
);
},
{
closed = 1;
nodes = (
"576 384 LINE",
"576 448 LINE",
"1472 448 LINE",
"1472 384 LINE"
);
}
);
width = 2048;
}
);
unicode = E040;
},
{
glyphname = uniE041;
lastChange = "2013-12-19 15:56:12 +0000";
layers = (
{
layerId = "7A8B565B-8C4A-454F-8A9F-3F36545C59D3";
name = Regular;
paths = (
{
closed = 1;
nodes = (
"649.332 1472 OFFCURVE",
"320 1202.55 OFFCURVE",
"320 870.157 CURVE SMOOTH",
"320 705.419 OFFCURVE",
"400.906 556.148 OFFCURVE",
"531.97 447.47 CURVE",
"453.745 134.572 LINE",
"752.821 321.495 LINE",
"845.159 287.332 OFFCURVE",
"947.659 268.315 OFFCURVE",
"1055.59 268.315 CURVE SMOOTH",
"1461.84 268.315 OFFCURVE",
"1791.17 537.769 OFFCURVE",
"1791.17 870.157 CURVE SMOOTH",
"1791.17 1202.55 OFFCURVE",
"1461.84 1472 OFFCURVE",
"1055.59 1472 CURVE SMOOTH"
);
}
);
width = 2048;
}
);
unicode = E041;
},
{
glyphname = uniE042;
lastChange = "2013-12-19 15:56:35 +0000";
layers = (
{
layerId = "7A8B565B-8C4A-454F-8A9F-3F36545C59D3";
name = Regular;
paths = (
{
closed = 1;
nodes = (
"648.53 1472 OFFCURVE",
"317.4 1201.07 OFFCURVE",
"317.4 866.87 CURVE SMOOTH",
"317.4 701.233 OFFCURVE",
"398.747 551.146 OFFCURVE",
"530.526 441.876 CURVE",
"451.875 127.27 LINE",
"752.584 315.213 LINE",
"845.426 280.863 OFFCURVE",
"948.486 261.741 OFFCURVE",
"1057 261.741 CURVE SMOOTH",
"1465.47 261.741 OFFCURVE",
"1796.61 532.668 OFFCURVE",
"1796.61 866.87 CURVE SMOOTH",
"1796.61 1201.07 OFFCURVE",
"1465.47 1472 OFFCURVE",
"1057 1472 CURVE SMOOTH"
);
},
{
closed = 1;
nodes = (
"1057 700.753 LINE",
"844.512 546.37 LINE",
"925.676 796.167 LINE",
"713.188 950.55 LINE",
"975.838 950.548 LINE",
"1057 1200.35 LINE",
"1138.16 950.548 LINE",
"1400.82 950.548 LINE",
"1188.33 796.167 LINE",
"1269.49 546.37 LINE"
);
}
);
width = 2048;
}
);
unicode = E042;
},
{
glyphname = uniE043;
lastChange = "2014-01-29 10:37:36 +0000";
layers = (
{
layerId = "7A8B565B-8C4A-454F-8A9F-3F36545C59D3";
name = Regular;
paths = (
{
closed = 1;
nodes = (
"599.845 1536 OFFCURVE",
"256 1192.16 OFFCURVE",
"256 768 CURVE SMOOTH",
"256 343.846 OFFCURVE",
"599.845 0 OFFCURVE",
"1024 0 CURVE SMOOTH",
"1448.15 0 OFFCURVE",
"1792 343.846 OFFCURVE",
"1792 768 CURVE SMOOTH",
"1792 1192.16 OFFCURVE",
"1448.15 1536 OFFCURVE",
"1024 1536 CURVE SMOOTH"
);
},
{
closed = 1;
nodes = (
"512 768 LINE",
"640 896 LINE",
"896 640 LINE",
"1408 1088 LINE",
"1536 960 LINE",
"896 384 LINE"
);
}
);
width = 2048;
}
);
unicode = E043;
},
{
glyphname = uniE044;
lastChange = "2014-01-29 10:37:06 +0000";
layers = (
{
layerId = "7A8B565B-8C4A-454F-8A9F-3F36545C59D3";
name = Regular;
paths = (
{
closed = 1;
nodes = (
"602.289 1535.02 OFFCURVE",
"257.976 1190.73 OFFCURVE",
"257.976 766 CURVE SMOOTH",
"257.976 341.289 OFFCURVE",
"602.289 -3 OFFCURVE",
"1027 -3 CURVE SMOOTH",
"1451.71 -3 OFFCURVE",
"1796.03 341.289 OFFCURVE",
"1796.03 766 CURVE SMOOTH",
"1796.03 1190.73 OFFCURVE",
"1451.71 1535.02 OFFCURVE",
"1027 1535.02 CURVE SMOOTH"
);
},
{
closed = 1;
nodes = (
"1348.85 604.549 OFFCURVE",
"1240.74 430.031 OFFCURVE",
"953.47 430.031 CURVE SMOOTH",
"565.441 430.031 OFFCURVE",
"438.813 715.953 OFFCURVE",
"438.813 715.953 CURVE SMOOTH",
"438.813 715.953 OFFCURVE",
"567.535 652.523 OFFCURVE",
"721.685 676.704 CURVE",
"587.705 748.973 OFFCURVE",
"588.05 987.019 OFFCURVE",
"588.05 987.019 CURVE",
"793.839 782.571 OFFCURVE",
"1018.84 872.672 OFFCURVE",
"1018.84 873.206 CURVE SMOOTH",
"1018.84 998.407 OFFCURVE",
"1120.34 1099.89 OFFCURVE",
"1245.53 1099.89 CURVE SMOOTH",
"1365.45 1099.89 OFFCURVE",
"1463.38 1006.7 OFFCURVE",
"1471.45 888.777 CURVE",
"1618.56 766 LINE",
"1385.66 695.242 LINE"
);
},
{
closed = 1;
nodes = (
"1216 860.654 OFFCURVE",
"1244.65 832 OFFCURVE",
"1280 832 CURVE SMOOTH",
"1315.35 832 OFFCURVE",
"1344 860.654 OFFCURVE",
"1344 896 CURVE SMOOTH",
"1344 931.346 OFFCURVE",
"1315.35 960 OFFCURVE",
"1280 960 CURVE SMOOTH",
"1244.65 960 OFFCURVE",
"1216 931.346 OFFCURVE",
"1216 896 CURVE SMOOTH"
);
}
);
width = 2048;
}
);
unicode = E044;
},
{
glyphname = uniE045;
lastChange = "2013-12-19 15:58:11 +0000";
layers = (
{
layerId = "7A8B565B-8C4A-454F-8A9F-3F36545C59D3";
name = Regular;
paths = (
{
closed = 1;
nodes = (
"600.603 1536 OFFCURVE",
"256 1191.4 OFFCURVE",
"256 768 CURVE SMOOTH",
"256 344.602 OFFCURVE",
"600.603 0 OFFCURVE",
"1024 0 CURVE SMOOTH",
"1447.4 0 OFFCURVE",
"1792 344.602 OFFCURVE",
"1792 768 CURVE SMOOTH",
"1792 1191.4 OFFCURVE",
"1447.4 1536 OFFCURVE",
"1024 1536 CURVE SMOOTH"
);
},
{
closed = 1;
nodes = (
"1408 960 LINE",
"1408 832 LINE",
"1344 832 LINE",
"1344 960 LINE",
"1216 960 LINE",
"1216 1024 LINE",
"1344 1024 LINE",
"1344 1152 LINE",
"1408 1152 LINE",
"1408 1024 LINE",
"1536 1024 LINE",
"1536 960 LINE"
);
},
{
closed = 1;
nodes = (
"1128.74 892.36 OFFCURVE",
"1108.09 834.826 OFFCURVE",
"1053.51 812.697 CURVE",
"1012.2 774.341 OFFCURVE",
"1012.2 752.211 OFFCURVE",
"1012.2 735.983 CURVE SMOOTH",
"1012.2 696.151 OFFCURVE",
"1053.51 678.449 OFFCURVE",
"1093.34 653.369 CURVE",
"1171.53 578.132 OFFCURVE",
"1189.23 538.3 OFFCURVE",
"1189.23 460.11 CURVE SMOOTH",
"1189.23 362.744 OFFCURVE",
"1071.21 263.902 OFFCURVE",
"911.881 263.902 CURVE SMOOTH",
"756.98 263.902 OFFCURVE",
"618.305 324.388 OFFCURVE",
"618.305 420.279 CURVE SMOOTH",
"618.305 538.3 OFFCURVE",
"736.325 635.666 OFFCURVE",
"894.178 635.666 CURVE",
"894.178 635.666 OFFCURVE",
"911.881 635.666 OFFCURVE",
"935.484 635.666 CURVE",
"911.881 653.369 OFFCURVE",
"894.178 678.449 OFFCURVE",
"894.178 696.151 CURVE SMOOTH",
"894.178 713.854 OFFCURVE",
"894.178 735.983 OFFCURVE",
"911.881 752.211 CURVE",
"894.178 752.211 OFFCURVE",
"894.178 752.211 OFFCURVE",
"872.049 752.211 CURVE SMOOTH",
"756.98 752.211 OFFCURVE",
"680.266 834.826 OFFCURVE",
"680.266 949.896 CURVE SMOOTH",
"680.266 1050.21 OFFCURVE",
"796.812 1149.05 OFFCURVE",
"935.484 1149.05 CURVE SMOOTH",
"993.019 1149.05 OFFCURVE",
"1189.23 1149.05 OFFCURVE",
"1189.23 1149.05 CURVE",
"1128.74 1091.52 LINE",
"1071.21 1091.52 LINE",
"1108.09 1067.92 OFFCURVE",
"1128.74 1013.33 OFFCURVE",
"1128.74 949.896 CURVE SMOOTH"
);
},
{
closed = 1;
nodes = (
"814.514 598.785 OFFCURVE",
"717.148 538.3 OFFCURVE",
"717.148 460.11 CURVE SMOOTH",
"717.148 380.446 OFFCURVE",
"796.812 324.388 OFFCURVE",
"911.881 324.388 CURVE SMOOTH",
"1053.51 324.388 OFFCURVE",
"1108.09 380.446 OFFCURVE",
"1108.09 460.11 CURVE SMOOTH",
"1108.09 477.814 LINE",
"1093.34 538.3 OFFCURVE",
"1053.51 557.477 OFFCURVE",
"993.019 598.785 CURVE",
"970.891 598.785 OFFCURVE",
"950.237 598.785 OFFCURVE",
"911.881 598.785 CURVE SMOOTH"
);
},
{
closed = 1;
nodes = (
"814.514 1109.22 OFFCURVE",
"776.158 1050.21 OFFCURVE",
"776.158 949.896 CURVE",
"796.812 854.004 OFFCURVE",
"854.347 792.043 OFFCURVE",
"935.484 792.043 CURVE SMOOTH",
"1012.2 792.043 OFFCURVE",
"1053.51 854.004 OFFCURVE",
"1031.38 949.896 CURVE SMOOTH",
"1012.2 1028.08 OFFCURVE",
"950.237 1109.22 OFFCURVE",
"894.178 1109.22 CURVE SMOOTH"
);
}
);
width = 2048;
}
);
unicode = E045;
},
{
glyphname = uniE046;
lastChange = "2013-12-19 15:58:35 +0000";
layers = (
{
layerId = "7A8B565B-8C4A-454F-8A9F-3F36545C59D3";
name = Regular;
paths = (
{
closed = 1;
nodes = (
"599.845 1536 OFFCURVE",
"256 1192.16 OFFCURVE",
"256 768 CURVE SMOOTH",
"256 387.458 OFFCURVE",
"532.774 71.5664 OFFCURVE",
"896 10.627 CURVE",
"896 576 LINE",
"704 576 LINE",
"704 832 LINE",
"896 832 LINE",
"896 832 OFFCURVE",
"896 983.547 OFFCURVE",
"896 1016.3 CURVE SMOOTH",
"896 1049.11 OFFCURVE",
"871.503 1280 OFFCURVE",
"1152 1280 CURVE SMOOTH",
"1189.59 1280 OFFCURVE",
"1344 1280 OFFCURVE",
"1344 1280 CURVE",
"1344 1024 LINE",
"1344 1024 OFFCURVE",
"1217.47 1024 OFFCURVE",
"1216 1024 CURVE SMOOTH",
"1187.15 1024 OFFCURVE",
"1153.04 988.593 OFFCURVE",
"1152 960 CURVE",
"1152 937.661 OFFCURVE",
"1152 832 OFFCURVE",
"1152 832 CURVE",
"1344 832 LINE",
"1280 576 LINE",
"1152 576 LINE",
"1152 10.627 LINE",
"1515.23 71.5664 OFFCURVE",
"1792 387.458 OFFCURVE",
"1792 768 CURVE SMOOTH",
"1792 1192.16 OFFCURVE",
"1448.15 1536 OFFCURVE",
"1024 1536 CURVE SMOOTH"
);
}
);
width = 2048;
}
);
unicode = E046;
},
{
glyphname = uniE047;
lastChange = "2013-12-19 15:59:06 +0000";
layers = (
{
layerId = "7A8B565B-8C4A-454F-8A9F-3F36545C59D3";
name = Regular;
paths = (
{
closed = 1;
nodes = (
"600.589 1534.5 OFFCURVE",
"257.33 1191.27 OFFCURVE",
"257.33 767.835 CURVE SMOOTH",
"257.33 344.425 OFFCURVE",
"600.589 1.16504 OFFCURVE",
"1024 1.16504 CURVE SMOOTH",
"1447.41 1.16504 OFFCURVE",
"1790.67 344.425 OFFCURVE",
"1790.67 767.835 CURVE SMOOTH",
"1790.67 1191.27 OFFCURVE",
"1447.41 1534.5 OFFCURVE",
"1024 1534.5 CURVE SMOOTH"
);
},
{
closed = 1;
nodes = (
"719.407 414.907 OFFCURVE",
"670.154 464.116 OFFCURVE",
"670.154 524.878 CURVE SMOOTH",
"670.154 585.614 OFFCURVE",
"719.407 634.835 OFFCURVE",
"780.135 634.835 CURVE SMOOTH",
"840.839 634.835 OFFCURVE",
"890.112 585.614 OFFCURVE",
"890.112 524.878 CURVE SMOOTH",
"890.112 464.116 OFFCURVE",
"840.839 414.907 OFFCURVE",
"780.135 414.907 CURVE SMOOTH"
);
},
{
closed = 1;
nodes = (
"1054.9 517.016 OFFCURVE",
"1014.94 612.935 OFFCURVE",
"942.99 685.251 CURVE SMOOTH",
"870.184 758.414 OFFCURVE",
"773.333 798.674 OFFCURVE",
"670.288 798.674 CURVE",
"670.288 957.463 LINE",
"969.192 957.463 OFFCURVE",
"1212.54 714.352 OFFCURVE",
"1214.71 414.708 CURVE",
"1055.93 414.708 LINE"
);
},
{
closed = 1;
nodes = (
"1334.15 782 OFFCURVE",
"1036.33 1080.15 OFFCURVE",
"670.512 1080.15 CURVE",
"670.512 1238.91 LINE",
"1123.91 1238.91 OFFCURVE",
"1492.91 869.566 OFFCURVE",
"1495.19 414.708 CURVE",
"1336.41 414.708 LINE"
);
}
);
width = 2048;
}
);
unicode = E047;
},
{
glyphname = uniE048;
lastChange = "2013-12-19 15:59:42 +0000";
layers = (
{
layerId = "7A8B565B-8C4A-454F-8A9F-3F36545C59D3";
name = Regular;
paths = (
{
closed = 1;
nodes = (
"1408 1088 LINE SMOOTH",
"1408 1300.08 OFFCURVE",
"1236.08 1472 OFFCURVE",
"1024 1472 CURVE SMOOTH",
"811.923 1472 OFFCURVE",
"640 1300.08 OFFCURVE",
"640 1088 CURVE SMOOTH",
"640 960 LINE",
"512 960 LINE",
"512 128 LINE",
"1536 128 LINE",
"1536 960 LINE",
"1408 960 LINE"
);
},
{
closed = 1;
nodes = (
"896 320 LINE",
"993.886 515.771 LINE",
"937.678 529.667 OFFCURVE",
"896 580.426 OFFCURVE",
"896 640.928 CURVE SMOOTH",
"896 701.115 OFFCURVE",
"937.244 751.666 OFFCURVE",
"993.009 765.869 CURVE",
"1003.75 769.133 OFFCURVE",
"1015.15 770.894 OFFCURVE",
"1026.96 770.894 CURVE SMOOTH",
"1051.35 770.894 OFFCURVE",
"1073.98 763.407 OFFCURVE",
"1092.7 750.615 CURVE",
"1129.4 727.89 OFFCURVE",
"1153.85 687.268 OFFCURVE",
"1153.85 640.928 CURVE SMOOTH",
"1153.85 579.833 OFFCURVE",
"1111.36 528.668 OFFCURVE",
"1054.32 515.368 CURVE",
"1152 320 LINE"
);
},
{
closed = 1;
nodes = (
"768 960 LINE",
"768 1088 LINE",
"768 1088 LINE",
"768 1229.39 OFFCURVE",
"882.615 1344 OFFCURVE",
"1024 1344 CURVE SMOOTH",
"1165.38 1344 OFFCURVE",
"1280 1229.39 OFFCURVE",
"1280 1088 CURVE SMOOTH",
"1280 960 LINE"
);
}
);
width = 2048;
}
);
unicode = E048;
},
{
glyphname = uniE049;
lastChange = "2013-12-19 16:00:23 +0000";
layers = (
{
layerId = "7A8B565B-8C4A-454F-8A9F-3F36545C59D3";
name = Regular;
paths = (
{
closed = 1;
nodes = (
"1646.14 1389.72 OFFCURVE",
"1464.88 1342.54 OFFCURVE",
"1319.5 1342.54 CURVE SMOOTH",
"1174.12 1342.54 OFFCURVE",
"1022.4 1421.78 OFFCURVE",
"1022.4 1421.78 CURVE SMOOTH",
"1022.4 1421.78 OFFCURVE",
"877.054 1342.54 OFFCURVE",
"728.502 1342.54 CURVE SMOOTH",
"579.95 1342.54 OFFCURVE",
"401.828 1389.72 OFFCURVE",
"401.828 1389.72 CURVE SMOOTH",
"401.828 1389.72 OFFCURVE",
"369.122 1287.29 OFFCURVE",
"369.122 1128.5 CURVE SMOOTH",
"369.122 722.611 OFFCURVE",
"499.127 466.06 OFFCURVE",
"674.893 321.469 CURVE SMOOTH",
"780.36 234.709 OFFCURVE",
"951.597 113.887 OFFCURVE",
"1022.4 113.887 CURVE SMOOTH",
"1093.23 113.887 OFFCURVE",
"1265.86 235.047 OFFCURVE",
"1372.18 322.502 CURVE SMOOTH",
"1548.23 467.398 OFFCURVE",
"1678.88 722.611 OFFCURVE",
"1678.88 1128.5 CURVE SMOOTH",
"1678.88 1284.79 OFFCURVE",
"1646.14 1389.72 OFFCURVE",
"1646.14 1389.72 CURVE SMOOTH"
);
},
{
closed = 1;
nodes = (
"780.802 580.377 LINE",
"600.5 760.678 LINE",
"720.702 880.879 LINE",
"901.003 700.578 LINE",
"1381.81 1121.28 LINE",
"1502.01 1001.08 LINE",
"901.003 460.176 LINE"
);
}
);
width = 2048;
}
);
unicode = E049;
},
{
glyphname = uniE050;
lastChange = "2014-01-29 10:32:37 +0000";
layers = (
{
layerId = "7A8B565B-8C4A-454F-8A9F-3F36545C59D3";
name = Regular;
paths = (
{
closed = 1;
nodes = (
"1216 1280 LINE",
"1344 1280 LINE",
"1344 1536 LINE",
"704 1536 LINE",
"704 1280 LINE",
"832 1280 LINE",
"832 1152 LINE",
"832 1152 LINE SMOOTH",
"761.308 1152 OFFCURVE",
"640 1024 OFFCURVE",
"640 896 CURVE SMOOTH",
"640 128 LINE SMOOTH",
"640 57.1836 OFFCURVE",
"697.185 0 OFFCURVE",
"768 0 CURVE SMOOTH",
"1280 0 LINE SMOOTH",
"1350.82 0 OFFCURVE",
"1408 57.1836 OFFCURVE",
"1408 128 CURVE SMOOTH",
"1408 896 LINE SMOOTH",
"1408 1024 OFFCURVE",
"1286.69 1152 OFFCURVE",
"1216 1152 CURVE"
);
},
{
closed = 1;
nodes = (
"981.961 320 LINE",
"891.451 410.51 LINE",
"755.687 546.273 LINE",
"846.196 636.783 LINE",
"981.961 501.02 LINE",
"1253.49 772.548 LINE",
"1344 682.039 LINE",
"1072.47 410.51 LINE"
);
}
);
width = 2048;
}
);
unicode = E050;
},
{
glyphname = uniE051;
lastChange = "2013-12-19 16:01:32 +0000";
layers = (
{
layerId = "7A8B565B-8C4A-454F-8A9F-3F36545C59D3";
name = Regular;
paths = (
{
closed = 1;
nodes = (
"1596.56 1310.59 LINE",
"1152.74 1596.69 LINE",
"638.35 1384.95 LINE",
"638.35 897.195 LINE",
"405.538 897.195 LINE",
"405.538 513.91 LINE",
"638.356 513.715 LINE",
"638.35 386.148 LINE",
"510.587 450.029 LINE",
"191.183 194.506 LINE",
"702.231 -61 LINE",
"1021.63 194.506 LINE",
"1021.63 513.91 LINE",
"1213.28 513.91 LINE",
"1213.28 194.506 LINE",
"1532.68 -61 LINE",
"1788.2 322.268 LINE",
"1596.56 446.152 LINE"
);
},
{
closed = 1;
nodes = (
"748.116 409.94 OFFCURVE",
"751.298 449.545 OFFCURVE",
"815.557 449.609 CURVE SMOOTH",
"879.583 449.674 OFFCURVE",
"892.36 409.94 OFFCURVE",
"892.36 409.94 CURVE SMOOTH",
"748.116 409.94 LINE SMOOTH"
);
},
{
closed = 1;
nodes = (
"1061.63 788.071 LINE SMOOTH",
"1045.55 771.979 OFFCURVE",
"1028.86 761.083 OFFCURVE",
"1010.44 749.562 CURVE SMOOTH",
"941.409 705.812 OFFCURVE",
"856.85 687.418 OFFCURVE",
"775.148 696.615 CURVE SMOOTH",
"765.948 697.773 LINE",
"764.809 697.773 OFFCURVE",
"764.809 696.615 OFFCURVE",
"764.809 696.615 CURVE SMOOTH",
"764.237 696.615 OFFCURVE",
"764.237 696.037 OFFCURVE",
"764.809 695.449 CURVE",
"773.429 685.721 OFFCURVE",
"783.208 677.062 OFFCURVE",
"793.565 669.56 CURVE",
"794.727 669.025 LINE",
"795.284 669.56 OFFCURVE",
"797.024 669.56 OFFCURVE",
"797.024 671.346 CURVE SMOOTH",
"797.024 675.363 OFFCURVE",
"795.284 679.912 OFFCURVE",
"797.583 683.402 CURVE",
"836.717 683.402 LINE",
"836.717 681.66 LINE",
"837.855 667.24 OFFCURVE",
"836.137 652.857 OFFCURVE",
"837.855 638.531 CURVE",
"846.497 631.611 OFFCURVE",
"854.553 624.732 OFFCURVE",
"863.167 615.537 CURVE SMOOTH",
"879.261 599.373 OFFCURVE",
"888.483 574.641 OFFCURVE",
"883.887 550.529 CURVE",
"878.13 526.914 OFFCURVE",
"858.575 510.797 OFFCURVE",
"839.016 499.279 CURVE",
"837.855 499.279 OFFCURVE",
"836.717 498.16 OFFCURVE",
"836.717 496.998 CURVE SMOOTH",
"836.717 468.248 LINE",
"824.061 468.248 LINE",
"809.665 468.248 LINE",
"797.583 468.248 LINE",
"795.867 468.248 LINE",
"795.284 469.363 OFFCURVE",
"795.867 472.85 OFFCURVE",
"795.284 475.701 CURVE",
"795.284 476.328 OFFCURVE",
"794.727 476.867 OFFCURVE",
"793.565 476.867 CURVE",
"780.909 474.008 OFFCURVE",
"768.252 469.363 OFFCURVE",
"755.015 464.225 CURVE",
"754.458 463.645 OFFCURVE",
"753.872 464.225 OFFCURVE",
"752.734 464.225 CURVE SMOOTH",
"752.734 464.225 OFFCURVE",
"752.154 465.348 OFFCURVE",
"752.154 465.973 CURVE",
"751.576 465.973 OFFCURVE",
"751.576 466.51 OFFCURVE",
"751.576 466.51 CURVE",
"749.856 494.1 OFFCURVE",
"777.468 509.637 OFFCURVE",
"795.284 523.477 CURVE",
"795.284 616.652 LINE",
"772.87 633.926 OFFCURVE",
"748.713 649.467 OFFCURVE",
"729.162 673.574 CURVE",
"699.224 735.725 OFFCURVE",
"614.107 734.565 OFFCURVE",
"573.253 788.071 CURVE",
"556.577 803.61 LINE",
"557.716 801.892 OFFCURVE",
"547.362 812.805 OFFCURVE",
"547.963 816.271 CURVE",
"676.794 816.271 LINE",
"679.676 827.761 OFFCURVE",
"677.954 839.262 OFFCURVE",
"680.248 850.198 CURVE",
"686.593 896.209 OFFCURVE",
"710.748 939.937 OFFCURVE",
"748.116 966.388 CURVE SMOOTH",
"784.948 992.863 OFFCURVE",
"832.114 1000.93 OFFCURVE",
"875.27 987.685 CURVE",
"914.38 977.333 OFFCURVE",
"946.012 947.414 OFFCURVE",
"962.104 909.465 CURVE",
"967.866 893.331 OFFCURVE",
"973.621 874.35 OFFCURVE",
"966.124 858.258 CURVE",
"965.566 858.258 LINE",
"961.523 863.439 OFFCURVE",
"958.085 871.471 OFFCURVE",
"951.187 874.35 CURVE",
"951.187 873.773 OFFCURVE",
"950.047 873.773 OFFCURVE",
"950.047 873.773 CURVE",
"949.445 872.635 OFFCURVE",
"949.445 872.635 OFFCURVE",
"949.445 872.051 CURVE",
"948.89 872.051 OFFCURVE",
"948.89 871.471 OFFCURVE",
"948.89 870.335 CURVE",
"945.43 855.379 LINE",
"945.43 854.238 OFFCURVE",
"944.85 854.238 OFFCURVE",
"943.714 854.238 CURVE",
"941.972 855.956 OFFCURVE",
"940.833 857.678 OFFCURVE",
"939.088 859.394 CURVE",
"939.088 859.974 LINE",
"927.596 880.672 OFFCURVE",
"924.715 905.426 OFFCURVE",
"906.319 922.098 CURVE",
"883.887 947.414 OFFCURVE",
"848.794 956.609 OFFCURVE",
"815.995 952.014 CURVE SMOOTH",
"786.671 947.414 OFFCURVE",
"760.773 927.856 OFFCURVE",
"743.513 902.547 CURVE",
"727.418 876.677 OFFCURVE",
"717.639 847.341 OFFCURVE",
"719.36 816.848 CURVE",
"1087.51 816.271 LINE",
"1085.82 811.67 OFFCURVE",
"1083.5 808.788 OFFCURVE",
"1076.58 803.61 CURVE"
);
},
{
closed = 1;
nodes = (
"1021.63 897.195 LINE",
"1021.63 1216.6 LINE",
"1213.28 1088.84 LINE",
"1213.28 897.195 LINE"
);
}
);
width = 2048;
}
);
unicode = E051;
},
{
glyphname = uniE052;
lastChange = "2013-12-19 16:02:43 +0000";
layers = (
{
layerId = "7A8B565B-8C4A-454F-8A9F-3F36545C59D3";
name = Regular;
paths = (
{
closed = 1;
nodes = (
"1221.26 -256 LINE",
"1265.55 -170 OFFCURVE",
"1312.8 -67 OFFCURVE",
"1340.46 28.6572 CURVE SMOOTH",
"1353.04 72.0479 OFFCURVE",
"1374.87 151.099 OFFCURVE",
"1391.04 182.188 CURVE",
"1323.39 177.607 OFFCURVE",
"1289.92 190.746 OFFCURVE",
"1289.92 190.746 CURVE",
"1368.02 188.885 OFFCURVE",
"1432.04 204.286 OFFCURVE",
"1432.04 204.286 CURVE",
"1432.05 204.286 LINE",
"1481.12 216.912 OFFCURVE",
"1572.86 237.648 OFFCURVE",
"1616.55 284.549 CURVE SMOOTH",
"1671.77 343.804 OFFCURVE",
"1667.73 374.784 OFFCURVE",
"1667.73 374.784 CURVE SMOOTH",
"1667.73 374.784 OFFCURVE",
"1704.09 412.493 OFFCURVE",
"1700.05 455.586 CURVE SMOOTH",
"1696 498.681 OFFCURVE",
"1666.39 533.694 OFFCURVE",
"1666.39 533.694 CURVE SMOOTH",
"1666.39 533.694 OFFCURVE",
"1678.51 738.405 OFFCURVE",
"1515.54 887.896 CURVE SMOOTH",
"1373.7 1018.01 OFFCURVE",
"1212.52 1047.11 OFFCURVE",
"1144.7 1065.8 CURVE",
"1144.69 1065.8 LINE SMOOTH",
"1144.69 1065.8 OFFCURVE",
"1144.59 1065.83 OFFCURVE",
"1144.56 1065.83 CURVE",
"1136.54 1068.04 OFFCURVE",
"1129.86 1070.11 OFFCURVE",
"1124.65 1072.18 CURVE",
"1107.03 1077.99 OFFCURVE",
"1081.01 1087.05 OFFCURVE",
"1059.99 1096.4 CURVE",
"1059.99 1096.4 OFFCURVE",
"1088.57 1090.21 OFFCURVE",
"1118.91 1089.18 CURVE",
"1111.44 1145.63 OFFCURVE",
"1072.37 1436.61 OFFCURVE",
"1050.32 1516.04 CURVE SMOOTH",
"1025.93 1603.92 OFFCURVE",
"967.84 1707.9 OFFCURVE",
"923.463 1641.33 CURVE SMOOTH",
"868.763 1559.27 OFFCURVE",
"858.021 1386.96 OFFCURVE",
"855.915 1321.6 CURVE",
"888.666 1272.7 OFFCURVE",
"897.576 1238.25 OFFCURVE",
"897.576 1238.25 CURVE",
"873.578 1280.6 OFFCURVE",
"854.423 1299.64 OFFCURVE",
"830.602 1326.99 CURVE SMOOTH",
"829.757 1327.93 OFFCURVE",
"828.923 1328.86 OFFCURVE",
"828.027 1329.84 CURVE SMOOTH",
"817.875 1341.04 OFFCURVE",
"807.076 1352.7 OFFCURVE",
"795.857 1364.48 CURVE",
"795.701 1364.64 OFFCURVE",
"795.613 1364.73 OFFCURVE",
"795.613 1364.73 CURVE",
"795.613 1364.74 LINE",
"702.007 1463.05 OFFCURVE",
"579.32 1569.9 OFFCURVE",
"557.549 1490.08 CURVE SMOOTH",
"533.159 1400.64 OFFCURVE",
"557.993 1259.6 OFFCURVE",
"622.634 1128.97 CURVE SMOOTH",
"687.281 998.33 OFFCURVE",
"765.389 918.879 OFFCURVE",
"782.901 891.94 CURVE SMOOTH",
"800.414 865.002 OFFCURVE",
"803.106 813.826 OFFCURVE",
"800.414 788.239 CURVE SMOOTH",
"798.914 774.072 OFFCURVE",
"788.748 752.909 OFFCURVE",
"777.229 736.59 CURVE",
"777.243 736.579 LINE",
"777.243 736.579 OFFCURVE",
"773.732 730.521 OFFCURVE",
"765.599 722.412 CURVE SMOOTH",
"765.194 722.004 OFFCURVE",
"764.797 721.59 OFFCURVE",
"764.401 721.208 CURVE SMOOTH",
"752.589 709.8 OFFCURVE",
"731.821 694.832 OFFCURVE",
"698.78 686.447 CURVE",
"698.78 686.447 OFFCURVE",
"723.494 701.873 OFFCURVE",
"739.401 719.309 CURVE",
"697.165 751.01 OFFCURVE",
"540.919 885.786 OFFCURVE",
"131.393 824.683 CURVE SMOOTH",
"83.0366 817.473 OFFCURVE",
"39.3916 806.187 OFFCURVE",
"0 791.438 CURVE",
"0 -256 LINE"
);
},
{
closed = 1;
nodes = (
"1401.07 671.065 OFFCURVE",
"1394.33 602.38 OFFCURVE",
"1391.64 591.61 CURVE",
"1391.64 591.61 OFFCURVE",
"1273.13 552.556 OFFCURVE",
"1250.23 667.026 CURVE",
"1250.23 667.026 OFFCURVE",
"1271.77 703.39 OFFCURVE",
"1336.42 687.229 CURVE SMOOTH"
);
}
);
width = 2048;
}
);
unicode = E052;
},
{
glyphname = uniE053;
lastChange = "2016-08-25 09:25:45 +0000";
layers = (
{
layerId = "7A8B565B-8C4A-454F-8A9F-3F36545C59D3";
name = Regular;
paths = (
{
closed = 1;
nodes = (
"1610.61 1613.11 OFFCURVE",
"1459.04 1452.82 OFFCURVE",
"1436.4 1426.69 CURVE SMOOTH",
"1416.74 1404 OFFCURVE",
"1301.33 1267.21 OFFCURVE",
"1271.17 1231.45 CURVE",
"1298.42 1213.66 OFFCURVE",
"1316.17 1193.57 OFFCURVE",
"1316.17 1193.57 CURVE",
"1289.96 1212.69 OFFCURVE",
"1245.95 1239.41 OFFCURVE",
"1133.25 1257.69 CURVE SMOOTH",
"984.479 1281.82 OFFCURVE",
"919.993 1245.26 OFFCURVE",
"893.371 1236 CURVE",
"893.371 1236 OFFCURVE",
"930.425 1263.31 OFFCURVE",
"969.442 1272.09 CURVE",
"954.226 1306.52 OFFCURVE",
"886.819 1459.97 OFFCURVE",
"866.681 1503.35 CURVE SMOOTH",
"844.035 1552.13 OFFCURVE",
"755.177 1679.31 OFFCURVE",
"671.549 1661.89 CURVE SMOOTH",
"587.925 1644.47 OFFCURVE",
"506.038 1383.13 OFFCURVE",
"502.557 1327.38 CURVE SMOOTH",
"499.062 1271.62 OFFCURVE",
"504.293 1055.59 OFFCURVE",
"476.417 924.918 CURVE SMOOTH",
"457.318 835.377 OFFCURVE",
"451.124 727.636 OFFCURVE",
"465.203 639.455 CURVE SMOOTH",
"468.472 619.124 OFFCURVE",
"510.667 472.491 OFFCURVE",
"530.804 411.252 CURVE",
"530.804 411.252 OFFCURVE",
"498.383 458.092 OFFCURVE",
"477.548 500.564 CURVE",
"385.633 400.183 OFFCURVE",
"354.002 279.921 OFFCURVE",
"328.324 235 CURVE SMOOTH",
"300.45 186.215 OFFCURVE",
"161.078 24.1836 OFFCURVE",
"58.2842 -39 CURVE SMOOTH",
"0.006348 -74 OFFCURVE",
"-5 -174 OFFCURVE",
"2.50732 -256 CURVE",
"1473.6 -256 LINE",
"1480.07 -202 OFFCURVE",
"1497.69 -65 OFFCURVE",
"1499.11 41.6152 CURVE SMOOTH",
"1500.52 147.752 OFFCURVE",
"1450.04 266.576 OFFCURVE",
"1431.46 310.497 CURVE",
"1397.72 296.435 OFFCURVE",
"1361.17 288.475 OFFCURVE",
"1361.17 288.475 CURVE",
"1399.94 304.314 OFFCURVE",
"1438.68 325.225 OFFCURVE",
"1480.87 364.266 CURVE SMOOTH",
"1525.53 405.606 OFFCURVE",
"1563.58 491.108 OFFCURVE",
"1586.22 557.313 CURVE SMOOTH",
"1608.87 623.519 OFFCURVE",
"1650.69 844.777 OFFCURVE",
"1654.17 870.916 CURVE SMOOTH",
"1657.65 897.055 OFFCURVE",
"1722.12 1067.79 OFFCURVE",
"1737.8 1153.15 CURVE SMOOTH",
"1753.48 1238.52 OFFCURVE",
"1767.42 1515.54 OFFCURVE",
"1689.01 1564.33 CURVE SMOOTH"
);
},
{
closed = 1;
nodes = (
"931.141 706.273 OFFCURVE",
"858.841 678.4 OFFCURVE",
"800.477 712.367 CURVE SMOOTH",
"742.107 746.338 OFFCURVE",
"766.5 809.06 OFFCURVE",
"766.5 809.06 CURVE SMOOTH",
"766.5 809.06 OFFCURVE",
"813.545 853.488 OFFCURVE",
"883.232 820.384 CURVE SMOOTH",
"952.919 787.283 OFFCURVE",
"931.141 706.273 OFFCURVE",
"931.141 706.273 CURVE SMOOTH"
);
},
{
closed = 1;
nodes = (
"1259.55 642.684 OFFCURVE",
"1236.9 687.107 OFFCURVE",
"1236.9 687.107 CURVE SMOOTH",
"1236.9 687.107 OFFCURVE",
"1244.74 763.769 OFFCURVE",
"1313.56 777.706 CURVE SMOOTH",
"1382.38 791.642 OFFCURVE",
"1407.64 745.471 OFFCURVE",
"1407.64 745.471 CURVE SMOOTH",
"1407.64 745.471 OFFCURVE",
"1412.87 667.076 OFFCURVE",
"1336.21 654.883 CURVE SMOOTH"
);
}
);
width = 2048;
}
);
unicode = E053;
},
{
glyphname = uniE054;
lastChange = "2016-08-25 09:19:29 +0000";
layers = (
{
layerId = "7A8B565B-8C4A-454F-8A9F-3F36545C59D3";
name = Regular;
paths = (
{
closed = 1;
nodes = (
"1152 192 OFFCURVE",
"1344 128 OFFCURVE",
"1568 192 CURVE SMOOTH",
"1696 224 OFFCURVE",
"1760 288 OFFCURVE",
"1792 352 CURVE",
"1792 352 OFFCURVE",
"1856 384 OFFCURVE",
"1856 448 CURVE SMOOTH",
"1856 480 OFFCURVE",
"1856 480 OFFCURVE",
"1824 512 CURVE SMOOTH",
"1792 512 OFFCURVE",
"1440 704 OFFCURVE",
"1344 768 CURVE SMOOTH",
"1280 832 OFFCURVE",
"1248 960 OFFCURVE",
"1184 1024 CURVE SMOOTH",
"1088 1088 OFFCURVE",
"960 1152 OFFCURVE",
"928 1248 CURVE SMOOTH",
"896 1280 OFFCURVE",
"928 1440 OFFCURVE",
"928 1504 CURVE SMOOTH",
"928 1536 OFFCURVE",
"960 1632 OFFCURVE",
"928 1664 CURVE SMOOTH",
"896 1696 OFFCURVE",
"896 1632 OFFCURVE",
"864 1600 CURVE SMOOTH",
"864 1568 OFFCURVE",
"864 1536 OFFCURVE",
"832 1536 CURVE",
"864 1440 OFFCURVE",
"832 1312 OFFCURVE",
"832 1312 CURVE",
"832 1440 OFFCURVE",
"832 1536 OFFCURVE",
"832 1536 CURVE SMOOTH",
"832 1568 OFFCURVE",
"800 1600 OFFCURVE",
"800 1632 CURVE SMOOTH",
"800 1632 OFFCURVE",
"768 1632 OFFCURVE",
"736 1568 CURVE SMOOTH",
"736 1536 OFFCURVE",
"640 1344 OFFCURVE",
"576 1280 CURVE SMOOTH",
"544 1216 OFFCURVE",
"320 928 OFFCURVE",
"256 864 CURVE SMOOTH",
"224 864 OFFCURVE",
"128 768 OFFCURVE",
"0 672 CURVE",
"0 -256 LINE",
"832 -256 LINE",
"864 -192 OFFCURVE",
"864 -160 OFFCURVE",
"896 -128 CURVE SMOOTH",
"896 0 OFFCURVE",
"1056 224 OFFCURVE",
"1056 224 CURVE",
"1056 224 OFFCURVE",
"992 224 OFFCURVE",
"1056 224 CURVE SMOOTH",
"1088 224 OFFCURVE",
"1120 224 OFFCURVE",
"1120 224 CURVE SMOOTH"
);
},
{
closed = 1;
nodes = (
"1024 672 OFFCURVE",
"992 704 OFFCURVE",
"992 704 CURVE",
"992 704 OFFCURVE",
"1088 768 OFFCURVE",
"1088 768 CURVE",
"1120 672 OFFCURVE",
"1056 672 OFFCURVE",
"1056 672 CURVE"
);
}
);
width = 2048;
}
);
unicode = E054;
},
{
glyphname = uniE055;
lastChange = "2016-08-25 09:26:37 +0000";
layers = (
{
layerId = "7A8B565B-8C4A-454F-8A9F-3F36545C59D3";
name = Regular;
paths = (
{
closed = 1;
nodes = (
"967.822 391.927 OFFCURVE",
"967.822 377.189 OFFCURVE",
"991.406 328.556 CURVE SMOOTH",
"1014.98 279.922 OFFCURVE",
"1168.26 107.492 OFFCURVE",
"1194.78 80.9688 CURVE SMOOTH",
"1221.3 54.4385 OFFCURVE",
"1205.1 16.123 OFFCURVE",
"1236.05 -17.7725 CURVE SMOOTH",
"1255.81 -39.4268 OFFCURVE",
"1275.83 -43.7852 OFFCURVE",
"1292.31 -44.4395 CURVE",
"1282.03 -13.3096 OFFCURVE",
"1290.01 9.69727 OFFCURVE",
"1290.01 9.69727 CURVE",
"1294.56 -22.3994 OFFCURVE",
"1311.13 -41.626 OFFCURVE",
"1318.86 -48.1621 CURVE",
"1368.94 -86.3525 OFFCURVE",
"1441.76 -52.874 OFFCURVE",
"1468.9 -44.3027 CURVE SMOOTH",
"1496.9 -35.4609 OFFCURVE",
"1510.16 2.85449 OFFCURVE",
"1513.11 32.3359 CURVE SMOOTH",
"1516.05 61.8096 OFFCURVE",
"1577.96 145.81 OFFCURVE",
"1591.22 160.553 CURVE SMOOTH",
"1604.48 175.284 OFFCURVE",
"1600.06 198.864 OFFCURVE",
"1591.22 220.973 CURVE SMOOTH",
"1582.38 243.076 OFFCURVE",
"1532.27 328.556 OFFCURVE",
"1516.05 365.397 CURVE SMOOTH",
"1499.84 402.243 OFFCURVE",
"1463.01 552.562 OFFCURVE",
"1455.63 589.409 CURVE SMOOTH",
"1448.26 626.25 OFFCURVE",
"1420.27 792.784 OFFCURVE",
"1429.11 838.471 CURVE SMOOTH",
"1437.95 884.16 OFFCURVE",
"1470.37 951.951 OFFCURVE",
"1460.05 988.797 CURVE SMOOTH",
"1449.74 1025.64 OFFCURVE",
"1404.06 1081.64 OFFCURVE",
"1374.58 1108.16 CURVE SMOOTH",
"1345.11 1134.69 OFFCURVE",
"1344.37 1167.12 OFFCURVE",
"1344.37 1167.12 CURVE",
"1390.79 1155.33 OFFCURVE",
"1392.26 1167.12 OFFCURVE",
"1392.26 1167.12 CURVE",
"1339.2 1173.01 OFFCURVE",
"1296.47 1282.07 OFFCURVE",
"1296.47 1282.07 CURVE",
"1337.73 1326.28 OFFCURVE",
"1370.16 1402.92 OFFCURVE",
"1371.63 1485.45 CURVE SMOOTH",
"1373.1 1567.98 OFFCURVE",
"1355.42 1631.35 OFFCURVE",
"1342.16 1632.82 CURVE SMOOTH",
"1328.89 1634.29 OFFCURVE",
"1318.57 1606.29 OFFCURVE",
"1284.67 1535.55 CURVE SMOOTH",
"1257.88 1479.62 OFFCURVE",
"1209.29 1440.89 OFFCURVE",
"1187.67 1425.33 CURVE",
"1206.5 1408.4 OFFCURVE",
"1216.45 1377.38 OFFCURVE",
"1216.45 1377.38 CURVE SMOOTH",
"1216.45 1377.38 OFFCURVE",
"1216.45 1377.38 OFFCURVE",
"1195.12 1397.24 CURVE SMOOTH",
"1183.34 1408.21 OFFCURVE",
"1172.78 1414.47 OFFCURVE",
"1165.68 1417.89 CURVE",
"1091.96 1449.69 OFFCURVE",
"1028.25 1420.74 OFFCURVE",
"1028.25 1425.02 CURVE SMOOTH",
"1028.25 1429.44 OFFCURVE",
"1022.35 1491.34 OFFCURVE",
"1017.93 1538.5 CURVE SMOOTH",
"1013.51 1585.66 OFFCURVE",
"1034.14 1672.61 OFFCURVE",
"1012.04 1663.77 CURVE",
"922.133 1609.24 OFFCURVE",
"855.824 1447.13 OFFCURVE",
"855.824 1447.13 CURVE SMOOTH",
"855.824 1447.13 OFFCURVE",
"680.441 1469.23 OFFCURVE",
"418.117 1429.44 CURVE SMOOTH",
"283.709 1409.05 OFFCURVE",
"134.25 1345.72 OFFCURVE",
"0 1279.88 CURVE",
"0 -256 LINE",
"208.061 -256 LINE",
"226.707 -196.066 OFFCURVE",
"249.656 -101.359 OFFCURVE",
"248.639 -4.51074 CURVE SMOOTH",
"247.168 135.498 OFFCURVE",
"279.586 175.936 OFFCURVE",
"384.225 315.294 CURVE SMOOTH",
"471.285 431.248 OFFCURVE",
"630.693 542.923 OFFCURVE",
"681.807 577.184 CURVE",
"658.074 638.973 OFFCURVE",
"664.777 686.162 OFFCURVE",
"664.777 686.162 CURVE",
"688.924 611.339 OFFCURVE",
"708.742 572.366 OFFCURVE",
"720.854 553.065 CURVE",
"822.963 411.079 OFFCURVE",
"967.822 391.927 OFFCURVE",
"967.822 391.927 CURVE SMOOTH"
);
},
{
closed = 1;
nodes = (
"996.312 912.148 OFFCURVE",
"1015.19 956.376 OFFCURVE",
"1053.3 951.453 CURVE SMOOTH",
"1083.75 947.519 OFFCURVE",
"1089.31 919.916 OFFCURVE",
"1093.23 906.162 CURVE SMOOTH",
"1097.16 892.414 OFFCURVE",
"1106.36 876.782 OFFCURVE",
"1106.36 876.782 CURVE",
"1024.8 824.707 OFFCURVE",
"982.562 914.115 OFFCURVE",
"982.562 914.115 CURVE"
);
}
);
width = 2048;
}
);
unicode = E055;
},
{
glyphname = uniE056;
lastChange = "2016-08-25 09:27:30 +0000";
layers = (
{
layerId = "7A8B565B-8C4A-454F-8A9F-3F36545C59D3";
name = Regular;
paths = (
{
closed = 1;
nodes = (
"1994.2 960.924 OFFCURVE",
"1806.23 1102.95 OFFCURVE",
"1806.23 1102.95 CURVE SMOOTH",
"1806.23 1102.95 OFFCURVE",
"1806.29 1103.06 OFFCURVE",
"1806.39 1103.25 CURVE",
"1789.26 1116.56 OFFCURVE",
"1749.74 1142.73 OFFCURVE",
"1723.97 1149.18 CURVE",
"1723.97 1149.18 OFFCURVE",
"1772.04 1150.54 OFFCURVE",
"1817.02 1126.64 CURVE",
"1828.19 1150.38 OFFCURVE",
"1846.5 1201.31 OFFCURVE",
"1806.23 1253.34 CURVE SMOOTH",
"1756.1 1318.09 OFFCURVE",
"1632.87 1581.27 OFFCURVE",
"1190.05 1602.15 CURVE",
"1190.05 1602.15 OFFCURVE",
"1081.41 1600.06 OFFCURVE",
"1016.68 1662.72 CURVE",
"1016.68 1662.72 OFFCURVE",
"1004.14 1625.13 OFFCURVE",
"1016.68 1608.42 CURVE",
"1016.68 1608.42 OFFCURVE",
"899.695 1597.97 OFFCURVE",
"828.688 1652.27 CURVE",
"828.688 1652.27 OFFCURVE",
"851.664 1593.79 OFFCURVE",
"866.293 1587.53 CURVE",
"866.293 1587.53 OFFCURVE",
"789.01 1589.62 OFFCURVE",
"720.09 1570.82 CURVE SMOOTH",
"651.16 1552.03 OFFCURVE",
"594.76 1439.24 OFFCURVE",
"511.211 1430.88 CURVE",
"511.211 1430.88 OFFCURVE",
"525.836 1412.08 OFFCURVE",
"567.604 1414.16 CURVE",
"567.604 1414.16 OFFCURVE",
"423.478 1347.32 OFFCURVE",
"385.887 1272.13 CURVE SMOOTH",
"348.287 1196.95 OFFCURVE",
"287.711 1071.61 OFFCURVE",
"252.199 1044.47 CURVE SMOOTH",
"220.857 1020.49 OFFCURVE",
"78.8457 934.678 OFFCURVE",
"0 883.271 CURVE",
"0 -256 LINE",
"812.227 -256 LINE",
"834.41 -246.015 OFFCURVE",
"847.488 -240.097 OFFCURVE",
"847.488 -240.097 CURVE SMOOTH",
"847.488 -240.097 OFFCURVE",
"1054.27 50.2285 OFFCURVE",
"1079.34 100.358 CURVE SMOOTH",
"1104.4 150.489 OFFCURVE",
"1238.08 332.204 OFFCURVE",
"1261.05 361.445 CURVE SMOOTH",
"1275.44 379.758 OFFCURVE",
"1283.67 406.707 OFFCURVE",
"1305.93 423.839 CURVE",
"1288.09 437.808 OFFCURVE",
"1248.8 475.113 OFFCURVE",
"1248.8 475.113 CURVE",
"1272.31 461.405 OFFCURVE",
"1324.12 445.647 OFFCURVE",
"1343.05 441.22 CURVE",
"1347.9 441.054 OFFCURVE",
"1353.02 439.967 OFFCURVE",
"1358.39 437.856 CURVE",
"1381.68 433.084 OFFCURVE",
"1397.65 431.318 OFFCURVE",
"1397.65 431.318 CURVE",
"1430.42 428.658 OFFCURVE",
"1482.08 429.434 OFFCURVE",
"1538.87 449.19 CURVE SMOOTH",
"1634.94 482.604 OFFCURVE",
"1670.45 576.601 OFFCURVE",
"1670.45 576.601 CURVE SMOOTH",
"1670.45 576.601 OFFCURVE",
"1655.84 601.665 OFFCURVE",
"1597.35 616.279 CURVE SMOOTH",
"1538.87 630.906 OFFCURVE",
"1511.71 731.153 OFFCURVE",
"1511.71 731.153 CURVE SMOOTH",
"1511.71 731.153 OFFCURVE",
"1557.66 704.013 OFFCURVE",
"1568.11 672.685 CURVE SMOOTH",
"1578.56 641.345 OFFCURVE",
"1649.57 637.169 OFFCURVE",
"1649.57 637.169 CURVE SMOOTH",
"1649.57 637.169 OFFCURVE",
"1693.44 616.279 OFFCURVE",
"1689.25 576.601 CURVE SMOOTH",
"1685.07 536.911 OFFCURVE",
"1649.57 323.866 OFFCURVE",
"1649.57 323.866 CURVE SMOOTH",
"1649.57 323.866 OFFCURVE",
"1847.99 422.037 OFFCURVE",
"1921.09 691.474 CURVE SMOOTH"
);
},
{
closed = 1;
nodes = (
"1300.73 1169.66 OFFCURVE",
"1254.91 1123.84 OFFCURVE",
"1198.4 1123.84 CURVE SMOOTH",
"1141.88 1123.84 OFFCURVE",
"1096.06 1169.66 OFFCURVE",
"1096.06 1226.19 CURVE SMOOTH",
"1096.06 1282.7 OFFCURVE",
"1141.88 1328.52 OFFCURVE",
"1198.4 1328.52 CURVE SMOOTH",
"1254.91 1328.52 OFFCURVE",
"1300.73 1282.7 OFFCURVE",
"1300.73 1226.19 CURVE SMOOTH"
);
}
);
width = 2048;
}
);
unicode = E056;
},
{
glyphname = uniE057;
lastChange = "2013-12-19 16:05:28 +0000";
layers = (
{
layerId = "7A8B565B-8C4A-454F-8A9F-3F36545C59D3";
name = Regular;
paths = (
{
closed = 1;
nodes = (
"1201.66 1194.16 OFFCURVE",
"1216 1536 OFFCURVE",
"1216 1536 CURVE",
"1089.61 1337.4 OFFCURVE",
"936.863 1531.19 OFFCURVE",
"702.144 1477.03 CURVE SMOOTH",
"467.425 1422.86 OFFCURVE",
"512 1216 OFFCURVE",
"512 1216 CURVE SMOOTH",
"512 1216 OFFCURVE",
"593.819 1296.49 OFFCURVE",
"738.26 1272.39 CURVE SMOOTH"
);
},
{
closed = 1;
nodes = (
"1664 704 LINE",
"1344 448 LINE",
"1344 704 LINE",
"1024 447.953 LINE",
"1024 704 LINE",
"704 448 LINE",
"704 1088 LINE",
"448 1088 LINE",
"448 128 LINE",
"320 128 LINE",
"320 0 LINE",
"1792 0 LINE",
"1792 128 LINE",
"1664 128 LINE"
);
}
);
width = 2048;
}
);
unicode = E057;
},
{
glyphname = uniE058;
lastChange = "2013-12-19 16:05:40 +0000";
layers = (
{
layerId = "7A8B565B-8C4A-454F-8A9F-3F36545C59D3";
name = Regular;
paths = (
{
closed = 1;
nodes = (
"1609.46 1527.58 OFFCURVE",
"1485.46 1571.06 OFFCURVE",
"1452.43 1513.3 CURVE SMOOTH",
"1451.38 1511.46 OFFCURVE",
"1132.38 846.895 OFFCURVE",
"1029.69 632.956 CURVE",
"1112.38 636.521 OFFCURVE",
"1190.49 645.565 OFFCURVE",
"1255.26 659.298 CURVE SMOOTH",
"1317.45 672.484 OFFCURVE",
"1376.02 698.896 OFFCURVE",
"1376.02 698.896 CURVE SMOOTH",
"1376.02 698.896 OFFCURVE",
"1791.49 1317.52 OFFCURVE",
"1792.3 1318.94 CURVE SMOOTH",
"1825.33 1376.69 OFFCURVE",
"1724.97 1461.52 OFFCURVE",
"1667.22 1494.55 CURVE SMOOTH"
);
},
{
closed = 1;
nodes = (
"1541.96 836.456 OFFCURVE",
"1481.73 738.815 OFFCURVE",
"1436.52 680.602 CURVE SMOOTH",
"1391.3 622.39 OFFCURVE",
"1189.76 578.535 OFFCURVE",
"949.802 578.535 CURVE SMOOTH",
"675.357 578.535 OFFCURVE",
"452.875 635.841 OFFCURVE",
"452.875 706.531 CURVE SMOOTH",
"452.875 722 OFFCURVE",
"463.53 736.828 OFFCURVE",
"483.05 750.556 CURVE",
"483.037 750.94 OFFCURVE",
"482.992 751.321 OFFCURVE",
"482.992 751.707 CURVE SMOOTH",
"482.992 753.308 OFFCURVE",
"485.806 754.65 OFFCURVE",
"490.997 755.767 CURVE",
"565.891 802.017 OFFCURVE",
"743.098 834.528 OFFCURVE",
"949.802 834.528 CURVE SMOOTH",
"986.783 834.528 OFFCURVE",
"1022.81 833.481 OFFCURVE",
"1057.49 831.507 CURVE",
"1112.53 948.143 LINE",
"705.982 982.896 OFFCURVE",
"227 885.383 OFFCURVE",
"227 655.601 CURVE SMOOTH",
"227 256.408 OFFCURVE",
"550.609 -67 OFFCURVE",
"949.802 -67 CURVE SMOOTH",
"1348.99 -67 OFFCURVE",
"1672.6 256.408 OFFCURVE",
"1672.6 655.601 CURVE SMOOTH",
"1672.6 729.607 OFFCURVE",
"1622.91 789.889 OFFCURVE",
"1541.96 836.456 CURVE"
);
}
);
width = 2048;
}
);
unicode = E058;
},
{
glyphname = uniE059;
lastChange = "2013-12-19 16:06:07 +0000";
layers = (
{
layerId = "7A8B565B-8C4A-454F-8A9F-3F36545C59D3";
name = Regular;
paths = (
{
closed = 1;
nodes = (
"569 1408 LINE",
"377 1216 LINE",
"377 832 LINE",
"1209 0 LINE",
"1792 557.164 LINE",
"953 1408 LINE"
);
},
{
closed = 1;
nodes = (
"626.308 960 OFFCURVE",
"569 1017.31 OFFCURVE",
"569 1088 CURVE SMOOTH",
"569 1158.69 OFFCURVE",
"626.308 1216 OFFCURVE",
"697 1216 CURVE SMOOTH",
"767.692 1216 OFFCURVE",
"825 1158.69 OFFCURVE",
"825 1088 CURVE SMOOTH",
"825 1017.31 OFFCURVE",
"767.692 960 OFFCURVE",
"697 960 CURVE SMOOTH"
);
}
);
width = 2048;
}
);
unicode = E059;
},
{
glyphname = uniE060;
lastChange = "2013-12-19 16:06:46 +0000";
layers = (
{
layerId = "7A8B565B-8C4A-454F-8A9F-3F36545C59D3";
name = Regular;
paths = (
{
closed = 1;
nodes = (
"1024 1344 LINE",
"1024.89 896.955 LINE",
"384 1344 LINE",
"384 192.002 LINE",
"1024 640.002 LINE",
"1024 192.002 LINE",
"1792 768.002 LINE"
);
}
);
width = 2048;
}
);
unicode = E060;
},
{
glyphname = uniE061;
lastChange = "2013-12-19 16:07:18 +0000";
layers = (
{
layerId = "7A8B565B-8C4A-454F-8A9F-3F36545C59D3";
name = Regular;
paths = (
{
closed = 1;
nodes = (
"1024 192 LINE",
"1023.11 639.047 LINE",
"1664 192 LINE",
"1664 1344 LINE",
"1024 896 LINE",
"1024 1344 LINE",
"256 768 LINE"
);
}
);
width = 2048;
}
);
unicode = E061;
},
{
glyphname = uniE062;
lastChange = "2013-12-19 16:07:44 +0000";
layers = (
{
layerId = "7A8B565B-8C4A-454F-8A9F-3F36545C59D3";
name = Regular;
paths = (
{
closed = 1;
nodes = (
"576 1024 LINE",
"576 512 LINE",
"896 512 LINE",
"1472 0 LINE",
"1472 1600 LINE",
"896 1024 LINE"
);
}
);
width = 2048;
}
);
unicode = E062;
},
{
glyphname = uniE063;
lastChange = "2013-12-19 16:08:13 +0000";
layers = (
{
layerId = "7A8B565B-8C4A-454F-8A9F-3F36545C59D3";
name = Regular;
paths = (
{
closed = 1;
nodes = (
"512 1280 LINE",
"512 256 LINE",
"1536 256 LINE",
"1536 1280 LINE"
);
}
);
width = 2048;
}
);
unicode = E063;
},
{
glyphname = uniE064;
lastChange = "2013-12-19 16:08:44 +0000";
layers = (
{
layerId = "7A8B565B-8C4A-454F-8A9F-3F36545C59D3";
name = Regular;
paths = (
{
closed = 1;
nodes = (
"512 1280 LINE",
"512 256 LINE",
"896 256 LINE",
"896 1280 LINE"
);
},
{
closed = 1;
nodes = (
"1152 256 LINE",
"1536 256 LINE",
"1536 1280 LINE",
"1152 1280 LINE"
);
}
);
width = 2048;
}
);
unicode = E064;
},
{
glyphname = uniE065;
lastChange = "2014-01-29 10:28:21 +0000";
layers = (
{
layerId = "7A8B565B-8C4A-454F-8A9F-3F36545C59D3";
name = Regular;
paths = (
{
closed = 1;
nodes = (
"966.467 891.486 LINE",
"768 1095 LINE",
"960 1280 LINE",
"512.836 1280 LINE",
"512 832 LINE",
"704 1031 LINE",
"902.466 827.485 LINE"
);
},
{
closed = 1;
nodes = (
"901.302 709.678 LINE",
"704 512 LINE",
"512 704 LINE",
"512 256.836 LINE",
"960 256 LINE",
"768 448 LINE",
"965.302 645.679 LINE"
);
},
{
closed = 1;
nodes = (
"1280 1088 LINE",
"1082.38 890.644 LINE",
"1146.38 826.644 LINE",
"1344 1024 LINE",
"1536 832 LINE",
"1536 1280 LINE",
"1088 1280 LINE"
);
},
{
closed = 1;
nodes = (
"1146.62 709.601 LINE",
"1082.62 645.601 LINE",
"1183.58 544.418 LINE",
"1280 448 LINE",
"1088 256 LINE",
"1536 256 LINE",
"1536 704 LINE",
"1344 512 LINE",
"1247.58 608.418 LINE"
);
}
);
width = 2048;
}
);
unicode = E065;
},
{
glyphname = uniE066;
lastChange = "2013-12-19 16:09:53 +0000";
layers = (
{
layerId = "7A8B565B-8C4A-454F-8A9F-3F36545C59D3";
name = Regular;
paths = (
{
closed = 1;
nodes = (
"896 1280 LINE",
"512 1280 LINE",
"512 896 LINE",
"896 896 LINE"
);
},
{
closed = 1;
nodes = (
"512 256 LINE",
"896 256 LINE",
"896 640 LINE",
"512 640 LINE"
);
},
{
closed = 1;
nodes = (
"1536 1280 LINE",
"1152 1280 LINE",
"1152 896 LINE",
"1536 896 LINE"
);
},
{
closed = 1;
nodes = (
"1152 256 LINE",
"1536 256 LINE",
"1536 640 LINE",
"1152 640 LINE"
);
}
);
width = 2048;
}
);
unicode = E066;
},
{
glyphname = uniE067;
lastChange = "2013-12-19 16:10:22 +0000";
layers = (
{
layerId = "7A8B565B-8C4A-454F-8A9F-3F36545C59D3";
name = Regular;
paths = (
{
closed = 1;
nodes = (
"512 1024 LINE",
"512 1280 LINE",
"1536 1280 LINE",
"1536 1024 LINE"
);
},
{
closed = 1;
nodes = (
"512 640 LINE",
"512 896 LINE",
"1536 896 LINE",
"1536 640 LINE"
);
},
{
closed = 1;
nodes = (
"512 256 LINE",
"512 512 LINE",
"1536 512 LINE",
"1536 256 LINE"
);
}
);
width = 2048;
}
);
unicode = E067;
},
{
glyphname = uniE068;
lastChange = "2013-12-19 16:10:59 +0000";
layers = (
{
layerId = "7A8B565B-8C4A-454F-8A9F-3F36545C59D3";
name = Regular;
paths = (
{
closed = 1;
nodes = (
"847.271 448 OFFCURVE",
"704.002 591.269 OFFCURVE",
"704.002 768 CURVE SMOOTH",
"704.002 944.731 OFFCURVE",
"847.271 1088 OFFCURVE",
"1024 1088 CURVE",
"1024 896 LINE",
"1472.48 1182 LINE",
"1024 1472 LINE",
"1024 1280 LINE",
"741.231 1280 OFFCURVE",
"512.002 1050.77 OFFCURVE",
"512.002 768 CURVE SMOOTH",
"512.002 485.23 OFFCURVE",
"741.231 256 OFFCURVE",
"1024 256 CURVE SMOOTH",
"1306.77 256 OFFCURVE",
"1536 485.23 OFFCURVE",
"1536 768 CURVE",
"1344 768 LINE",
"1344 591.269 OFFCURVE",
"1200.73 448 OFFCURVE",
"1024 448 CURVE SMOOTH"
);
}
);
width = 2048;
}
);
unicode = E068;
},
{
glyphname = uniE069;
lastChange = "2014-01-29 10:52:26 +0000";
layers = (
{
layerId = "7A8B565B-8C4A-454F-8A9F-3F36545C59D3";
name = Regular;
paths = (
{
closed = 1;
nodes = (
"855.294 270.032 LINE",
"945.803 360.542 LINE",
"602.509 703.835 LINE",
"1664 703.835 LINE",
"1664 831.835 LINE",
"602.509 831.835 LINE",
"945.803 1175.13 LINE",
"855.294 1265.64 LINE",
"357.491 767.835 LINE"
);
}
);
width = 2048;
}
);
unicode = E069;
},
{
glyphname = uniE070;
lastChange = "2014-01-29 10:51:52 +0000";
layers = (
{
layerId = "7A8B565B-8C4A-454F-8A9F-3F36545C59D3";
name = Regular;
paths = (
{
closed = 1;
nodes = (
"1230.2 1265.64 LINE",
"1139.69 1175.13 LINE",
"1482.98 831.835 LINE",
"421.491 831.835 LINE",
"421.491 703.835 LINE",
"1482.98 703.835 LINE",
"1139.69 360.541 LINE",
"1230.2 270.032 LINE",
"1728 767.835 LINE"
);
}
);
width = 2048;
}
);
unicode = E070;
},
{
glyphname = uniE071;
lastChange = "2014-02-05 09:48:13 +0000";
layers = (
{
layerId = "7A8B565B-8C4A-454F-8A9F-3F36545C59D3";
name = Regular;
paths = (
{
closed = 1;
nodes = (
"1521.8 599.293 LINE",
"1431.29 689.803 LINE",
"1088 346.508 LINE",
"1088 1408 LINE",
"960 1408 LINE",
"960 346.508 LINE",
"616.706 689.803 LINE",
"526.197 599.293 LINE",
"1024 101.49 LINE"
);
}
);
width = 2048;
}
);
unicode = E071;
},
{
glyphname = uniE072;
lastChange = "2014-02-05 09:48:50 +0000";
layers = (
{
layerId = "7A8B565B-8C4A-454F-8A9F-3F36545C59D3";
name = Regular;
paths = (
{
closed = 1;
nodes = (
"526.197 936.643 LINE",
"616.707 846.133 LINE",
"960 1189.43 LINE",
"960 127.936 LINE",
"1088 127.936 LINE",
"1088 1189.43 LINE",
"1431.29 846.133 LINE",
"1521.8 936.643 LINE",
"1024 1434.45 LINE"
);
}
);
width = 2048;
}
);
unicode = E072;
},
{
glyphname = uniE073;
lastChange = "2014-06-11 11:21:52 +0000";
layers = (
{
layerId = "7A8B565B-8C4A-454F-8A9F-3F36545C59D3";
name = Regular;
paths = (
{
closed = 1;
nodes = (
"1024 1196.82 OFFCURVE",
"641.795 1343.7 OFFCURVE",
"320.111 1343.7 CURVE",
"320.111 255.895 LINE",
"448.003 127.801 LINE",
"684.833 127.801 OFFCURVE",
"1024 64.623 OFFCURVE",
"1024 64.623 CURVE SMOOTH",
"1024 64.625 OFFCURVE",
"1363.4 127.8 OFFCURVE",
"1600.23 127.8 CURVE",
"1727.96 255.949 LINE",
"1727.96 1343.7 LINE",
"1406.28 1343.7 OFFCURVE",
"1024 1196.82 OFFCURVE",
"1024 1196.82 CURVE SMOOTH"
);
},
{
closed = 1;
nodes = (
"837.928 256.538 OFFCURVE",
"644.379 302.142 OFFCURVE",
"448 320.086 CURVE",
"448 1215.92 LINE",
"576 1216 OFFCURVE",
"896 1120 OFFCURVE",
"1023.89 1086.72 CURVE",
"1209.81 1155.85 OFFCURVE",
"1402.16 1194.42 OFFCURVE",
"1600.04 1215.95 CURVE",
"1600.08 319.944 LINE",
"1403.71 302.025 OFFCURVE",
"1210.2 256.442 OFFCURVE",
"1024.04 192.836 CURVE"
);
},
{
closed = 1;
nodes = (
"575.941 768.336 LINE",
"575.941 744.275 LINE",
"575.941 688.06 LINE",
"667.06 681.245 OFFCURVE",
"772.903 660.773 OFFCURVE",
"886.265 627.825 CURVE SMOOTH",
"912.951 620.069 OFFCURVE",
"937.756 612.286 OFFCURVE",
"960 604.958 CURVE",
"960 661.175 LINE",
"960 689.04 LINE",
"960 881.039 LINE",
"944.149 886.055 OFFCURVE",
"927.307 891.198 OFFCURVE",
"909.6 896.354 CURVE SMOOTH",
"786.39 932.226 OFFCURVE",
"674.5 953.661 OFFCURVE",
"575.941 960.336 CURVE"
);
},
{
closed = 1;
nodes = (
"575.941 496.083 LINE",
"667.06 489.269 OFFCURVE",
"772.903 468.796 OFFCURVE",
"886.265 435.849 CURVE SMOOTH",
"912.951 428.093 OFFCURVE",
"937.756 420.31 OFFCURVE",
"960 412.981 CURVE",
"960 497.061 LINE",
"944.149 502.077 OFFCURVE",
"927.307 507.22 OFFCURVE",
"909.6 512.376 CURVE SMOOTH",
"786.39 548.249 OFFCURVE",
"674.5 569.685 OFFCURVE",
"575.941 576.358 CURVE"
);
},
{
closed = 1;
nodes = (
"1088 796.777 LINE",
"1110.19 804.083 OFFCURVE",
"1134.91 811.84 OFFCURVE",
"1161.51 819.569 CURVE SMOOTH",
"1274.87 852.516 OFFCURVE",
"1380.71 872.988 OFFCURVE",
"1471.83 879.802 CURVE",
"1471.83 960.08 LINE",
"1373.27 953.405 OFFCURVE",
"1261.38 931.969 OFFCURVE",
"1138.17 896.097 CURVE SMOOTH",
"1120.55 890.966 OFFCURVE",
"1103.78 885.847 OFFCURVE",
"1088 880.854 CURVE"
);
},
{
closed = 1;
nodes = (
"1088 604.776 LINE",
"1110.19 612.083 OFFCURVE",
"1134.91 619.839 OFFCURVE",
"1161.51 627.569 CURVE SMOOTH",
"1274.87 660.517 OFFCURVE",
"1380.71 680.989 OFFCURVE",
"1471.83 687.802 CURVE",
"1471.83 768.08 LINE",
"1373.27 761.404 OFFCURVE",
"1261.38 739.969 OFFCURVE",
"1138.17 704.097 CURVE SMOOTH",
"1120.55 698.966 OFFCURVE",
"1103.78 693.847 OFFCURVE",
"1088 688.854 CURVE"
);
},
{
closed = 1;
nodes = (
"1088 412.8 LINE",
"1110.19 420.106 OFFCURVE",
"1134.91 427.862 OFFCURVE",
"1161.51 435.591 CURVE SMOOTH",
"1274.87 468.538 OFFCURVE",
"1380.71 489.011 OFFCURVE",
"1471.83 495.825 CURVE",
"1471.83 576.102 LINE",
"1373.27 569.427 OFFCURVE",
"1261.38 547.993 OFFCURVE",
"1138.17 512.12 CURVE SMOOTH",
"1120.55 506.989 OFFCURVE",
"1103.78 501.87 OFFCURVE",
"1088 496.878 CURVE"
);
}
);
width = 2048;
}
);
unicode = E073;
},
{
glyphname = uniE074;
lastChange = "2014-08-20 11:33:59 +0000";
layers = (
{
layerId = "7A8B565B-8C4A-454F-8A9F-3F36545C59D3";
name = Regular;
paths = (
{
closed = 1;
nodes = (
"1792 959.835 LINE",
"1565.8 959.835 LINE",
"1559.07 978.731 OFFCURVE",
"1551.38 997.172 OFFCURVE",
"1542.79 1015.1 CURVE",
"1702.82 1175.13 LINE",
"1431.29 1446.66 LINE",
"1270.91 1286.28 LINE",
"1253.09 1294.76 OFFCURVE",
"1234.77 1302.36 OFFCURVE",
"1216 1309.01 CURVE",
"1216 1535.83 LINE",
"832 1535.83 LINE",
"832 1309.01 LINE",
"812.99 1302.28 OFFCURVE",
"794.44 1294.57 OFFCURVE",
"776.409 1285.95 CURVE",
"617.706 1444.66 LINE",
"346.177 1173.13 LINE",
"504.886 1014.42 LINE",
"496.423 996.706 OFFCURVE",
"488.842 978.493 OFFCURVE",
"482.195 959.835 CURVE",
"256 959.835 LINE",
"256 575.835 LINE",
"481.49 575.835 LINE",
"488.221 556.719 OFFCURVE",
"495.941 538.07 OFFCURVE",
"504.575 519.94 CURVE",
"345.177 360.542 LINE",
"616.706 89.0127 LINE",
"775.753 248.06 LINE",
"793.991 239.317 OFFCURVE",
"812.76 231.508 OFFCURVE",
"832 224.693 CURVE",
"832 0 LINE",
"1216 0 LINE",
"1216 224.693 LINE",
"1235 231.423 OFFCURVE",
"1253.54 239.126 OFFCURVE",
"1271.57 247.737 CURVE",
"1432.29 87.0117 LINE",
"1703.82 358.541 LINE",
"1543.1 519.261 LINE",
"1551.87 537.604 OFFCURVE",
"1559.7 556.481 OFFCURVE",
"1566.51 575.835 CURVE",
"1792 575.835 LINE"
);
},
{
closed = 1;
nodes = (
"880.406 507.835 OFFCURVE",
"764 624.241 OFFCURVE",
"764 767.835 CURVE SMOOTH",
"764 911.429 OFFCURVE",
"880.406 1027.83 OFFCURVE",
"1024 1027.83 CURVE SMOOTH",
"1167.59 1027.83 OFFCURVE",
"1284 911.429 OFFCURVE",
"1284 767.835 CURVE SMOOTH",
"1284 624.241 OFFCURVE",
"1167.59 507.835 OFFCURVE",
"1024 507.835 CURVE SMOOTH"
);
}
);
width = 2048;
}
);
unicode = E074;
},
{
glyphname = uniE075;
lastChange = "2014-08-20 11:34:28 +0000";
layers = (
{
layerId = "7A8B565B-8C4A-454F-8A9F-3F36545C59D3";
name = Regular;
paths = (
{
closed = 1;
nodes = (
"599.847 1535.83 OFFCURVE",
"256 1191.99 OFFCURVE",
"256 767.835 CURVE SMOOTH",
"256 343.681 OFFCURVE",
"599.847 0 OFFCURVE",
"1024 0 CURVE SMOOTH",
"1448.16 0 OFFCURVE",
"1792 343.681 OFFCURVE",
"1792 767.835 CURVE SMOOTH",
"1792 1191.99 OFFCURVE",
"1448.16 1535.83 OFFCURVE",
"1024 1535.83 CURVE SMOOTH"
);
},
{
closed = 1;
nodes = (
"635.193 63.835 OFFCURVE",
"320 379.027 OFFCURVE",
"320 767.835 CURVE SMOOTH",
"320 1156.64 OFFCURVE",
"635.193 1471.83 OFFCURVE",
"1024 1471.83 CURVE SMOOTH",
"1412.81 1471.83 OFFCURVE",
"1728 1156.64 OFFCURVE",
"1728 767.835 CURVE SMOOTH",
"1728 379.027 OFFCURVE",
"1412.81 63.835 OFFCURVE",
"1024 63.835 CURVE SMOOTH"
);
},
{
closed = 1;
nodes = (
"893.981 1096.74 OFFCURVE",
"851 1154.05 OFFCURVE",
"797.981 1154.05 CURVE SMOOTH",
"744.961 1154.05 OFFCURVE",
"701.981 1096.74 OFFCURVE",
"701.981 1026.05 CURVE SMOOTH",
"701.981 955.356 OFFCURVE",
"744.961 898.048 OFFCURVE",
"797.981 898.048 CURVE SMOOTH",
"851 898.048 OFFCURVE",
"893.981 955.356 OFFCURVE",
"893.981 1026.05 CURVE SMOOTH"
);
},
{
closed = 1;
nodes = (
"1343.98 1096.74 OFFCURVE",
"1301 1154.05 OFFCURVE",
"1247.98 1154.05 CURVE SMOOTH",
"1194.96 1154.05 OFFCURVE",
"1151.98 1096.74 OFFCURVE",
"1151.98 1026.05 CURVE SMOOTH",
"1151.98 955.356 OFFCURVE",
"1194.96 898.048 OFFCURVE",
"1247.98 898.048 CURVE SMOOTH",
"1301 898.048 OFFCURVE",
"1343.98 955.356 OFFCURVE",
"1343.98 1026.05 CURVE SMOOTH"
);
},
{
closed = 1;
nodes = (
"784.435 1039.23 OFFCURVE",
"785.669 1040.44 OFFCURVE",
"784.361 1040.44 CURVE SMOOTH",
"783.565 1040.44 OFFCURVE",
"782.331 1039.23 OFFCURVE",
"783.639 1039.23 CURVE SMOOTH"
);
},
{
closed = 1;
nodes = (
"1458.76 421.057 OFFCURVE",
"1260.21 259.835 OFFCURVE",
"1024 259.835 CURVE SMOOTH",
"787.787 259.835 OFFCURVE",
"589.236 421.057 OFFCURVE",
"532.366 639.464 CURVE",
"464.416 639.464 LINE",
"522.721 384.255 OFFCURVE",
"751.12 193.835 OFFCURVE",
"1024 193.835 CURVE SMOOTH",
"1296.88 193.835 OFFCURVE",
"1525.28 384.255 OFFCURVE",
"1583.58 639.464 CURVE",
"1515.63 639.464 LINE"
);
}
);
width = 2048;
}
);
unicode = E075;
},
{
glyphname = uniE076;
lastChange = "2014-08-20 11:34:49 +0000";
layers = (
{
layerId = "7A8B565B-8C4A-454F-8A9F-3F36545C59D3";
name = Regular;
paths = (
{
closed = 1;
nodes = (
"599.847 1535.83 OFFCURVE",
"256 1191.99 OFFCURVE",
"256 767.835 CURVE SMOOTH",
"256 343.681 OFFCURVE",
"599.847 0 OFFCURVE",
"1024 0 CURVE SMOOTH",
"1448.16 0 OFFCURVE",
"1792 343.681 OFFCURVE",
"1792 767.835 CURVE SMOOTH",
"1792 1191.99 OFFCURVE",
"1448.16 1535.83 OFFCURVE",
"1024 1535.83 CURVE SMOOTH"
);
},
{
closed = 1;
nodes = (
"635.193 63.835 OFFCURVE",
"320 379.027 OFFCURVE",
"320 767.835 CURVE SMOOTH",
"320 1156.64 OFFCURVE",
"635.193 1471.83 OFFCURVE",
"1024 1471.83 CURVE SMOOTH",
"1412.81 1471.83 OFFCURVE",
"1728 1156.64 OFFCURVE",
"1728 767.835 CURVE SMOOTH",
"1728 379.027 OFFCURVE",
"1412.81 63.835 OFFCURVE",
"1024 63.835 CURVE SMOOTH"
);
},
{
closed = 1;
nodes = (
"893.981 1096.74 OFFCURVE",
"851 1154.05 OFFCURVE",
"797.981 1154.05 CURVE SMOOTH",
"744.961 1154.05 OFFCURVE",
"701.981 1096.74 OFFCURVE",
"701.981 1026.05 CURVE SMOOTH",
"701.981 955.356 OFFCURVE",
"744.961 898.048 OFFCURVE",
"797.981 898.048 CURVE SMOOTH",
"851 898.048 OFFCURVE",
"893.981 955.356 OFFCURVE",
"893.981 1026.05 CURVE SMOOTH"
);
},
{
closed = 1;
nodes = (
"1343.98 1096.74 OFFCURVE",
"1301 1154.05 OFFCURVE",
"1247.98 1154.05 CURVE SMOOTH",
"1194.96 1154.05 OFFCURVE",
"1151.98 1096.74 OFFCURVE",
"1151.98 1026.05 CURVE SMOOTH",
"1151.98 955.356 OFFCURVE",
"1194.96 898.048 OFFCURVE",
"1247.98 898.048 CURVE SMOOTH",
"1301 898.048 OFFCURVE",
"1343.98 955.356 OFFCURVE",
"1343.98 1026.05 CURVE SMOOTH"
);
},
{
closed = 1;
nodes = (
"784.435 1039.23 OFFCURVE",
"785.669 1040.44 OFFCURVE",
"784.361 1040.44 CURVE SMOOTH",
"783.565 1040.44 OFFCURVE",
"782.331 1039.23 OFFCURVE",
"783.639 1039.23 CURVE SMOOTH"
);
},
{
closed = 1;
nodes = (
"776.733 463.289 OFFCURVE",
"894.721 511.591 OFFCURVE",
"1024 511.591 CURVE SMOOTH",
"1153.28 511.591 OFFCURVE",
"1271.27 463.289 OFFCURVE",
"1360.93 383.761 CURVE",
"1454.05 383.761 LINE",
"1348.88 502.638 OFFCURVE",
"1195.2 577.591 OFFCURVE",
"1024 577.591 CURVE SMOOTH",
"852.802 577.591 OFFCURVE",
"699.118 502.638 OFFCURVE",
"593.954 383.761 CURVE",
"687.069 383.761 LINE"
);
}
);
width = 2048;
}
);
unicode = E076;
},
{
glyphname = uniE077;
lastChange = "2014-08-20 16:25:21 +0000";
layers = (
{
layerId = "7A8B565B-8C4A-454F-8A9F-3F36545C59D3";
name = Regular;
paths = (
{
closed = 1;
nodes = (
"805.981 1582.84 LINE SMOOTH",
"792.076 1588.31 OFFCURVE",
"663.864 1635.27 OFFCURVE",
"563.049 1542.15 CURVE SMOOTH",
"529.386 1511.07 OFFCURVE",
"510.345 1464.78 OFFCURVE",
"512.113 1418.29 CURVE",
"512 243.02 LINE SMOOTH",
"512 224.189 OFFCURVE",
"523.535 207.26 OFFCURVE",
"541.09 200.369 CURVE",
"1343.31 -64 LINE",
"1343.31 24.1992 LINE",
"1451.44 127.043 LINE",
"1600 127.043 LINE",
"1600 1254.16 LINE"
);
},
{
closed = 1;
nodes = (
"1313.51 1111.33 OFFCURVE",
"620.875 1394.41 OFFCURVE",
"620.875 1394.41 CURVE",
"611.744 1398.3 OFFCURVE",
"604.162 1412.15 OFFCURVE",
"603.805 1421.78 CURVE SMOOTH",
"603.051 1441.57 OFFCURVE",
"611.292 1461.89 OFFCURVE",
"625.31 1474.85 CURVE SMOOTH",
"686.162 1531.05 OFFCURVE",
"768.669 1499.05 OFFCURVE",
"771.869 1497.76 CURVE SMOOTH",
"772.396 1497.54 OFFCURVE",
"772.903 1497.33 OFFCURVE",
"773.43 1497.14 CURVE",
"1453.45 1216.71 LINE",
"1314.7 1110.72 LINE"
);
},
{
closed = 1;
nodes = (
"1343.31 1087.73 LINE",
"1469.26 1187.88 LINE",
"1471.43 205.303 LINE",
"1343.31 83.4414 LINE"
);
}
);
width = 2048;
}
);
unicode = E077;
},
{
glyphname = uniE078;
lastChange = "2014-10-23 11:31:49 +0000";
layers = (
{
layerId = "7A8B565B-8C4A-454F-8A9F-3F36545C59D3";
name = Regular;
paths = (
{
closed = 1;
nodes = (
"1280 1407.99 LINE",
"768.016 1407.99 LINE",
"640.016 1216.02 LINE",
"576 1216.02 LINE",
"576 1280 LINE",
"384.019 1280 LINE",
"384.019 1216.02 LINE",
"256.02 1216.02 LINE",
"256.02 191.992 LINE",
"1792.02 191.992 LINE",
"1792.02 1215.99 LINE",
"1408.03 1215.99 LINE"
);
},
{
closed = 1;
nodes = (
"816.95 360.591 OFFCURVE",
"649.046 528.495 OFFCURVE",
"649.046 735.615 CURVE SMOOTH",
"649.046 942.736 OFFCURVE",
"816.95 1110.64 OFFCURVE",
"1024.07 1110.64 CURVE SMOOTH",
"1231.19 1110.64 OFFCURVE",
"1399.1 942.736 OFFCURVE",
"1399.1 735.615 CURVE SMOOTH",
"1399.1 528.495 OFFCURVE",
"1231.19 360.591 OFFCURVE",
"1024.07 360.591 CURVE SMOOTH"
);
},
{
closed = 1;
nodes = (
"1501.65 320.836 OFFCURVE",
"1473 349.489 OFFCURVE",
"1473 384.836 CURVE SMOOTH",
"1473 420.183 OFFCURVE",
"1501.65 448.836 OFFCURVE",
"1537 448.836 CURVE SMOOTH",
"1572.35 448.836 OFFCURVE",
"1601 420.183 OFFCURVE",
"1601 384.836 CURVE SMOOTH",
"1601 349.489 OFFCURVE",
"1572.35 320.836 OFFCURVE",
"1537 320.836 CURVE SMOOTH"
);
},
{
closed = 1;
nodes = (
"899.8 960.63 OFFCURVE",
"799.056 859.889 OFFCURVE",
"799.056 735.615 CURVE SMOOTH",
"799.056 611.341 OFFCURVE",
"899.8 510.601 OFFCURVE",
"1024.07 510.601 CURVE SMOOTH",
"1148.34 510.601 OFFCURVE",
"1249.09 611.341 OFFCURVE",
"1249.09 735.615 CURVE SMOOTH",
"1249.09 859.889 OFFCURVE",
"1148.34 960.63 OFFCURVE",
"1024.07 960.63 CURVE SMOOTH"
);
}
);
width = 2048;
}
);
unicode = E078;
},
{
glyphname = uniE079;
lastChange = "2014-11-10 13:17:17 +0000";
layers = (
{
layerId = "7A8B565B-8C4A-454F-8A9F-3F36545C59D3";
name = Regular;
paths = (
{
closed = 1;
nodes = (
"1536 1050.77 OFFCURVE",
"1306.77 1280 OFFCURVE",
"1024 1280 CURVE SMOOTH",
"741.231 1280 OFFCURVE",
"512 1050.77 OFFCURVE",
"512 768 CURVE SMOOTH",
"512 485.23 OFFCURVE",
"741.231 256 OFFCURVE",
"1024 256 CURVE SMOOTH",
"1306.77 256 OFFCURVE",
"1536 485.23 OFFCURVE",
"1536 768 CURVE SMOOTH"
);
}
);
width = 2048;
}
);
unicode = E079;
},
{
glyphname = uniE080;
lastChange = "2014-12-16 18:11:38 +0000";
layers = (
{
layerId = "7A8B565B-8C4A-454F-8A9F-3F36545C59D3";
name = Regular;
paths = (
{
closed = 1;
nodes = (
"960.701 1216.22 LINE",
"960.701 971.078 LINE",
"960.701 971.078 OFFCURVE",
"1664.1 917.467 OFFCURVE",
"1664.1 401.01 CURVE",
"1664.1 401.01 OFFCURVE",
"1570.67 612.975 OFFCURVE",
"1232.83 653.146 CURVE SMOOTH",
"1177.56 659.725 OFFCURVE",
"1093.59 666.17 OFFCURVE",
"960.498 666.17 CURVE",
"960.498 447.762 LINE",
"383.145 831.767 LINE"
);
}
);
width = 2048;
}
);
unicode = E080;
},
{
glyphname = uniE081;
lastChange = "2015-01-05 15:48:09 +0000";
layers = (
{
layerId = "7A8B565B-8C4A-454F-8A9F-3F36545C59D3";
name = Regular;
paths = (
{
closed = 1;
nodes = (
"448 1344 LINE",
"384 1344 LINE SMOOTH",
"313.307 1344 OFFCURVE",
"255.75 1287.19 OFFCURVE",
"255.75 1216.5 CURVE SMOOTH",
"255.75 1145.81 OFFCURVE",
"312.807 1089 OFFCURVE",
"383.5 1089 CURVE SMOOTH",
"448 1089 LINE",
"448 959 LINE",
"384 959 LINE SMOOTH",
"313.307 959 OFFCURVE",
"255.75 902.193 OFFCURVE",
"255.75 831.499 CURVE SMOOTH",
"255.75 760.807 OFFCURVE",
"312.807 704 OFFCURVE",
"383.5 704 CURVE SMOOTH",
"448 704 LINE",
"448 576 LINE",
"384 576 LINE SMOOTH",
"313.307 576 OFFCURVE",
"255.75 519.193 OFFCURVE",
"255.75 448.498 CURVE SMOOTH",
"255.75 377.807 OFFCURVE",
"312.807 321 OFFCURVE",
"383.5 321 CURVE SMOOTH",
"448 321 LINE",
"448 128 LINE",
"1600 128 LINE",
"1600 1537 LINE",
"448 1537 LINE"
);
},
{
closed = 1;
nodes = (
"383.5 385 LINE SMOOTH",
"366.356 385 OFFCURVE",
"350.307 391.485 OFFCURVE",
"338.309 403.452 CURVE SMOOTH",
"326.341 415.388 OFFCURVE",
"319.75 431.4 OFFCURVE",
"319.75 448.445 CURVE SMOOTH",
"319.75 483.461 OFFCURVE",
"348.572 512 OFFCURVE",
"384 512 CURVE SMOOTH",
"576.25 512 LINE SMOOTH",
"593.394 512 OFFCURVE",
"609.443 505.306 OFFCURVE",
"621.441 493.339 CURVE SMOOTH",
"633.409 481.403 OFFCURVE",
"640 465.494 OFFCURVE",
"640 448.447 CURVE SMOOTH",
"640 413.434 OFFCURVE",
"611.178 385 OFFCURVE",
"575.75 385 CURVE SMOOTH"
);
},
{
closed = 1;
nodes = (
"383.5 768 LINE SMOOTH",
"366.356 768 OFFCURVE",
"350.307 774.485 OFFCURVE",
"338.309 786.452 CURVE SMOOTH",
"326.341 798.388 OFFCURVE",
"319.75 814.401 OFFCURVE",
"319.75 831.447 CURVE SMOOTH",
"319.75 866.461 OFFCURVE",
"348.572 895 OFFCURVE",
"384 895 CURVE SMOOTH",
"576.25 895 LINE SMOOTH",
"593.394 895 OFFCURVE",
"609.443 888.305 OFFCURVE",
"621.441 876.339 CURVE SMOOTH",
"633.409 864.403 OFFCURVE",
"640 848.495 OFFCURVE",
"640 831.449 CURVE SMOOTH",
"640 796.434 OFFCURVE",
"611.178 768 OFFCURVE",
"575.75 768 CURVE SMOOTH"
);
},
{
closed = 1;
nodes = (
"383.5 1153 LINE SMOOTH",
"366.356 1153 OFFCURVE",
"350.307 1159.49 OFFCURVE",
"338.309 1171.45 CURVE SMOOTH",
"326.341 1183.39 OFFCURVE",
"319.75 1199.4 OFFCURVE",
"319.75 1216.45 CURVE SMOOTH",
"319.75 1251.46 OFFCURVE",
"348.572 1280 OFFCURVE",
"384 1280 CURVE SMOOTH",
"576.25 1280 LINE SMOOTH",
"593.394 1280 OFFCURVE",
"609.443 1273.3 OFFCURVE",
"621.441 1261.34 CURVE SMOOTH",
"633.409 1249.4 OFFCURVE",
"640 1233.5 OFFCURVE",
"640 1216.45 CURVE SMOOTH",
"640 1181.43 OFFCURVE",
"611.178 1153 OFFCURVE",
"575.75 1153 CURVE SMOOTH"
);
},
{
closed = 1;
nodes = (
"833 959 LINE",
"833 1280 LINE",
"1345 1280 LINE",
"1345 959 LINE"
);
}
);
width = 2048;
}
);
unicode = E081;
},
{
glyphname = uniE082;
lastChange = "2015-03-06 15:49:08 +0000";
layers = (
{
layerId = "7A8B565B-8C4A-454F-8A9F-3F36545C59D3";
name = Regular;
paths = (
{
closed = 1;
nodes = (
"1671.03 1134.17 LINE",
"1247.3 1134.17 LINE SMOOTH",
"1217.87 1134.17 OFFCURVE",
"1192.7 1128.38 OFFCURVE",
"1173.5 1117.77 CURVE SMOOTH",
"1154.36 1107.15 OFFCURVE",
"1141.21 1091.67 OFFCURVE",
"1135.71 1072.36 CURVE SMOOTH",
"1130.47 1053.77 OFFCURVE",
"1133.22 1035.51 OFFCURVE",
"1142.45 1020.55 CURVE SMOOTH",
"1151.74 1005.54 OFFCURVE",
"1167.39 993.743 OFFCURVE",
"1187.78 987.896 CURVE SMOOTH",
"1200.14 984.318 OFFCURVE",
"1224.28 977.468 OFFCURVE",
"1245.13 971.458 CURVE SMOOTH",
"1266.11 965.44 OFFCURVE",
"1283.97 960.235 OFFCURVE",
"1283.97 960.235 CURVE",
"1363.58 937.39 OFFCURVE",
"1418.27 901.677 OFFCURVE",
"1448.53 852.427 CURVE SMOOTH",
"1478.7 803.186 OFFCURVE",
"1484.37 740.444 OFFCURVE",
"1466 663.532 CURVE SMOOTH",
"1417.03 458.768 OFFCURVE",
"1301.45 356.383 OFFCURVE",
"1180.92 305.19 CURVE SMOOTH",
"1060.35 253.997 OFFCURVE",
"934.989 253.997 OFFCURVE",
"866.347 253.997 CURVE SMOOTH",
"137.3 253.997 LINE",
"245.013 549.742 LINE",
"926.079 549.742 LINE SMOOTH",
"980.678 550.158 OFFCURVE",
"1016.64 553.322 OFFCURVE",
"1041.03 563.144 CURVE SMOOTH",
"1065.46 573.094 OFFCURVE",
"1078.36 589.204 OFFCURVE",
"1086.77 614.257 CURVE SMOOTH",
"1090.14 624.078 OFFCURVE",
"1091.64 633.315 OFFCURVE",
"1091.39 641.934 CURVE SMOOTH",
"1091.18 650.466 OFFCURVE",
"1089.18 658.454 OFFCURVE",
"1085.52 665.738 CURVE SMOOTH",
"1079.82 676.771 OFFCURVE",
"1070.92 684.715 OFFCURVE",
"1060.96 690.624 CURVE SMOOTH",
"1050.98 696.58 OFFCURVE",
"1039.95 700.619 OFFCURVE",
"1029.96 703.654 CURVE SMOOTH",
"1012.94 708.815 OFFCURVE",
"985.92 716.723 OFFCURVE",
"962.912 723.382 CURVE SMOOTH",
"939.724 729.962 OFFCURVE",
"920.666 735.455 OFFCURVE",
"919.247 735.782 CURVE",
"882.955 746.896 OFFCURVE",
"849.158 764.192 OFFCURVE",
"821.027 785.456 CURVE SMOOTH",
"792.85 806.72 OFFCURVE",
"770.34 832.004 OFFCURVE",
"756.432 858.771 CURVE SMOOTH",
"745.2 880.767 OFFCURVE",
"740.031 906.069 OFFCURVE",
"740.989 935.837 CURVE SMOOTH",
"741.865 965.486 OFFCURVE",
"748.986 999.617 OFFCURVE",
"762.342 1039.3 CURVE SMOOTH",
"824.072 1223.8 OFFCURVE",
"904.264 1315.98 OFFCURVE",
"995.084 1362.14 CURVE SMOOTH",
"1085.9 1408.21 OFFCURVE",
"1187.24 1408.21 OFFCURVE",
"1291.62 1408.21 CURVE SMOOTH",
"1953.46 1408.21 LINE"
);
}
);
width = 2048;
}
);
unicode = E082;
},
{
glyphname = uniE083;
lastChange = "2015-03-16 12:36:21 +0000";
layers = (
{
layerId = "7A8B565B-8C4A-454F-8A9F-3F36545C59D3";
name = Regular;
paths = (
{
closed = 1;
nodes = (
"1159.06 1426.05 OFFCURVE",
"915.924 1183.33 OFFCURVE",
"899.332 880.26 CURVE",
"1202.58 896.161 OFFCURVE",
"1445.72 1138.88 OFFCURVE",
"1462.31 1441.95 CURVE"
);
},
{
closed = 1;
nodes = (
"915.924 511.054 OFFCURVE",
"1159.06 268.327 OFFCURVE",
"1462.31 252.426 CURVE",
"1445.72 555.493 OFFCURVE",
"1202.58 798.209 OFFCURVE",
"899.332 814.109 CURVE"
);
},
{
closed = 1;
nodes = (
"626.135 1441.95 LINE SMOOTH",
"593.889 1441.95 OFFCURVE",
"567.505 1415.57 OFFCURVE",
"567.505 1383.32 CURVE SMOOTH",
"567.505 317.212 LINE SMOOTH",
"567.505 258.569 OFFCURVE",
"567.505 258.569 OFFCURVE",
"626.135 258.569 CURVE SMOOTH",
"767.997 258.569 LINE SMOOTH",
"800.244 258.569 OFFCURVE",
"826.632 284.957 OFFCURVE",
"826.632 317.212 CURVE SMOOTH",
"826.632 1383.32 LINE SMOOTH",
"826.632 1441.95 OFFCURVE",
"826.632 1441.95 OFFCURVE",
"767.997 1441.95 CURVE SMOOTH"
);
}
);
width = 2048;
}
);
unicode = E083;
},
{
glyphname = uniE084;
lastChange = "2015-03-23 11:24:16 +0000";
layers = (
{
layerId = "7A8B565B-8C4A-454F-8A9F-3F36545C59D3";
name = Regular;
paths = (
{
closed = 1;
nodes = (
"1157.83 1282.27 OFFCURVE",
"1175.46 1304.56 OFFCURVE",
"1210.74 1321.17 CURVE",
"1177.52 1357.47 OFFCURVE",
"1125.66 1375.64 OFFCURVE",
"1055.12 1375.64 CURVE SMOOTH",
"1006.35 1375.64 OFFCURVE",
"967.444 1364.74 OFFCURVE",
"938.413 1342.96 CURVE SMOOTH",
"909.356 1321.17 OFFCURVE",
"894.841 1291.61 OFFCURVE",
"894.841 1254.26 CURVE SMOOTH",
"894.841 1217.93 OFFCURVE",
"906.755 1189.68 OFFCURVE",
"930.632 1169.45 CURVE SMOOTH",
"954.484 1149.22 OFFCURVE",
"1017.24 1115.76 OFFCURVE",
"1118.92 1069.08 CURVE SMOOTH",
"1188.42 1036.91 OFFCURVE",
"1237.7 1009.94 OFFCURVE",
"1266.76 988.158 CURVE SMOOTH",
"1295.79 966.372 OFFCURVE",
"1317.58 939.917 OFFCURVE",
"1332.12 908.795 CURVE SMOOTH",
"1341.45 888.031 OFFCURVE",
"1346.12 865.224 OFFCURVE",
"1346.12 840.326 CURVE SMOOTH",
"1346.12 763.539 OFFCURVE",
"1300.99 690.935 OFFCURVE",
"1210.74 622.467 CURVE",
"1249.11 590.298 OFFCURVE",
"1275.32 560.731 OFFCURVE",
"1289.32 533.766 CURVE SMOOTH",
"1303.33 506.777 OFFCURVE",
"1310.33 474.634 OFFCURVE",
"1310.33 437.287 CURVE SMOOTH",
"1310.33 363.638 OFFCURVE",
"1283.34 304.235 OFFCURVE",
"1229.41 259.108 CURVE SMOOTH",
"1175.46 213.98 OFFCURVE",
"1104.38 191.416 OFFCURVE",
"1016.22 191.416 CURVE SMOOTH",
"924.918 191.416 OFFCURVE",
"849.713 213.472 OFFCURVE",
"790.58 257.551 CURVE SMOOTH",
"731.446 301.658 OFFCURVE",
"701.88 357.413 OFFCURVE",
"701.88 424.836 CURVE SMOOTH",
"701.88 463.206 OFFCURVE",
"711.459 493.818 OFFCURVE",
"730.668 516.648 CURVE SMOOTH",
"749.852 539.455 OFFCURVE",
"775.529 550.885 OFFCURVE",
"807.697 550.885 CURVE SMOOTH",
"832.596 550.885 OFFCURVE",
"854.114 542.059 OFFCURVE",
"872.278 524.43 CURVE SMOOTH",
"890.415 506.777 OFFCURVE",
"899.51 486.038 OFFCURVE",
"899.51 462.185 CURVE SMOOTH",
"899.51 431.062 OFFCURVE",
"881.346 405.628 OFFCURVE",
"845.044 385.933 CURVE SMOOTH",
"835.708 380.755 OFFCURVE",
"831.039 375.576 OFFCURVE",
"831.039 370.371 CURVE SMOOTH",
"831.039 356.901 OFFCURVE",
"842.953 342.897 OFFCURVE",
"866.83 328.358 CURVE SMOOTH",
"910.402 302.438 OFFCURVE",
"957.598 289.454 OFFCURVE",
"1008.44 289.454 CURVE SMOOTH",
"1060.3 289.454 OFFCURVE",
"1102.32 301.902 OFFCURVE",
"1134.49 326.801 CURVE SMOOTH",
"1166.63 351.7 OFFCURVE",
"1182.73 384.378 OFFCURVE",
"1182.73 424.836 CURVE SMOOTH",
"1182.73 455.958 OFFCURVE",
"1174.17 481.367 OFFCURVE",
"1157.05 501.088 CURVE SMOOTH",
"1139.93 520.782 OFFCURVE",
"1108.54 542.059 OFFCURVE",
"1062.9 564.889 CURVE SMOOTH",
"941.524 624.023 LINE SMOOTH",
"868.896 659.28 OFFCURVE",
"818.591 688.336 OFFCURVE",
"790.58 711.166 CURVE SMOOTH",
"738.692 753.692 OFFCURVE",
"712.773 802.979 OFFCURVE",
"712.773 858.999 CURVE SMOOTH",
"712.773 934.714 OFFCURVE",
"757.9 1006.83 OFFCURVE",
"848.157 1075.3 CURVE",
"793.156 1127.16 OFFCURVE",
"765.681 1181.63 OFFCURVE",
"765.681 1238.7 CURVE SMOOTH",
"765.681 1309.23 OFFCURVE",
"791.09 1365.77 OFFCURVE",
"841.933 1408.32 CURVE SMOOTH",
"892.75 1450.84 OFFCURVE",
"960.709 1472.12 OFFCURVE",
"1045.78 1472.12 CURVE SMOOTH",
"1126.71 1472.12 OFFCURVE",
"1194.13 1453.18 OFFCURVE",
"1248.08 1415.32 CURVE SMOOTH",
"1302.01 1377.44 OFFCURVE",
"1329 1331.02 OFFCURVE",
"1329 1276.04 CURVE SMOOTH",
"1329 1246.99 OFFCURVE",
"1320.44 1223.38 OFFCURVE",
"1303.33 1205.24 CURVE SMOOTH",
"1286.21 1187.08 OFFCURVE",
"1264.16 1178.01 OFFCURVE",
"1237.19 1178.01 CURVE SMOOTH",
"1214.36 1178.01 OFFCURVE",
"1195.42 1185.01 OFFCURVE",
"1180.39 1199.01 CURVE SMOOTH",
"1165.34 1213.02 OFFCURVE",
"1157.83 1231.43 OFFCURVE",
"1157.83 1254.26 CURVE SMOOTH"
);
},
{
closed = 1;
nodes = (
"999.612 984.511 OFFCURVE",
"954.995 1006.3 OFFCURVE",
"922.852 1023.95 CURVE",
"913.514 1014.61 LINE SMOOTH",
"866.83 967.928 OFFCURVE",
"843.488 925.378 OFFCURVE",
"843.488 887.01 CURVE SMOOTH",
"843.488 857.954 OFFCURVE",
"854.892 833.055 OFFCURVE",
"877.724 812.315 CURVE SMOOTH",
"900.53 791.55 OFFCURVE",
"945.658 765.096 OFFCURVE",
"1013.11 732.951 CURVE SMOOTH",
"1050.46 715.299 OFFCURVE",
"1091.43 694.05 OFFCURVE",
"1136.04 669.15 CURVE",
"1191.02 717.902 OFFCURVE",
"1218.52 765.096 OFFCURVE",
"1218.52 810.759 CURVE SMOOTH",
"1218.52 839.791 OFFCURVE",
"1207.09 864.688 OFFCURVE",
"1184.28 885.453 CURVE SMOOTH",
"1161.45 906.194 OFFCURVE",
"1118.92 930.581 OFFCURVE",
"1056.68 958.592 CURVE SMOOTH"
);
}
);
width = 2048;
}
);
unicode = E084;
},
{
glyphname = uniE085;
lastChange = "2015-09-22 17:09:46 +0000";
layers = (
{
layerId = "7A8B565B-8C4A-454F-8A9F-3F36545C59D3";
name = Regular;
paths = (
{
closed = 1;
nodes = (
"896.198 1538.84 LINE",
"448.198 640.722 LINE",
"896.198 640.722 LINE",
"576.83 -63.7041 LINE",
"1408.2 958.528 LINE",
"1024.2 958.528 LINE",
"1472.2 1538.84 LINE"
);
}
);
width = 2048;
}
);
unicode = E085;
},
{
glyphname = uniF000;
lastChange = "2014-01-27 16:37:11 +0000";
layers = (
{
layerId = "7A8B565B-8C4A-454F-8A9F-3F36545C59D3";
name = Regular;
paths = (
{
closed = 1;
nodes = (
"832 448 LINE",
"1312 768 LINE",
"832 1088 LINE"
);
}
);
width = 2048;
}
);
unicode = F000;
},
{
glyphname = uniF001;
lastChange = "2014-01-28 17:19:26 +0000";
layers = (
{
layerId = "7A8B565B-8C4A-454F-8A9F-3F36545C59D3";
name = Regular;
paths = (
{
closed = 1;
nodes = (
"1216 1088 LINE",
"736 768 LINE",
"1216 448 LINE"
);
}
);
width = 2048;
}
);
unicode = F001;
},
{
glyphname = uniF002;
lastChange = "2014-01-29 10:17:14 +0000";
layers = (
{
layerId = "7A8B565B-8C4A-454F-8A9F-3F36545C59D3";
name = Regular;
paths = (
{
closed = 1;
nodes = (
"704 1024 LINE",
"1024 544 LINE",
"1344 1024 LINE"
);
}
);
width = 2048;
}
);
unicode = F002;
},
{
glyphname = uniF003;
lastChange = "2014-01-29 10:17:17 +0000";
layers = (
{
layerId = "7A8B565B-8C4A-454F-8A9F-3F36545C59D3";
name = Regular;
paths = (
{
closed = 1;
nodes = (
"1344 576 LINE",
"1024 1056 LINE",
"704 576 LINE"
);
}
);
width = 2048;
}
);
unicode = F003;
},
{
glyphname = uniF004;
lastChange = "2016-06-20 09:36:54 +0000";
layers = (
{
layerId = "7A8B565B-8C4A-454F-8A9F-3F36545C59D3";
name = Regular;
paths = (
{
closed = 1;
nodes = (
"1088 832 LINE",
"1088 1152 LINE",
"960 1152 LINE",
"960 832 LINE",
"640 832 LINE",
"640 704 LINE",
"960 704 LINE",
"960 384 LINE",
"1088 384 LINE",
"1088 704 LINE",
"1408 704 LINE",
"1408 832 LINE"
);
}
);
width = 2048;
}
);
unicode = F004;
},
{
glyphname = uniF005;
lastChange = "2016-06-20 09:36:15 +0000";
layers = (
{
layerId = "7A8B565B-8C4A-454F-8A9F-3F36545C59D3";
name = Regular;
paths = (
{
closed = 1;
nodes = (
"640 704 LINE",
"1408 704 LINE",
"1408 832 LINE",
"640 832 LINE"
);
}
);
width = 2048;
}
);
unicode = F005;
},
{
glyphname = uniF006;
lastChange = "2015-07-16 10:18:08 +0000";
layers = (
{
layerId = "7A8B565B-8C4A-454F-8A9F-3F36545C59D3";
name = Regular;
paths = (
{
closed = 1;
nodes = (
"1114.51 768 LINE",
"1340.78 994.274 LINE",
"1250.28 1084.77 LINE",
"1024.01 858.5 LINE",
"797.726 1084.78 LINE",
"707.216 994.274 LINE",
"933.5 767.99 LINE",
"707.226 541.715 LINE",
"797.726 451.215 LINE",
"1024 677.49 LINE",
"1250.27 451.215 LINE",
"1340.78 541.727 LINE"
);
}
);
width = 2048;
}
);
unicode = F006;
},
{
glyphname = uniF007;
lastChange = "2014-02-03 11:06:14 +0000";
layers = (
{
layerId = "7A8B565B-8C4A-454F-8A9F-3F36545C59D3";
name = Regular;
paths = (
{
closed = 1;
nodes = (
"842.981 1265.8 LINE",
"707.217 1130.04 LINE",
"1069.26 768 LINE",
"707.217 405.961 LINE",
"842.981 270.196 LINE",
"1340.78 768 LINE"
);
}
);
width = 2048;
}
);
unicode = F007;
},
{
glyphname = uniF008;
lastChange = "2014-02-03 11:06:00 +0000";
layers = (
{
layerId = "7A8B565B-8C4A-454F-8A9F-3F36545C59D3";
name = Regular;
paths = (
{
closed = 1;
nodes = (
"1205.02 270.197 LINE",
"1340.78 405.961 LINE",
"978.745 767.999 LINE",
"1340.78 1130.04 LINE",
"1205.02 1265.8 LINE",
"707.217 767.999 LINE"
);
}
);
width = 2048;
}
);
unicode = F008;
},
{
glyphname = uniF009;
lastChange = "2014-01-28 17:12:04 +0000";
layers = (
{
layerId = "7A8B565B-8C4A-454F-8A9F-3F36545C59D3";
name = Regular;
paths = (
{
closed = 1;
nodes = (
"1521.8 945.803 LINE",
"1386.04 1081.57 LINE",
"1024 719.528 LINE",
"661.962 1081.57 LINE",
"526.197 945.803 LINE",
"1024 448 LINE"
);
}
);
width = 2048;
}
);
unicode = F009;
},
{
glyphname = uniF010;
lastChange = "2014-01-28 17:12:36 +0000";
layers = (
{
layerId = "7A8B565B-8C4A-454F-8A9F-3F36545C59D3";
name = Regular;
paths = (
{
closed = 1;
nodes = (
"526.197 583.765 LINE",
"661.961 448 LINE",
"1024 810.039 LINE",
"1386.04 448 LINE",
"1521.8 583.765 LINE",
"1024 1081.57 LINE"
);
}
);
width = 2048;
}
);
unicode = F010;
},
{
glyphname = uniF011;
lastChange = "2014-01-28 14:39:47 +0000";
layers = (
{
layerId = "7A8B565B-8C4A-454F-8A9F-3F36545C59D3";
name = Regular;
paths = (
{
closed = 1;
nodes = (
"576 768 LINE",
"704 896 LINE",
"896 704 LINE",
"1344 1152 LINE",
"1472 1024 LINE",
"896 448 LINE"
);
}
);
width = 2048;
}
);
unicode = F011;
},
{
glyphname = uniF012;
lastChange = "2014-01-28 17:09:54 +0000";
layers = (
{
layerId = "7A8B565B-8C4A-454F-8A9F-3F36545C59D3";
name = Regular;
paths = (
{
closed = 1;
nodes = (
"1185.36 734.638 LINE",
"1204.95 773.536 OFFCURVE",
"1216 817.475 OFFCURVE",
"1216 864 CURVE SMOOTH",
"1216 1023.06 OFFCURVE",
"1087.06 1152 OFFCURVE",
"928 1152 CURVE SMOOTH",
"768.942 1152 OFFCURVE",
"640 1023.06 OFFCURVE",
"640 864 CURVE SMOOTH",
"640 704.942 OFFCURVE",
"768.942 576 OFFCURVE",
"928 576 CURVE SMOOTH",
"974.525 576 OFFCURVE",
"1018.46 587.047 OFFCURVE",
"1057.36 606.638 CURVE",
"1280 384 LINE",
"1408 512 LINE"
);
},
{
closed = 1;
nodes = (
"768 952.366 OFFCURVE",
"839.634 1024 OFFCURVE",
"928 1024 CURVE SMOOTH",
"1016.37 1024 OFFCURVE",
"1088 952.366 OFFCURVE",
"1088 864 CURVE SMOOTH",
"1088 775.635 OFFCURVE",
"1016.37 704 OFFCURVE",
"928 704 CURVE SMOOTH",
"839.634 704 OFFCURVE",
"768 775.635 OFFCURVE",
"768 864 CURVE SMOOTH"
);
}
);
width = 2048;
}
);
unicode = F012;
},
{
glyphname = uniF013;
lastChange = "2014-01-29 10:16:09 +0000";
layers = (
{
layerId = "7A8B565B-8C4A-454F-8A9F-3F36545C59D3";
name = Regular;
paths = (
{
closed = 1;
nodes = (
"704 1024 LINE",
"896 1024 LINE",
"896 1216 LINE"
);
},
{
closed = 1;
nodes = (
"960 960 LINE",
"704 960 LINE",
"704 320 LINE",
"1344 320 LINE",
"1344 1216 LINE",
"960 1216 LINE"
);
}
);
width = 2048;
}
);
unicode = F013;
},
{
glyphname = uniF014;
lastChange = "2014-01-29 10:16:28 +0000";
layers = (
{
layerId = "7A8B565B-8C4A-454F-8A9F-3F36545C59D3";
name = Regular;
paths = (
{
closed = 1;
nodes = (
"704 1024 LINE",
"896 1024 LINE",
"896 1216 LINE"
);
},
{
closed = 1;
nodes = (
"960 960 LINE",
"704 960 LINE",
"704 320 LINE",
"1344 320 LINE",
"1344 1216 LINE",
"960 1216 LINE"
);
},
{
closed = 1;
nodes = (
"1088 576 LINE",
"1088 448 LINE",
"960 448 LINE",
"960 576 LINE",
"832 576 LINE",
"832 704 LINE",
"960 704 LINE",
"960 832 LINE",
"1088 832 LINE",
"1088 704 LINE",
"1216 704 LINE",
"1216 576 LINE"
);
}
);
width = 2048;
}
);
unicode = F014;
},
{
glyphname = uniF015;
lastChange = "2014-01-29 10:16:55 +0000";
layers = (
{
layerId = "7A8B565B-8C4A-454F-8A9F-3F36545C59D3";
name = Regular;
paths = (
{
closed = 1;
nodes = (
"704 1024 LINE",
"896 1024 LINE",
"896 1216 LINE"
);
},
{
closed = 1;
nodes = (
"960 960 LINE",
"704 960 LINE",
"704 320 LINE",
"1344 320 LINE",
"1344 1216 LINE",
"960 1216 LINE"
);
},
{
closed = 1;
nodes = (
"832 640 LINE",
"896 704 LINE",
"960 640 LINE",
"1152 832 LINE",
"1216 768 LINE",
"960 512 LINE"
);
}
);
width = 2048;
}
);
unicode = F015;
},
{
glyphname = uniF016;
lastChange = "2014-01-28 12:41:22 +0000";
layers = (
{
layerId = "7A8B565B-8C4A-454F-8A9F-3F36545C59D3";
name = Regular;
paths = (
{
closed = 1;
nodes = (
"704 1024 LINE",
"704 320 LINE",
"1344 320 LINE",
"1344 1216 LINE",
"896 1216 LINE"
);
},
{
closed = 1;
nodes = (
"832 448 LINE",
"832 960 LINE",
"1024 960 LINE",
"1024 1088 LINE",
"1216 1088 LINE",
"1216 448 LINE"
);
},
{
closed = 1;
nodes = (
"896 704 LINE",
"896 832 LINE",
"1152 832 LINE",
"1152 704 LINE"
);
},
{
closed = 1;
nodes = (
"896 512 LINE",
"896 640 LINE",
"1152 640 LINE",
"1152 512 LINE"
);
}
);
width = 2048;
}
);
unicode = F016;
},
{
glyphname = uniF017;
lastChange = "2014-01-28 17:00:09 +0000";
layers = (
{
layerId = "7A8B565B-8C4A-454F-8A9F-3F36545C59D3";
name = Regular;
paths = (
{
closed = 1;
nodes = (
"832 448 LINE",
"832 768 LINE",
"1216 768 LINE",
"1216 448 LINE"
);
},
{
closed = 1;
nodes = (
"1216 1088 LINE",
"1216 1216 LINE",
"1088 1216 LINE",
"1088 1088 LINE",
"960 1088 LINE",
"960 1216 LINE",
"832 1216 LINE",
"832 1088 LINE",
"704 1088 LINE",
"704 320 LINE",
"1344 320 LINE",
"1344 1088 LINE"
);
}
);
width = 2048;
}
);
unicode = F017;
},
{
glyphname = uniF018;
lastChange = "2014-01-29 10:19:33 +0000";
layers = (
{
layerId = "7A8B565B-8C4A-454F-8A9F-3F36545C59D3";
name = Regular;
paths = (
{
closed = 1;
nodes = (
"1344 1280 LINE",
"960 1280 LINE",
"704 1024 LINE",
"704 704 LINE",
"576 704 LINE",
"576 320 LINE",
"1472 320 LINE",
"1472 704 LINE",
"1344 704 LINE"
);
},
{
closed = 1;
nodes = (
"1024 960 LINE",
"1024 1152 LINE",
"1216 1152 LINE",
"1216 704 LINE",
"832 704 LINE",
"832 960 LINE"
);
},
{
closed = 1;
nodes = (
"1216 448 LINE",
"1216 576 LINE",
"1344 576 LINE",
"1344 448 LINE"
);
}
);
width = 2048;
}
);
unicode = F018;
},
{
glyphname = uniF019;
lastChange = "2014-01-28 16:37:56 +0000";
layers = (
{
layerId = "7A8B565B-8C4A-454F-8A9F-3F36545C59D3";
name = Regular;
paths = (
{
closed = 1;
nodes = (
"1128.71 782.197 LINE",
"1536 1189.49 LINE",
"1445.49 1280 LINE",
"1038.2 872.707 LINE",
"992.942 736.942 LINE"
);
},
{
closed = 1;
nodes = (
"1408 512 LINE",
"640 512 LINE",
"640 896 LINE",
"896 896 LINE",
"1024 1024 LINE",
"512 1024 LINE",
"512 384 LINE",
"1536 384 LINE",
"1536 1024 LINE",
"1408 896 LINE"
);
}
);
width = 2048;
}
);
unicode = F019;
},
{
glyphname = uniF020;
lastChange = "2014-01-28 16:32:28 +0000";
layers = (
{
layerId = "7A8B565B-8C4A-454F-8A9F-3F36545C59D3";
name = Regular;
paths = (
{
closed = 1;
nodes = (
"1301.67 590.338 LINE",
"1289.95 596.325 OFFCURVE",
"1272.78 593.595 OFFCURVE",
"1263.48 584.301 CURVE SMOOTH",
"1197.21 518.025 LINE SMOOTH",
"1187.94 508.744 OFFCURVE",
"1169.56 501.019 OFFCURVE",
"1156.43 500.865 CURVE SMOOTH",
"1156.43 500.865 OFFCURVE",
"1071.74 499.893 OFFCURVE",
"914.267 657.377 CURVE SMOOTH",
"756.785 814.854 OFFCURVE",
"757.537 899.82 OFFCURVE",
"757.537 899.82 CURVE",
"757.662 912.958 OFFCURVE",
"765.358 931.315 OFFCURVE",
"774.638 940.583 CURVE SMOOTH",
"831.139 997.075 LINE SMOOTH",
"840.435 1006.39 OFFCURVE",
"843.553 1023.74 OFFCURVE",
"838.066 1035.69 CURVE",
"713.808 1269.41 LINE",
"708.325 1281.35 OFFCURVE",
"696.231 1283.52 OFFCURVE",
"686.947 1274.25 CURVE SMOOTH",
"532.848 1120.52 LINE SMOOTH",
"523.55 1111.27 OFFCURVE",
"514.521 1093.01 OFFCURVE",
"512.773 1079.98 CURVE",
"512.773 1079.98 OFFCURVE",
"482.711 855.354 OFFCURVE",
"797.466 540.601 CURVE SMOOTH",
"1112.23 225.845 OFFCURVE",
"1336.85 255.906 OFFCURVE",
"1336.85 255.906 CURVE",
"1349.86 257.658 OFFCURVE",
"1368.13 266.678 OFFCURVE",
"1377.4 275.962 CURVE SMOOTH",
"1531.32 429.874 LINE SMOOTH",
"1540.6 439.154 OFFCURVE",
"1538.62 451.653 OFFCURVE",
"1526.93 457.609 CURVE"
);
}
);
width = 2048;
}
);
unicode = F020;
},
{
glyphname = uniF021;
lastChange = "2014-01-28 16:31:54 +0000";
layers = (
{
layerId = "7A8B565B-8C4A-454F-8A9F-3F36545C59D3";
name = Regular;
paths = (
{
closed = 1;
nodes = (
"1301.72 591.205 LINE",
"1290 597.192 OFFCURVE",
"1272.83 594.462 OFFCURVE",
"1263.54 585.168 CURVE SMOOTH",
"1197.26 518.893 LINE SMOOTH",
"1187.99 509.611 OFFCURVE",
"1169.62 501.886 OFFCURVE",
"1156.48 501.732 CURVE SMOOTH",
"1156.48 501.732 OFFCURVE",
"1071.8 500.76 OFFCURVE",
"914.323 658.244 CURVE SMOOTH",
"756.842 815.721 OFFCURVE",
"757.593 900.687 OFFCURVE",
"757.593 900.687 CURVE",
"757.718 913.825 OFFCURVE",
"765.415 932.182 OFFCURVE",
"774.694 941.451 CURVE SMOOTH",
"831.195 997.942 LINE SMOOTH",
"840.492 1007.25 OFFCURVE",
"843.61 1024.61 OFFCURVE",
"838.123 1036.56 CURVE",
"713.865 1270.27 LINE",
"708.381 1282.22 OFFCURVE",
"696.287 1284.39 OFFCURVE",
"687.003 1275.12 CURVE SMOOTH",
"532.905 1121.39 LINE SMOOTH",
"523.607 1112.13 OFFCURVE",
"514.577 1093.87 OFFCURVE",
"512.83 1080.85 CURVE",
"512.83 1080.85 OFFCURVE",
"482.768 856.221 OFFCURVE",
"797.523 541.468 CURVE SMOOTH",
"1112.28 226.712 OFFCURVE",
"1336.91 256.773 OFFCURVE",
"1336.91 256.773 CURVE",
"1349.92 258.525 OFFCURVE",
"1368.18 267.545 OFFCURVE",
"1377.46 276.829 CURVE SMOOTH",
"1531.37 430.741 LINE SMOOTH",
"1540.66 440.022 OFFCURVE",
"1538.68 452.521 OFFCURVE",
"1526.99 458.477 CURVE"
);
},
{
closed = 1;
nodes = (
"997.569 838.475 OFFCURVE",
"1027.29 822.499 OFFCURVE",
"1051.8 797.992 CURVE SMOOTH",
"1076.46 773.335 OFFCURVE",
"1092.47 743.394 OFFCURVE",
"1100.27 711.846 CURVE",
"1160 711.846 LINE",
"1153.8 760.731 OFFCURVE",
"1131.95 805.917 OFFCURVE",
"1096.75 841.276 CURVE SMOOTH",
"1061.13 877.082 OFFCURVE",
"1015.52 899.135 OFFCURVE",
"966.222 905.041 CURVE",
"966.222 846.31 LINE"
);
},
{
closed = 1;
nodes = (
"1484.4 711.846 LINE",
"1479.29 979.748 OFFCURVE",
"1234.25 1224.28 OFFCURVE",
"966.229 1228.35 CURVE",
"966.211 1159.68 LINE",
"1206.55 1146.33 OFFCURVE",
"1399.76 952.925 OFFCURVE",
"1414.18 711.831 CURVE"
);
},
{
closed = 1;
nodes = (
"1322.37 711.831 LINE",
"1308.26 902.387 OFFCURVE",
"1156.04 1054.8 OFFCURVE",
"966.222 1067.9 CURVE",
"966.222 996.99 LINE",
"1117.39 984.161 OFFCURVE",
"1238.26 863.341 OFFCURVE",
"1252 711.846 CURVE"
);
}
);
width = 2048;
}
);
unicode = F021;
},
{
glyphname = uniF022;
lastChange = "2014-01-29 10:58:41 +0000";
layers = (
{
layerId = "7A8B565B-8C4A-454F-8A9F-3F36545C59D3";
name = Regular;
paths = (
{
closed = 1;
nodes = (
"1344 1088 LINE",
"1152 1088 LINE",
"1152 1152 LINE",
"1088 1216 LINE",
"960 1216 LINE",
"896 1152 LINE",
"896 1088 LINE",
"704 1088 LINE",
"640 960 LINE",
"1408 960 LINE"
);
},
{
closed = 1;
nodes = (
"1152 448 LINE",
"1088 448 LINE",
"1088 896 LINE",
"960 896 LINE",
"960 448 LINE",
"896 448 LINE",
"896 896 LINE",
"768 896 LINE",
"768 320 LINE",
"1280 320 LINE",
"1280 896 LINE",
"1152 896 LINE"
);
}
);
width = 2048;
}
);
unicode = F022;
},
{
glyphname = uniF023;
lastChange = "2014-01-28 16:21:51 +0000";
layers = (
{
layerId = "7A8B565B-8C4A-454F-8A9F-3F36545C59D3";
name = Regular;
paths = (
{
closed = 1;
nodes = (
"512.053 768.159 LINE",
"640 768 LINE",
"640 256 LINE",
"960 256 LINE",
"960 576 LINE",
"1088 576 LINE",
"1088 256 LINE",
"1408 256 LINE",
"1408 768 LINE",
"1535.95 768.159 LINE",
"1024 1280 LINE"
);
}
);
width = 2048;
}
);
unicode = F023;
},
{
glyphname = uniF024;
lastChange = "2014-01-29 10:59:10 +0000";
layers = (
{
layerId = "7A8B565B-8C4A-454F-8A9F-3F36545C59D3";
name = Regular;
paths = (
{
closed = 1;
nodes = (
"811.923 1301.33 OFFCURVE",
"640 1129.41 OFFCURVE",
"640 917.333 CURVE SMOOTH",
"640 732.411 OFFCURVE",
"773.579 590.163 OFFCURVE",
"896 501.732 CURVE",
"896 384 LINE",
"960 256 LINE",
"1088 256 LINE",
"1152 384 LINE",
"1152 501.732 LINE",
"1274.42 590.163 OFFCURVE",
"1408 732.411 OFFCURVE",
"1408 917.333 CURVE SMOOTH",
"1408 1129.41 OFFCURVE",
"1236.08 1301.33 OFFCURVE",
"1024 1301.33 CURVE SMOOTH"
);
},
{
closed = 1;
nodes = (
"1024 896 LINE",
"960 619.113 LINE",
"873.436 670.384 OFFCURVE",
"768 761.856 OFFCURVE",
"768 896 CURVE SMOOTH",
"768 1037.38 OFFCURVE",
"882.615 1152 OFFCURVE",
"1024 1152 CURVE SMOOTH",
"1165.38 1152 OFFCURVE",
"1280 1037.38 OFFCURVE",
"1280 896 CURVE SMOOTH",
"1280 761.856 OFFCURVE",
"1174.56 670.384 OFFCURVE",
"1088 619.114 CURVE"
);
}
);
width = 2048;
}
);
unicode = F024;
},
{
glyphname = uniF025;
lastChange = "2014-01-28 17:41:48 +0000";
layers = (
{
layerId = "7A8B565B-8C4A-454F-8A9F-3F36545C59D3";
name = Regular;
paths = (
{
closed = 1;
nodes = (
"576 1088 LINE SMOOTH",
"540.654 1088 OFFCURVE",
"512 1059.35 OFFCURVE",
"512 1024 CURVE SMOOTH",
"512 448 LINE SMOOTH",
"512 412.653 OFFCURVE",
"540.654 384 OFFCURVE",
"576 384 CURVE SMOOTH",
"1472 384 LINE SMOOTH",
"1507.35 384 OFFCURVE",
"1536 412.653 OFFCURVE",
"1536 448 CURVE SMOOTH",
"1536 1024 LINE SMOOTH",
"1536 1059.35 OFFCURVE",
"1507.35 1088 OFFCURVE",
"1472 1088 CURVE SMOOTH"
);
},
{
closed = 1;
nodes = (
"640 768 LINE",
"640 896 LINE",
"1408 896 LINE",
"1408 768 LINE"
);
}
);
width = 2048;
}
);
unicode = F025;
},
{
glyphname = uniF026;
lastChange = "2014-01-28 12:44:50 +0000";
layers = (
{
layerId = "7A8B565B-8C4A-454F-8A9F-3F36545C59D3";
name = Regular;
paths = (
{
closed = 1;
nodes = (
"1344 1024 LINE",
"1280 960 LINE",
"960 960 LINE",
"864.543 1088 LINE",
"640 1088 LINE",
"640 960 LINE",
"832 960 LINE",
"896.546 576 LINE",
"1346.42 576 LINE",
"1442.42 1024 LINE"
);
},
{
closed = 1;
nodes = (
"896 384 LINE",
"896 512 LINE",
"1024 512 LINE",
"1024 384 LINE"
);
},
{
closed = 1;
nodes = (
"1216 384 LINE",
"1216 512 LINE",
"1344 512 LINE",
"1344 384 LINE"
);
}
);
width = 2048;
}
);
unicode = F026;
},
{
glyphname = uniF027;
lastChange = "2014-01-28 16:07:10 +0000";
layers = (
{
layerId = "7A8B565B-8C4A-454F-8A9F-3F36545C59D3";
name = Regular;
paths = (
{
closed = 1;
nodes = (
"384 256 LINE",
"1664 256 LINE",
"1024 1280 LINE"
);
},
{
closed = 1;
nodes = (
"960 384 LINE",
"960 512 LINE",
"1088 512 LINE",
"1088 384 LINE"
);
},
{
closed = 1;
nodes = (
"960 896 LINE",
"1088 896 LINE",
"1088 640 LINE",
"960 640 LINE"
);
}
);
width = 2048;
}
);
unicode = F027;
},
{
glyphname = uniF028;
lastChange = "2014-02-17 11:12:37 +0000";
layers = (
{
layerId = "7A8B565B-8C4A-454F-8A9F-3F36545C59D3";
name = Regular;
paths = (
{
closed = 1;
nodes = (
"512 1152 LINE",
"512 512 LINE",
"640 512 LINE",
"640 448 OFFCURVE",
"704 384 OFFCURVE",
"768 384 CURVE SMOOTH",
"832 384 OFFCURVE",
"896 448 OFFCURVE",
"896 512 CURVE",
"1152 512 LINE",
"1152 448 OFFCURVE",
"1216 384 OFFCURVE",
"1280 384 CURVE SMOOTH",
"1344 384 OFFCURVE",
"1408 448 OFFCURVE",
"1408 512 CURVE",
"1536 512 LINE",
"1536 768 LINE",
"1344 1024 LINE",
"1152 1024 LINE",
"1152 1152 LINE"
);
},
{
closed = 1;
nodes = (
"1152 896 LINE",
"1280 896 LINE",
"1376 768 LINE",
"1152 768 LINE"
);
}
);
width = 2048;
}
);
unicode = F028;
},
{
glyphname = uniF029;
lastChange = "2014-01-28 17:42:50 +0000";
layers = (
{
layerId = "7A8B565B-8C4A-454F-8A9F-3F36545C59D3";
name = Regular;
paths = (
{
closed = 1;
nodes = (
"1355.24 963.056 OFFCURVE",
"1321.8 1008.06 OFFCURVE",
"1280 1045.09 CURVE",
"1280 1280 LINE",
"1058.52 1147.11 LINE",
"1036.86 1150.32 OFFCURVE",
"1014.64 1152 OFFCURVE",
"992 1152 CURVE SMOOTH",
"762.25 1152 OFFCURVE",
"576 980.077 OFFCURVE",
"576 768 CURVE SMOOTH",
"576 644.796 OFFCURVE",
"638.862 535.149 OFFCURVE",
"736.589 464.883 CURVE",
"640 320 LINE",
"832 320 LINE",
"883.468 397.202 LINE",
"918.068 388.594 OFFCURVE",
"954.453 384 OFFCURVE",
"992 384 CURVE SMOOTH",
"1009.4 384 OFFCURVE",
"1026.55 384.992 OFFCURVE",
"1043.39 386.908 CURVE",
"1088 320 LINE",
"1280 320 LINE",
"1202.27 436.599 LINE",
"1280.75 479.117 OFFCURVE",
"1342.78 544.707 OFFCURVE",
"1377.44 623.279 CURVE",
"1536 576 LINE",
"1536 960 LINE",
"1377.44 912.721 LINE"
);
},
{
closed = 1;
nodes = (
"869.271 956.546 OFFCURVE",
"801.868 903.083 OFFCURVE",
"776.141 832 CURVE",
"704 832 LINE",
"732.553 938.627 OFFCURVE",
"830.805 1019.88 OFFCURVE",
"951.578 1032.2 CURVE",
"951.578 967.688 LINE"
);
},
{
closed = 1;
nodes = (
"1116.65 832 OFFCURVE",
"1088 860.653 OFFCURVE",
"1088 896 CURVE SMOOTH",
"1088 931.347 OFFCURVE",
"1116.65 960 OFFCURVE",
"1152 960 CURVE SMOOTH",
"1187.35 960 OFFCURVE",
"1216 931.347 OFFCURVE",
"1216 896 CURVE SMOOTH",
"1216 860.653 OFFCURVE",
"1187.35 832 OFFCURVE",
"1152 832 CURVE SMOOTH"
);
}
);
width = 2048;
}
);
unicode = F029;
},
{
glyphname = uniF030;
lastChange = "2014-01-29 10:53:11 +0000";
layers = (
{
layerId = "7A8B565B-8C4A-454F-8A9F-3F36545C59D3";
name = Regular;
paths = (
{
closed = 1;
nodes = (
"1472 704 LINE",
"1536 768 LINE",
"1472 832 LINE",
"1536 895.999 LINE",
"1472 896 OFFCURVE",
"1408 960 OFFCURVE",
"1408 1024 CURVE",
"640 1024 LINE",
"640 953.309 OFFCURVE",
"582.692 896 OFFCURVE",
"512 896 CURVE",
"576 832 LINE",
"512 768 LINE",
"576 704 LINE",
"512 640 LINE",
"582.692 640 OFFCURVE",
"640 582.692 OFFCURVE",
"640 512 CURVE",
"1408 512 LINE",
"1408 582.693 OFFCURVE",
"1465.31 640 OFFCURVE",
"1536 640 CURVE"
);
},
{
closed = 1;
nodes = (
"1344 704 LINE",
"1344 640 LINE",
"1280 640 LINE",
"768 640 LINE",
"704 640 LINE",
"704 704 LINE",
"704 832 LINE",
"704 896 LINE",
"768 896 LINE",
"1280 896 LINE",
"1344 896 LINE",
"1344 832 LINE"
);
},
{
closed = 1;
nodes = (
"1280 704 LINE",
"1280 832 LINE",
"768 832 LINE",
"768 704 LINE"
);
}
);
width = 2048;
}
);
unicode = F030;
},
{
glyphname = uniF031;
lastChange = "2014-01-28 15:19:51 +0000";
layers = (
{
layerId = "7A8B565B-8C4A-454F-8A9F-3F36545C59D3";
name = Regular;
paths = (
{
closed = 1;
nodes = (
"1432.29 974.511 OFFCURVE",
"1422.63 985.731 OFFCURVE",
"1412.2 996.07 CURVE",
"1413.07 986.203 OFFCURVE",
"1413.64 976.213 OFFCURVE",
"1413.62 965.96 CURVE SMOOTH",
"1413.68 916.468 OFFCURVE",
"1404.01 867.765 OFFCURVE",
"1384.92 821.262 CURVE SMOOTH",
"1365.81 774.673 OFFCURVE",
"1341.06 735.836 OFFCURVE",
"1311.33 705.815 CURVE SMOOTH",
"1282.24 676.502 OFFCURVE",
"1249.9 653.688 OFFCURVE",
"1215.03 637.915 CURVE SMOOTH",
"1181.9 623.059 OFFCURVE",
"1142.81 612.806 OFFCURVE",
"1091.85 605.646 CURVE SMOOTH",
"1062.19 601.565 OFFCURVE",
"1018.64 599.788 OFFCURVE",
"946.236 599.753 CURVE SMOOTH",
"930.435 599.753 LINE",
"888.76 400.457 LINE",
"883.264 374.358 LINE",
"872.279 322.217 LINE",
"818.986 322.217 LINE",
"738.266 322.217 LINE",
"726.042 256 LINE",
"943.058 256 LINE",
"948.557 289.962 LINE",
"1001.13 541.373 LINE",
"1070.31 541.373 LINE SMOOTH",
"1135.59 541.42 OFFCURVE",
"1179.78 542.909 OFFCURVE",
"1206.98 546.633 CURVE SMOOTH",
"1249.27 552.567 OFFCURVE",
"1283.97 561.104 OFFCURVE",
"1312.22 573.786 CURVE SMOOTH",
"1340.03 586.36 OFFCURVE",
"1365.64 604.692 OFFCURVE",
"1388.77 628.012 CURVE SMOOTH",
"1413.26 652.72 OFFCURVE",
"1432.73 684.369 OFFCURVE",
"1448.21 722.111 CURVE SMOOTH",
"1464.03 760.623 OFFCURVE",
"1472.05 800.796 OFFCURVE",
"1472 841.791 CURVE",
"1472.1 886.345 OFFCURVE",
"1461.82 927.226 OFFCURVE",
"1440.23 961.678 CURVE SMOOTH"
);
},
{
closed = 1;
nodes = (
"764.186 1216 LINE",
"598.03 422.484 LINE",
"815.046 422.484 LINE",
"820.558 448.597 LINE",
"873.13 700.003 LINE",
"942.296 700.003 LINE SMOOTH",
"1007.59 700.041 OFFCURVE",
"1051.77 701.541 OFFCURVE",
"1078.95 705.278 CURVE SMOOTH",
"1121.25 711.226 OFFCURVE",
"1155.97 719.735 OFFCURVE",
"1184.2 732.423 CURVE SMOOTH",
"1212.02 745.006 OFFCURVE",
"1237.64 763.35 OFFCURVE",
"1260.77 786.657 CURVE SMOOTH",
"1285.25 811.379 OFFCURVE",
"1304.73 843.027 OFFCURVE",
"1320.19 880.755 CURVE SMOOTH",
"1336.02 919.267 OFFCURVE",
"1344.05 959.442 OFFCURVE",
"1344 1000.44 CURVE",
"1344.09 1044.98 OFFCURVE",
"1333.8 1085.88 OFFCURVE",
"1312.2 1120.32 CURVE SMOOTH",
"1291.15 1154.37 OFFCURVE",
"1260.72 1180.21 OFFCURVE",
"1223.96 1194.95 CURVE SMOOTH",
"1187.22 1209.73 OFFCURVE",
"1141.95 1215.91 OFFCURVE",
"1086.77 1216 CURVE SMOOTH"
);
},
{
closed = 1;
nodes = (
"1022.73 1030.63 LINE SMOOTH",
"1025.01 1030.66 OFFCURVE",
"1027.26 1030.67 OFFCURVE",
"1029.46 1030.67 CURVE SMOOTH",
"1067.19 1030.67 OFFCURVE",
"1094.17 1027.88 OFFCURVE",
"1102.94 1025.76 CURVE SMOOTH",
"1104.19 1025.47 OFFCURVE",
"1105.06 1025.18 OFFCURVE",
"1105.56 1024.92 CURVE",
"1114.17 1021.67 OFFCURVE",
"1118.69 1017.97 OFFCURVE",
"1122.56 1012.56 CURVE SMOOTH",
"1125.67 1007.96 OFFCURVE",
"1128.32 1000.84 OFFCURVE",
"1128.37 988.036 CURVE SMOOTH",
"1128.29 968.277 OFFCURVE",
"1123.06 951.698 OFFCURVE",
"1111.47 934.819 CURVE SMOOTH",
"1099.93 918.511 OFFCURVE",
"1085.32 907.091 OFFCURVE",
"1064.31 899.112 CURVE SMOOTH",
"1062.21 898.256 OFFCURVE",
"1059.59 897.411 OFFCURVE",
"1056.47 896.591 CURVE SMOOTH",
"1034.67 890.884 OFFCURVE",
"988.401 886.341 OFFCURVE",
"923.89 886.341 CURVE SMOOTH",
"921.768 886.341 OFFCURVE",
"919.644 886.341 OFFCURVE",
"917.486 886.341 CURVE SMOOTH",
"911.75 886.341 LINE",
"942.107 1030.63 LINE"
);
}
);
width = 2048;
}
);
unicode = F031;
},
{
glyphname = uniF032;
lastChange = "2014-01-28 15:18:57 +0000";
layers = (
{
layerId = "7A8B565B-8C4A-454F-8A9F-3F36545C59D3";
name = Regular;
paths = (
{
closed = 1;
nodes = (
"741.693 1278.95 OFFCURVE",
"512.842 1050.11 OFFCURVE",
"512.842 767.834 CURVE SMOOTH",
"512.842 485.554 OFFCURVE",
"741.693 256.725 OFFCURVE",
"1024 256.725 CURVE SMOOTH",
"1306.31 256.725 OFFCURVE",
"1535.16 485.554 OFFCURVE",
"1535.16 767.834 CURVE SMOOTH",
"1535.16 1050.11 OFFCURVE",
"1306.31 1278.95 OFFCURVE",
"1024 1278.95 CURVE SMOOTH"
);
},
{
closed = 1;
nodes = (
"808.405 377.51 OFFCURVE",
"633.638 552.261 OFFCURVE",
"633.638 767.835 CURVE SMOOTH",
"633.638 983.406 OFFCURVE",
"808.405 1158.16 OFFCURVE",
"1024 1158.16 CURVE SMOOTH",
"1239.59 1158.16 OFFCURVE",
"1414.37 983.406 OFFCURVE",
"1414.37 767.835 CURVE SMOOTH",
"1414.37 552.261 OFFCURVE",
"1239.59 377.51 OFFCURVE",
"1024 377.51 CURVE SMOOTH"
);
},
{
closed = 1;
nodes = (
"833.506 1112.81 OFFCURVE",
"679.084 958.398 OFFCURVE",
"679.084 767.92 CURVE SMOOTH",
"679.084 577.437 OFFCURVE",
"833.506 423.027 OFFCURVE",
"1024 423.027 CURVE SMOOTH",
"1214.49 423.027 OFFCURVE",
"1368.91 577.437 OFFCURVE",
"1368.91 767.92 CURVE SMOOTH",
"1368.91 958.398 OFFCURVE",
"1214.49 1112.81 OFFCURVE",
"1024 1112.81 CURVE SMOOTH"
);
},
{
closed = 1;
nodes = (
"1024.2 792.223 LINE",
"919.25 792.223 LINE",
"917.773 784.331 OFFCURVE",
"916.993 776.192 OFFCURVE",
"916.993 767.873 CURVE SMOOTH",
"916.993 759.546 OFFCURVE",
"917.773 751.398 OFFCURVE",
"919.255 743.493 CURVE",
"1072.91 743.493 LINE",
"1024.2 694.767 LINE",
"939.161 694.767 LINE",
"962.762 659.51 OFFCURVE",
"1002.94 636.292 OFFCURVE",
"1048.55 636.292 CURVE SMOOTH",
"1073.47 636.292 OFFCURVE",
"1096.76 643.22 OFFCURVE",
"1116.62 655.248 CURVE",
"1178.71 591.396 LINE",
"1142.31 564.497 OFFCURVE",
"1097.29 548.585 OFFCURVE",
"1048.55 548.585 CURVE SMOOTH",
"953.093 548.585 OFFCURVE",
"871.898 609.602 OFFCURVE",
"841.793 694.767 CURVE",
"780.588 694.767 LINE",
"780.588 743.493 LINE",
"830.652 743.493 LINE",
"829.766 751.502 OFFCURVE",
"829.294 759.635 OFFCURVE",
"829.294 767.873 CURVE SMOOTH",
"829.294 776.104 OFFCURVE",
"829.766 784.229 OFFCURVE",
"830.648 792.223 CURVE",
"780.588 792.223 LINE",
"780.588 840.949 LINE",
"841.782 840.949 LINE",
"871.878 926.131 OFFCURVE",
"953.082 987.166 OFFCURVE",
"1048.55 987.166 CURVE SMOOTH",
"1097.91 987.166 OFFCURVE",
"1143.46 970.848 OFFCURVE",
"1180.1 943.321 CURVE",
"1117.05 880.231 LINE",
"1097.1 892.429 OFFCURVE",
"1073.65 899.452 OFFCURVE",
"1048.55 899.452 CURVE SMOOTH",
"1002.93 899.452 OFFCURVE",
"962.739 876.226 OFFCURVE",
"939.142 840.949 CURVE",
"1072.91 840.949 LINE"
);
}
);
width = 2048;
}
);
unicode = F032;
},
{
glyphname = uniF033;
lastChange = "2014-01-28 15:17:22 +0000";
layers = (
{
layerId = "7A8B565B-8C4A-454F-8A9F-3F36545C59D3";
name = Regular;
paths = (
{
closed = 1;
nodes = (
"1146.9 340.517 OFFCURVE",
"1081.35 329.173 OFFCURVE",
"990.597 329.173 CURVE SMOOTH",
"781.35 329.173 OFFCURVE",
"597.313 479.175 OFFCURVE",
"597.313 726.237 CURVE SMOOTH",
"597.313 983.384 OFFCURVE",
"785.131 1206.5 OFFCURVE",
"1068.75 1206.5 CURVE SMOOTH",
"1291.86 1206.5 OFFCURVE",
"1450.69 1053.97 OFFCURVE",
"1450.69 842.206 CURVE SMOOTH",
"1450.69 656.909 OFFCURVE",
"1347.32 540.941 OFFCURVE",
"1211.19 540.941 CURVE SMOOTH",
"1151.94 540.941 OFFCURVE",
"1109.09 572.454 OFFCURVE",
"1102.78 638 CURVE",
"1100.26 638 LINE",
"1059.93 574.975 OFFCURVE",
"1004.46 540.941 OFFCURVE",
"936.394 540.941 CURVE SMOOTH",
"855.721 540.941 OFFCURVE",
"795.216 602.707 OFFCURVE",
"795.216 706.07 CURVE SMOOTH",
"795.216 861.114 OFFCURVE",
"909.923 999.771 OFFCURVE",
"1091.44 999.771 CURVE SMOOTH",
"1146.9 999.771 OFFCURVE",
"1209.93 985.906 OFFCURVE",
"1241.44 969.519 CURVE",
"1203.62 735.06 LINE SMOOTH",
"1191.02 660.691 OFFCURVE",
"1199.84 626.655 OFFCURVE",
"1235.14 625.396 CURVE SMOOTH",
"1289.34 622.875 OFFCURVE",
"1357.41 692.204 OFFCURVE",
"1357.41 838.424 CURVE SMOOTH",
"1357.41 1003.55 OFFCURVE",
"1251.53 1129.6 OFFCURVE",
"1056.14 1129.6 CURVE SMOOTH",
"862.023 1129.6 OFFCURVE",
"694.375 979.602 OFFCURVE",
"694.375 737.582 CURVE SMOOTH",
"694.375 525.815 OFFCURVE",
"827.989 407.324 OFFCURVE",
"1015.81 407.324 CURVE SMOOTH",
"1080.09 407.324 OFFCURVE",
"1149.42 421.191 OFFCURVE",
"1199.84 446.402 CURVE",
"1222.53 374.552 LINE"
);
},
{
closed = 1;
nodes = (
"1100.26 897.669 OFFCURVE",
"1086.4 900.19 OFFCURVE",
"1071.27 900.19 CURVE SMOOTH",
"988.076 900.19 OFFCURVE",
"922.528 818.256 OFFCURVE",
"922.528 721.194 CURVE SMOOTH",
"922.528 673.295 OFFCURVE",
"943.957 643.043 OFFCURVE",
"985.555 643.043 CURVE SMOOTH",
"1032.19 643.043 OFFCURVE",
"1081.35 702.288 OFFCURVE",
"1092.7 775.399 CURVE SMOOTH",
"1110.35 895.148 LINE"
);
}
);
width = 2048;
}
);
unicode = F033;
},
{
glyphname = uniF034;
lastChange = "2014-01-28 15:16:47 +0000";
layers = (
{
layerId = "7A8B565B-8C4A-454F-8A9F-3F36545C59D3";
name = Regular;
paths = (
{
closed = 1;
nodes = (
"1344 704 LINE",
"1152 640 LINE",
"1152 868.571 LINE",
"1024 832 LINE",
"576 960 LINE",
"576 512 LINE",
"1024 320 LINE",
"1472 512 LINE",
"1472 960 LINE",
"1344 923.429 LINE"
);
},
{
closed = 1;
nodes = (
"1024 1216 LINE",
"576 1088 LINE",
"576 1024 LINE",
"1024 896 LINE",
"1152 932.571 LINE",
"1152 996.571 LINE",
"1024 1033.14 LINE",
"1216 1088 LINE",
"1344 1051.43 LINE",
"1344 987.429 LINE",
"1472 1024 LINE",
"1472 1088 LINE"
);
}
);
width = 2048;
}
);
unicode = F034;
},
{
glyphname = uniF035;
lastChange = "2014-01-28 15:08:04 +0000";
layers = (
{
layerId = "7A8B565B-8C4A-454F-8A9F-3F36545C59D3";
name = Regular;
paths = (
{
closed = 1;
nodes = (
"1600 768 LINE",
"1462.62 859.583 LINE",
"1426.49 1033.52 OFFCURVE",
"1289.52 1170.49 OFFCURVE",
"1115.58 1206.62 CURVE",
"1024 1344 LINE",
"932.417 1206.62 LINE",
"758.483 1170.49 OFFCURVE",
"621.507 1033.52 OFFCURVE",
"585.375 859.583 CURVE",
"448 768 LINE",
"585.375 676.416 LINE",
"621.507 502.483 OFFCURVE",
"758.483 365.507 OFFCURVE",
"932.417 329.375 CURVE",
"1024 192 LINE",
"1115.58 329.376 LINE",
"1289.52 365.507 OFFCURVE",
"1426.49 502.483 OFFCURVE",
"1462.62 676.416 CURVE"
);
},
{
closed = 1;
nodes = (
"847.269 448 OFFCURVE",
"704 591.269 OFFCURVE",
"704 768 CURVE SMOOTH",
"704 944.731 OFFCURVE",
"847.269 1088 OFFCURVE",
"1024 1088 CURVE SMOOTH",
"1200.73 1088 OFFCURVE",
"1344 944.731 OFFCURVE",
"1344 768 CURVE SMOOTH",
"1344 591.269 OFFCURVE",
"1200.73 448 OFFCURVE",
"1024 448 CURVE SMOOTH"
);
},
{
closed = 1;
nodes = (
"1088 704 LINE",
"1216 960 LINE",
"960 832 LINE",
"832 576 LINE"
);
}
);
width = 2048;
}
);
unicode = F035;
},
{
glyphname = uniF036;
lastChange = "2014-01-28 15:03:02 +0000";
layers = (
{
layerId = "7A8B565B-8C4A-454F-8A9F-3F36545C59D3";
name = Regular;
paths = (
{
closed = 1;
nodes = (
"1322.14 542.08 OFFCURVE",
"1245.32 616.469 OFFCURVE",
"1127.98 643.648 CURVE",
"1127.98 668.083 LINE",
"1152.9 702.511 OFFCURVE",
"1173.45 749.195 OFFCURVE",
"1194.49 802.773 CURVE SMOOTH",
"1209.31 840.476 OFFCURVE",
"1206.76 872.618 OFFCURVE",
"1206.76 918.387 CURVE SMOOTH",
"1206.76 952.195 OFFCURVE",
"1213.13 1006.45 OFFCURVE",
"1204.74 1036.27 CURVE SMOOTH",
"1176.44 1137.04 OFFCURVE",
"1107.78 1186.36 OFFCURVE",
"1024 1186.36 CURVE SMOOTH",
"940.15 1186.36 OFFCURVE",
"865.69 1136.91 OFFCURVE",
"837.442 1035.97 CURVE SMOOTH",
"829.127 1006.24 OFFCURVE",
"835.5 952.103 OFFCURVE",
"835.5 918.387 CURVE SMOOTH",
"835.5 872.513 OFFCURVE",
"833.009 840.267 OFFCURVE",
"847.853 802.498 CURVE SMOOTH",
"870.71 744.462 OFFCURVE",
"892.559 694.752 OFFCURVE",
"920.025 659.85 CURVE",
"920.025 645.142 LINE",
"798.866 619.315 OFFCURVE",
"720.253 542.279 OFFCURVE",
"659.457 531.64 CURVE SMOOTH",
"538.781 510.521 OFFCURVE",
"538.781 419.475 OFFCURVE",
"538.781 419.475 CURVE",
"512 320 LINE",
"1536 320 LINE",
"1509.22 421.674 LINE",
"1509.22 421.674 OFFCURVE",
"1502.48 510.521 OFFCURVE",
"1381.8 531.64 CURVE SMOOTH"
);
}
);
width = 2048;
}
);
unicode = F036;
},
{
glyphname = uniF037;
lastChange = "2014-01-28 15:02:07 +0000";
layers = (
{
layerId = "7A8B565B-8C4A-454F-8A9F-3F36545C59D3";
name = Regular;
paths = (
{
closed = 1;
nodes = (
"1344 384 LINE",
"1216 320 LINE",
"1264 464 LINE",
"1152 576 LINE",
"1280 576 LINE",
"1344 704 LINE",
"1408 576 LINE",
"1536 576 LINE",
"1424 464 LINE",
"1472 320 LINE"
);
},
{
closed = 1;
nodes = (
"1198.27 840.861 OFFCURVE",
"1198.34 954.152 OFFCURVE",
"1198.34 1015.06 CURVE SMOOTH",
"1198.34 1075.96 OFFCURVE",
"1169.93 1209.7 OFFCURVE",
"982.726 1209.7 CURVE SMOOTH",
"885.281 1209.7 OFFCURVE",
"788.775 1158.54 OFFCURVE",
"788.775 1012.38 CURVE",
"788.775 1012.38 OFFCURVE",
"794.867 947.028 OFFCURVE",
"794.867 898.307 CURVE SMOOTH",
"794.867 849.584 OFFCURVE",
"794.867 861.765 OFFCURVE",
"794.867 813.042 CURVE SMOOTH",
"794.867 764.32 OFFCURVE",
"843.589 715.598 OFFCURVE",
"892.31 666.875 CURVE",
"746.144 666.875 OFFCURVE",
"725.81 609.187 OFFCURVE",
"636.518 569.431 CURVE SMOOTH",
"514.712 515.199 OFFCURVE",
"514.712 413.558 OFFCURVE",
"514.712 413.558 CURVE",
"512 320 LINE",
"1088 320 LINE",
"1152 448 LINE",
"1024 640 LINE",
"1216 639.999 LINE",
"1216 639.999 OFFCURVE",
"1192.36 644.873 OFFCURVE",
"1143.61 683.624 CURVE SMOOTH",
"1094.87 722.373 OFFCURVE",
"1107.1 773.382 OFFCURVE",
"1135.96 792.672 CURVE"
);
}
);
width = 2048;
}
);
unicode = F037;
},
{
glyphname = uniF038;
lastChange = "2014-01-28 14:57:50 +0000";
layers = (
{
layerId = "7A8B565B-8C4A-454F-8A9F-3F36545C59D3";
name = Regular;
paths = (
{
closed = 1;
nodes = (
"576 896 LINE",
"576 448 LINE",
"1472 448 LINE",
"1472 904 LINE",
"1024 511.999 LINE"
);
},
{
closed = 1;
nodes = (
"576 1024 LINE",
"1024 639.999 LINE",
"1462.86 1024 LINE"
);
}
);
width = 2048;
}
);
unicode = F038;
},
{
glyphname = uniF039;
lastChange = "2014-01-28 14:55:20 +0000";
layers = (
{
layerId = "7A8B565B-8C4A-454F-8A9F-3F36545C59D3";
name = Regular;
paths = (
{
closed = 1;
nodes = (
"1148.57 896.609 LINE",
"1551.69 896.609 LINE",
"1225.56 659.662 LINE",
"1350.13 276.272 LINE",
"1024 513.219 LINE",
"697.871 276.272 LINE",
"822.438 659.662 LINE",
"496.308 896.609 LINE",
"899.431 896.609 LINE",
"1024 1280 LINE"
);
}
);
width = 2048;
}
);
unicode = F039;
},
{
glyphname = uniF040;
lastChange = "2014-01-28 14:53:58 +0000";
layers = (
{
layerId = "7A8B565B-8C4A-454F-8A9F-3F36545C59D3";
name = Regular;
paths = (
{
closed = 1;
nodes = (
"1344 640 LINE",
"1344 704 LINE",
"1408 704 LINE",
"1408 1088 LINE SMOOTH",
"1408 1216 OFFCURVE",
"1408 1216 OFFCURVE",
"1280 1216 CURVE SMOOTH",
"768 1216 LINE SMOOTH",
"640 1216 OFFCURVE",
"640 1216 OFFCURVE",
"640 1088 CURVE SMOOTH",
"640 704 LINE",
"704 704 LINE",
"704 640 LINE",
"640 640 LINE",
"576 448 LINE",
"576 448 OFFCURVE",
"572.142 384 OFFCURVE",
"602.886 384 CURVE SMOOTH",
"638.408 384 OFFCURVE",
"1412.8 384 OFFCURVE",
"1440 384 CURVE SMOOTH",
"1469.37 384 OFFCURVE",
"1472 448 OFFCURVE",
"1472 448 CURVE",
"1408 640 LINE"
);
},
{
closed = 1;
nodes = (
"1280 1088 LINE",
"1280 832 LINE",
"768 832 LINE",
"768 1088 LINE"
);
},
{
closed = 1;
nodes = (
"768 576 LINE",
"1280 576 LINE",
"1344 512 LINE",
"704 512 LINE"
);
},
{
closed = 1;
nodes = (
"832 640 LINE",
"832 704 LINE",
"1216 704 LINE",
"1216 640 LINE"
);
}
);
width = 2048;
}
);
unicode = F040;
},
{
glyphname = uniF041;
lastChange = "2014-01-28 14:49:01 +0000";
layers = (
{
layerId = "7A8B565B-8C4A-454F-8A9F-3F36545C59D3";
name = Regular;
paths = (
{
closed = 1;
nodes = (
"776.577 1152 OFFCURVE",
"576 994.404 OFFCURVE",
"576 800 CURVE SMOOTH",
"576 704.091 OFFCURVE",
"624.822 617.143 OFFCURVE",
"704 553.655 CURVE",
"704 320 LINE",
"857.214 473.214 LINE",
"908.766 456.954 OFFCURVE",
"965.05 448 OFFCURVE",
"1024 448 CURVE SMOOTH",
"1271.42 448 OFFCURVE",
"1472 605.596 OFFCURVE",
"1472 800 CURVE SMOOTH",
"1472 994.404 OFFCURVE",
"1271.42 1152 OFFCURVE",
"1024 1152 CURVE SMOOTH"
);
}
);
width = 2048;
}
);
unicode = F041;
},
{
glyphname = uniF042;
lastChange = "2014-01-28 14:49:16 +0000";
layers = (
{
layerId = "7A8B565B-8C4A-454F-8A9F-3F36545C59D3";
name = Regular;
paths = (
{
closed = 1;
nodes = (
"776.577 1152 OFFCURVE",
"576 994.404 OFFCURVE",
"576 800 CURVE SMOOTH",
"576 704.091 OFFCURVE",
"624.822 617.143 OFFCURVE",
"704 553.655 CURVE",
"704 320 LINE",
"857.214 473.214 LINE",
"908.766 456.954 OFFCURVE",
"965.05 448 OFFCURVE",
"1024 448 CURVE SMOOTH",
"1271.42 448 OFFCURVE",
"1472 605.596 OFFCURVE",
"1472 800 CURVE SMOOTH",
"1472 994.404 OFFCURVE",
"1271.42 1152 OFFCURVE",
"1024 1152 CURVE SMOOTH"
);
},
{
closed = 1;
nodes = (
"1024 704 LINE",
"896 640 LINE",
"944 784 LINE",
"832 896 LINE",
"960 896 LINE",
"1024 1024 LINE",
"1088 896 LINE",
"1216 896 LINE",
"1104 784 LINE",
"1152 640 LINE"
);
}
);
width = 2048;
}
);
unicode = F042;
},
{
glyphname = uniF043;
lastChange = "2014-01-29 10:17:22 +0000";
layers = (
{
layerId = "7A8B565B-8C4A-454F-8A9F-3F36545C59D3";
name = Regular;
paths = (
{
closed = 1;
nodes = (
"512 768 LINE",
"1024 256 LINE",
"1536 768 LINE",
"1024 1280 LINE"
);
},
{
closed = 1;
nodes = (
"755.2 691.2 LINE",
"844.8 780.8 LINE",
"934.4 691.2 LINE",
"1203.2 960 LINE",
"1292.8 870.4 LINE",
"934.4 512 LINE"
);
}
);
width = 2048;
}
);
unicode = F043;
},
{
glyphname = uniF044;
lastChange = "2014-01-29 10:36:18 +0000";
layers = (
{
layerId = "7A8B565B-8C4A-454F-8A9F-3F36545C59D3";
name = Regular;
paths = (
{
closed = 1;
nodes = (
"1463.38 1006.7 OFFCURVE",
"1365.45 1099.89 OFFCURVE",
"1245.53 1099.89 CURVE SMOOTH",
"1120.34 1099.89 OFFCURVE",
"1018.84 998.407 OFFCURVE",
"1018.84 873.206 CURVE SMOOTH",
"1018.84 872.672 OFFCURVE",
"793.839 782.571 OFFCURVE",
"588.05 987.019 CURVE",
"588.05 987.019 OFFCURVE",
"587.705 748.973 OFFCURVE",
"721.685 676.704 CURVE",
"567.535 652.523 OFFCURVE",
"438.813 715.953 OFFCURVE",
"438.813 715.953 CURVE SMOOTH",
"438.813 715.953 OFFCURVE",
"565.441 430.031 OFFCURVE",
"953.47 430.031 CURVE SMOOTH",
"1240.74 430.031 OFFCURVE",
"1348.85 604.549 OFFCURVE",
"1385.66 695.242 CURVE",
"1618.56 766 LINE",
"1471.45 888.777 LINE"
);
},
{
closed = 1;
nodes = (
"1244.65 832 OFFCURVE",
"1216 860.654 OFFCURVE",
"1216 896 CURVE SMOOTH",
"1216 931.346 OFFCURVE",
"1244.65 960 OFFCURVE",
"1280 960 CURVE SMOOTH",
"1315.35 960 OFFCURVE",
"1344 931.346 OFFCURVE",
"1344 896 CURVE SMOOTH",
"1344 860.654 OFFCURVE",
"1315.35 832 OFFCURVE",
"1280 832 CURVE SMOOTH"
);
}
);
width = 2048;
}
);
unicode = F044;
},
{
glyphname = uniF045;
lastChange = "2014-01-28 14:37:20 +0000";
layers = (
{
layerId = "7A8B565B-8C4A-454F-8A9F-3F36545C59D3";
name = Regular;
paths = (
{
closed = 1;
nodes = (
"1408 1152 LINE",
"1280 1152 LINE",
"1280 1024 LINE",
"1117.96 1024 LINE",
"1108.34 1053.98 OFFCURVE",
"1092.48 1077.91 OFFCURVE",
"1071.21 1091.52 CURVE",
"1128.74 1091.52 LINE",
"1189.23 1149.05 LINE",
"1189.23 1149.05 OFFCURVE",
"993.019 1149.05 OFFCURVE",
"935.484 1149.05 CURVE SMOOTH",
"796.812 1149.05 OFFCURVE",
"680.266 1050.21 OFFCURVE",
"680.266 949.896 CURVE SMOOTH",
"680.266 834.826 OFFCURVE",
"756.98 752.211 OFFCURVE",
"872.049 752.211 CURVE SMOOTH",
"894.178 752.211 OFFCURVE",
"894.178 752.211 OFFCURVE",
"911.881 752.211 CURVE",
"894.178 735.983 OFFCURVE",
"894.178 713.854 OFFCURVE",
"894.178 696.151 CURVE SMOOTH",
"894.178 678.449 OFFCURVE",
"911.881 653.369 OFFCURVE",
"935.484 635.666 CURVE",
"911.881 635.666 OFFCURVE",
"894.178 635.666 OFFCURVE",
"894.178 635.666 CURVE SMOOTH",
"736.325 635.666 OFFCURVE",
"618.305 538.3 OFFCURVE",
"618.305 420.279 CURVE SMOOTH",
"618.305 324.388 OFFCURVE",
"756.98 263.902 OFFCURVE",
"911.881 263.902 CURVE SMOOTH",
"1071.21 263.902 OFFCURVE",
"1189.23 362.744 OFFCURVE",
"1189.23 460.11 CURVE SMOOTH",
"1189.23 538.3 OFFCURVE",
"1171.53 578.132 OFFCURVE",
"1093.34 653.369 CURVE",
"1053.51 678.449 OFFCURVE",
"1012.2 696.151 OFFCURVE",
"1012.2 735.983 CURVE SMOOTH",
"1012.2 752.211 OFFCURVE",
"1012.2 774.341 OFFCURVE",
"1053.51 812.697 CURVE",
"1090.68 827.768 OFFCURVE",
"1112.11 859.268 OFFCURVE",
"1122 896 CURVE",
"1280 896 LINE",
"1280 768 LINE",
"1408 768 LINE",
"1408 896 LINE",
"1536 896 LINE",
"1536 1024 LINE",
"1408 1024 LINE"
);
},
{
closed = 1;
nodes = (
"1108.09 460.11 LINE SMOOTH",
"1108.09 380.446 OFFCURVE",
"1053.51 324.388 OFFCURVE",
"911.881 324.388 CURVE SMOOTH",
"796.812 324.388 OFFCURVE",
"717.148 380.446 OFFCURVE",
"717.148 460.11 CURVE SMOOTH",
"717.148 538.3 OFFCURVE",
"814.514 598.785 OFFCURVE",
"911.881 598.785 CURVE SMOOTH",
"950.237 598.785 OFFCURVE",
"970.891 598.785 OFFCURVE",
"993.019 598.785 CURVE",
"1053.51 557.477 OFFCURVE",
"1093.34 538.3 OFFCURVE",
"1108.09 477.814 CURVE"
);
},
{
closed = 1;
nodes = (
"854.347 792.043 OFFCURVE",
"796.812 854.004 OFFCURVE",
"776.158 949.896 CURVE",
"776.158 1050.21 OFFCURVE",
"814.514 1109.22 OFFCURVE",
"894.178 1109.22 CURVE SMOOTH",
"950.237 1109.22 OFFCURVE",
"1012.2 1028.08 OFFCURVE",
"1031.38 949.896 CURVE SMOOTH",
"1053.51 854.004 OFFCURVE",
"1012.2 792.043 OFFCURVE",
"935.484 792.043 CURVE SMOOTH"
);
}
);
width = 2048;
}
);
unicode = F045;
},
{
glyphname = uniF046;
lastChange = "2014-01-29 10:17:25 +0000";
layers = (
{
layerId = "7A8B565B-8C4A-454F-8A9F-3F36545C59D3";
name = Regular;
paths = (
{
closed = 1;
nodes = (
"896 640 LINE",
"704 640 LINE",
"704 832 LINE",
"896 832 LINE",
"896 832 OFFCURVE",
"896 927.25 OFFCURVE",
"896 960 CURVE SMOOTH",
"896 992.817 OFFCURVE",
"871.503 1223.7 OFFCURVE",
"1152 1223.7 CURVE SMOOTH",
"1189.59 1223.7 OFFCURVE",
"1280 1223.7 OFFCURVE",
"1280 1223.7 CURVE",
"1280 1031.7 LINE",
"1280 1031.7 OFFCURVE",
"1153.47 1031.7 OFFCURVE",
"1152 1031.7 CURVE SMOOTH",
"1123.15 1031.7 OFFCURVE",
"1089.04 996.296 OFFCURVE",
"1088 967.703 CURVE",
"1088 945.364 OFFCURVE",
"1088 832 OFFCURVE",
"1088 832 CURVE",
"1280 832 LINE",
"1216 640 LINE",
"1088 640 LINE",
"1088 256 LINE",
"896 256 LINE"
);
}
);
width = 2048;
}
);
unicode = F046;
},
{
glyphname = uniF047;
lastChange = "2014-01-28 14:34:23 +0000";
layers = (
{
layerId = "7A8B565B-8C4A-454F-8A9F-3F36545C59D3";
name = Regular;
paths = (
{
closed = 1;
nodes = (
"689.253 384.199 OFFCURVE",
"640 433.408 OFFCURVE",
"640 494.17 CURVE SMOOTH",
"640 554.906 OFFCURVE",
"689.253 604.127 OFFCURVE",
"749.982 604.127 CURVE SMOOTH",
"810.685 604.127 OFFCURVE",
"859.958 554.906 OFFCURVE",
"859.958 494.17 CURVE SMOOTH",
"859.958 433.408 OFFCURVE",
"810.685 384.199 OFFCURVE",
"749.982 384.199 CURVE SMOOTH"
);
},
{
closed = 1;
nodes = (
"1024.75 486.308 OFFCURVE",
"984.792 582.227 OFFCURVE",
"912.837 654.543 CURVE SMOOTH",
"840.03 727.706 OFFCURVE",
"743.18 767.966 OFFCURVE",
"640.134 767.966 CURVE",
"640.134 926.755 LINE",
"939.039 926.755 OFFCURVE",
"1182.38 683.644 OFFCURVE",
"1184.55 384 CURVE",
"1025.78 384 LINE"
);
},
{
closed = 1;
nodes = (
"1303.99 751.292 OFFCURVE",
"1006.17 1049.44 OFFCURVE",
"640.358 1049.44 CURVE",
"640.358 1208.2 LINE",
"1093.75 1208.2 OFFCURVE",
"1462.76 838.858 OFFCURVE",
"1465.04 384 CURVE",
"1306.25 384 LINE"
);
}
);
width = 2048;
}
);
unicode = F047;
},
{
glyphname = uniF048;
lastChange = "2014-01-29 10:46:58 +0000";
layers = (
{
layerId = "7A8B565B-8C4A-454F-8A9F-3F36545C59D3";
name = Regular;
paths = (
{
closed = 1;
nodes = (
"1280 1024 LINE SMOOTH",
"1280 1152 OFFCURVE",
"1152 1216 OFFCURVE",
"1024 1216 CURVE SMOOTH",
"896 1216 OFFCURVE",
"768 1152 OFFCURVE",
"768 1024 CURVE SMOOTH",
"768 896 LINE",
"704 896 LINE",
"704 384 LINE",
"1344 384 LINE",
"1344 896 LINE",
"1280 896 LINE"
);
},
{
closed = 1;
nodes = (
"960 512 LINE",
"960 704 LINE",
"1088 704 LINE",
"1088 512 LINE"
);
},
{
closed = 1;
nodes = (
"896 896 LINE",
"896 1024 LINE SMOOTH",
"896 1088 OFFCURVE",
"1024 1088 OFFCURVE",
"1024 1088 CURVE SMOOTH",
"1024 1088 OFFCURVE",
"1152 1088 OFFCURVE",
"1152 1024 CURVE SMOOTH",
"1152 896 LINE"
);
}
);
width = 2048;
}
);
unicode = F048;
},
{
glyphname = uniF049;
lastChange = "2014-01-28 14:32:08 +0000";
layers = (
{
layerId = "7A8B565B-8C4A-454F-8A9F-3F36545C59D3";
name = Regular;
paths = (
{
closed = 1;
nodes = (
"1408 1152 OFFCURVE",
"1302.9 1088 OFFCURVE",
"1216 1088 CURVE SMOOTH",
"1129.11 1088 OFFCURVE",
"1024 1152 OFFCURVE",
"1024 1152 CURVE SMOOTH",
"1024 1152 OFFCURVE",
"920.794 1088 OFFCURVE",
"832 1088 CURVE SMOOTH",
"743.206 1088 OFFCURVE",
"640 1152 OFFCURVE",
"640 1152 CURVE SMOOTH",
"640 1152 OFFCURVE",
"632.562 1078.33 OFFCURVE",
"632.562 983.415 CURVE SMOOTH",
"632.562 740.803 OFFCURVE",
"710.269 587.455 OFFCURVE",
"815.329 501.029 CURVE SMOOTH",
"878.37 449.17 OFFCURVE",
"981.682 384 OFFCURVE",
"1024 384 CURVE SMOOTH",
"1066.34 384 OFFCURVE",
"1168.56 449.373 OFFCURVE",
"1232.12 501.647 CURVE SMOOTH",
"1337.35 588.256 OFFCURVE",
"1415.44 740.803 OFFCURVE",
"1415.44 983.415 CURVE SMOOTH",
"1415.44 1076.83 OFFCURVE",
"1408 1152 OFFCURVE",
"1408 1152 CURVE SMOOTH"
);
},
{
closed = 1;
nodes = (
"832 768 LINE",
"896 832 LINE",
"960 768 LINE",
"1152 960 LINE",
"1216 896 LINE",
"960 640 LINE"
);
}
);
width = 2048;
}
);
unicode = F049;
},
{
glyphname = uniF050;
lastChange = "2014-01-29 10:33:51 +0000";
layers = (
{
layerId = "7A8B565B-8C4A-454F-8A9F-3F36545C59D3";
name = Regular;
paths = (
{
closed = 1;
nodes = (
"1152 1088 LINE",
"1216 1088 LINE",
"1216 1216 LINE",
"832 1216 LINE",
"832 1088 LINE",
"896 1088 LINE",
"896 960 LINE",
"832 960 OFFCURVE",
"768 960 OFFCURVE",
"768 832 CURVE SMOOTH",
"768 448 LINE SMOOTH",
"768 412.592 OFFCURVE",
"796.592 384 OFFCURVE",
"832 384 CURVE SMOOTH",
"1216 384 LINE SMOOTH",
"1251.41 384 OFFCURVE",
"1280 412.592 OFFCURVE",
"1280 448 CURVE SMOOTH",
"1280 832 LINE SMOOTH",
"1280 960 OFFCURVE",
"1216 960 OFFCURVE",
"1152 960 CURVE"
);
},
{
closed = 1;
nodes = (
"832 640 LINE",
"896 704 LINE",
"960 640 LINE",
"1152 832 LINE",
"1216 768 LINE",
"960 512 LINE"
);
}
);
width = 2048;
}
);
unicode = F050;
},
{
glyphname = uniF051;
lastChange = "2014-01-28 14:26:44 +0000";
layers = (
{
layerId = "7A8B565B-8C4A-454F-8A9F-3F36545C59D3";
name = Regular;
paths = (
{
closed = 1;
nodes = (
"1344 1088 LINE",
"1090.27 1216 LINE",
"832 1088 LINE",
"832 896 LINE",
"704 896 LINE",
"704 704 LINE",
"832 704 LINE",
"832 512 LINE",
"704 576 LINE",
"640 448 LINE",
"896 320 LINE",
"1024 448 LINE",
"1024 704 LINE",
"1152 704 LINE",
"1152 448 LINE",
"1344 320 LINE",
"1472 448 LINE",
"1344 512 LINE"
);
},
{
closed = 1;
nodes = (
"1024 896 LINE",
"1024 1024 LINE",
"1152 960 LINE",
"1152 896 LINE"
);
}
);
width = 2048;
}
);
unicode = F051;
},
{
glyphname = uniF052;
lastChange = "2014-01-28 14:22:05 +0000";
layers = (
{
layerId = "7A8B565B-8C4A-454F-8A9F-3F36545C59D3";
name = Regular;
paths = (
{
closed = 1;
nodes = (
"926.878 1047.88 OFFCURVE",
"926.461 1048.34 OFFCURVE",
"926.013 1048.84 CURVE SMOOTH",
"920.938 1054.44 OFFCURVE",
"915.537 1060.27 OFFCURVE",
"909.928 1066.16 CURVE",
"909.85 1066.23 OFFCURVE",
"909.806 1066.28 OFFCURVE",
"909.806 1066.28 CURVE SMOOTH",
"909.806 1066.29 LINE",
"863.003 1115.44 OFFCURVE",
"801.66 1168.86 OFFCURVE",
"790.774 1128.96 CURVE SMOOTH",
"778.579 1084.24 OFFCURVE",
"790.996 1013.72 OFFCURVE",
"823.316 948.399 CURVE SMOOTH",
"855.64 883.082 OFFCURVE",
"894.694 843.356 OFFCURVE",
"903.45 829.887 CURVE SMOOTH",
"912.206 816.418 OFFCURVE",
"913.552 790.83 OFFCURVE",
"912.206 778.036 CURVE SMOOTH",
"911.456 770.953 OFFCURVE",
"906.374 760.372 OFFCURVE",
"900.614 752.212 CURVE",
"900.621 752.206 LINE SMOOTH",
"900.621 752.206 OFFCURVE",
"898.866 749.178 OFFCURVE",
"894.799 745.123 CURVE SMOOTH",
"894.597 744.919 OFFCURVE",
"894.398 744.712 OFFCURVE",
"894.2 744.521 CURVE",
"881.7 743.571 LINE",
"860.582 759.422 OFFCURVE",
"782.459 826.81 OFFCURVE",
"577.696 796.259 CURVE SMOOTH",
"553.518 792.653 OFFCURVE",
"531.695 787.011 OFFCURVE",
"512 779.636 CURVE",
"512 255.835 LINE",
"1122.63 255.835 LINE",
"1144.78 298.81 OFFCURVE",
"1168.4 350.508 OFFCURVE",
"1182.23 398.245 CURVE SMOOTH",
"1188.52 419.94 OFFCURVE",
"1199.44 459.466 OFFCURVE",
"1207.52 475.011 CURVE",
"1228.02 486.06 LINE",
"1228.03 486.06 LINE",
"1252.56 492.373 OFFCURVE",
"1298.43 502.741 OFFCURVE",
"1320.27 526.191 CURVE SMOOTH",
"1347.88 555.819 OFFCURVE",
"1345.87 571.31 OFFCURVE",
"1345.87 571.31 CURVE SMOOTH",
"1345.87 571.31 OFFCURVE",
"1364.04 590.163 OFFCURVE",
"1362.03 611.71 CURVE SMOOTH",
"1360 633.257 OFFCURVE",
"1345.19 650.765 OFFCURVE",
"1345.19 650.765 CURVE SMOOTH",
"1345.19 650.765 OFFCURVE",
"1351.26 753.12 OFFCURVE",
"1269.77 827.865 CURVE SMOOTH",
"1198.85 892.922 OFFCURVE",
"1118.26 907.474 OFFCURVE",
"1084.35 916.815 CURVE",
"1084.34 916.815 LINE SMOOTH",
"1084.34 916.815 OFFCURVE",
"1084.29 916.83 OFFCURVE",
"1084.28 916.831 CURVE",
"1080.27 917.935 OFFCURVE",
"1076.93 918.972 OFFCURVE",
"1074.33 920.007 CURVE",
"1071.45 928.508 LINE",
"1067.72 956.731 OFFCURVE",
"1048.18 1102.22 OFFCURVE",
"1037.16 1141.94 CURVE SMOOTH",
"1024.96 1185.88 OFFCURVE",
"995.919 1237.87 OFFCURVE",
"973.731 1204.58 CURVE SMOOTH",
"946.381 1163.55 OFFCURVE",
"938.144 1068.51 OFFCURVE",
"937.091 1035.84 CURVE",
"927.301 1047.41 LINE SMOOTH"
);
},
{
closed = 1;
nodes = (
"1238.05 729.996 OFFCURVE",
"1232.52 673.56 OFFCURVE",
"1230.3 664.711 CURVE",
"1230.3 664.711 OFFCURVE",
"1132.93 632.621 OFFCURVE",
"1114.11 726.679 CURVE",
"1114.11 726.679 OFFCURVE",
"1131.82 756.557 OFFCURVE",
"1184.93 743.277 CURVE SMOOTH"
);
}
);
width = 2048;
}
);
unicode = F052;
},
{
glyphname = uniF053;
lastChange = "2014-01-28 14:19:33 +0000";
layers = (
{
layerId = "7A8B565B-8C4A-454F-8A9F-3F36545C59D3";
name = Regular;
paths = (
{
closed = 1;
nodes = (
"1314.46 696.288 OFFCURVE",
"1337.34 806.306 OFFCURVE",
"1339.09 819.375 CURVE SMOOTH",
"1340.83 832.444 OFFCURVE",
"1373.06 917.815 OFFCURVE",
"1380.9 960.494 CURVE SMOOTH",
"1388.74 1003.18 OFFCURVE",
"1395.71 1141.69 OFFCURVE",
"1356.5 1166.08 CURVE SMOOTH",
"1317.31 1190.47 OFFCURVE",
"1241.52 1110.33 OFFCURVE",
"1230.2 1097.26 CURVE SMOOTH",
"1220.37 1085.92 OFFCURVE",
"1162.67 1017.52 OFFCURVE",
"1147.59 999.642 CURVE",
"1147.59 999.642 OFFCURVE",
"1119.27 1012.4 OFFCURVE",
"1070 1017.84 CURVE SMOOTH",
"990.43 1026.61 OFFCURVE",
"996.721 1019.96 OFFCURVE",
"996.721 1019.96 CURVE",
"989.113 1037.18 OFFCURVE",
"955.41 1113.9 OFFCURVE",
"945.34 1135.59 CURVE SMOOTH",
"934.017 1159.98 OFFCURVE",
"889.588 1223.57 OFFCURVE",
"847.774 1214.86 CURVE SMOOTH",
"805.962 1206.15 OFFCURVE",
"765.019 1075.48 OFFCURVE",
"763.278 1047.6 CURVE SMOOTH",
"761.531 1019.73 OFFCURVE",
"764.146 911.714 OFFCURVE",
"750.208 846.376 CURVE SMOOTH",
"740.659 801.606 OFFCURVE",
"742.545 748.246 OFFCURVE",
"744.602 703.644 CURVE SMOOTH",
"751 564.836 OFFCURVE",
"689.002 523.878 OFFCURVE",
"676.162 501.417 CURVE SMOOTH",
"662.225 477.024 OFFCURVE",
"592.539 396.009 OFFCURVE",
"541.142 364.647 CURVE SMOOTH",
"512.003 346.871 OFFCURVE",
"509.746 296.899 OFFCURVE",
"513.253 255.835 CURVE",
"1248.8 255.835 LINE",
"1252.04 283.045 OFFCURVE",
"1260.84 351.474 OFFCURVE",
"1261.55 404.725 CURVE SMOOTH",
"1262.26 457.793 OFFCURVE",
"1237.02 517.205 OFFCURVE",
"1227.73 539.165 CURVE",
"1227.73 539.165 OFFCURVE",
"1283 582.836 OFFCURVE",
"1305.11 662.573 CURVE SMOOTH"
);
},
{
closed = 1;
nodes = (
"993.352 726.095 OFFCURVE",
"943.494 706.873 OFFCURVE",
"903.247 730.297 CURVE SMOOTH",
"862.995 753.723 OFFCURVE",
"879.816 796.976 OFFCURVE",
"879.816 796.976 CURVE SMOOTH",
"879.816 796.976 OFFCURVE",
"912.259 827.613 OFFCURVE",
"960.315 804.784 CURVE SMOOTH",
"1008.37 781.958 OFFCURVE",
"993.352 726.095 OFFCURVE",
"993.352 726.095 CURVE SMOOTH"
);
},
{
closed = 1;
nodes = (
"1128.98 690.204 OFFCURVE",
"1113.04 721.471 OFFCURVE",
"1113.04 721.471 CURVE SMOOTH",
"1113.04 721.471 OFFCURVE",
"1118.56 775.427 OFFCURVE",
"1167 785.235 CURVE SMOOTH",
"1215.43 795.045 OFFCURVE",
"1233.21 762.548 OFFCURVE",
"1233.21 762.548 CURVE SMOOTH",
"1233.21 762.548 OFFCURVE",
"1236.89 707.372 OFFCURVE",
"1182.94 698.791 CURVE SMOOTH"
);
}
);
width = 2048;
}
);
unicode = F053;
},
{
glyphname = uniF054;
lastChange = "2016-08-25 09:40:04 +0000";
layers = (
{
layerId = "7A8B565B-8C4A-454F-8A9F-3F36545C59D3";
name = Regular;
paths = (
{
closed = 1;
nodes = (
"1090.85 487.087 OFFCURVE",
"1182.89 453.995 OFFCURVE",
"1295.04 484.599 CURVE SMOOTH",
"1365.15 503.724 OFFCURVE",
"1388.25 522.035 OFFCURVE",
"1405.78 553.114 CURVE",
"1405.78 553.114 OFFCURVE",
"1445.62 581 OFFCURVE",
"1446.42 600.121 CURVE SMOOTH",
"1447.21 619.241 OFFCURVE",
"1432.87 631.194 OFFCURVE",
"1416.94 637.573 CURVE SMOOTH",
"1401 643.943 OFFCURVE",
"1238.7 728.685 OFFCURVE",
"1182.44 773.601 CURVE SMOOTH",
"1149 800.301 OFFCURVE",
"1140.73 859.365 OFFCURVE",
"1097.36 896.173 CURVE SMOOTH",
"1057.85 929.708 OFFCURVE",
"1012.57 964.065 OFFCURVE",
"997 1001.84 CURVE SMOOTH",
"988.148 1023.31 OFFCURVE",
"998.793 1102.32 OFFCURVE",
"998 1123.84 CURVE SMOOTH",
"997.2 1145.34 OFFCURVE",
"984.192 1201 OFFCURVE",
"972.701 1212.81 CURVE SMOOTH",
"961.206 1224.62 OFFCURVE",
"958.762 1206.35 OFFCURVE",
"950 1184.84 CURVE SMOOTH",
"944.644 1171.69 OFFCURVE",
"925.511 1037.35 OFFCURVE",
"925.511 1037.35 CURVE",
"930.386 1097.05 OFFCURVE",
"925.646 1145.53 OFFCURVE",
"925.519 1146.83 CURVE SMOOTH",
"923.664 1164.66 OFFCURVE",
"919.969 1191.64 OFFCURVE",
"914.198 1196.88 CURVE SMOOTH",
"905.434 1204.84 OFFCURVE",
"895.076 1202.45 OFFCURVE",
"884.72 1175.37 CURVE SMOOTH",
"874.359 1148.27 OFFCURVE",
"836.119 1063.02 OFFCURVE",
"806.64 1031.15 CURVE SMOOTH",
"777.159 999.285 OFFCURVE",
"665.618 841.529 OFFCURVE",
"640.917 822.413 CURVE SMOOTH",
"628.586 812.863 OFFCURVE",
"572.159 769.15 OFFCURVE",
"512 721.424 CURVE",
"512 255.835 LINE",
"932.524 255.835 LINE",
"942.882 283.485 OFFCURVE",
"950.577 307.548 OFFCURVE",
"952.445 322.055 CURVE SMOOTH",
"959.613 377.838 OFFCURVE",
"1046.85 491.103 OFFCURVE",
"1046.85 491.103 CURVE",
"1037.64 493.31 OFFCURVE",
"1066.52 495.938 OFFCURVE",
"1078.68 491.512 CURVE SMOOTH"
);
},
{
closed = 1;
nodes = (
"1012.29 711.756 OFFCURVE",
"983.859 735.768 OFFCURVE",
"983.859 735.768 CURVE",
"993.562 737.229 OFFCURVE",
"1069.69 784.543 OFFCURVE",
"1069.69 784.543 CURVE",
"1092.23 710.743 OFFCURVE",
"1044.36 706.852 OFFCURVE",
"1044.36 706.852 CURVE"
);
}
);
width = 2048;
}
);
unicode = F054;
},
{
glyphname = uniF055;
lastChange = "2016-08-25 09:40:31 +0000";
layers = (
{
layerId = "7A8B565B-8C4A-454F-8A9F-3F36545C59D3";
name = Regular;
paths = (
{
closed = 1;
nodes = (
"1057.98 1108.68 OFFCURVE",
"1026.13 1094.2 OFFCURVE",
"1026.13 1096.35 CURVE SMOOTH",
"1026.13 1098.56 OFFCURVE",
"1023.18 1129.51 OFFCURVE",
"1020.96 1153.08 CURVE SMOOTH",
"1018.75 1176.66 OFFCURVE",
"1029.07 1220.14 OFFCURVE",
"1018.02 1215.72 CURVE",
"973.066 1188.45 OFFCURVE",
"939.912 1107.4 OFFCURVE",
"939.912 1107.4 CURVE SMOOTH",
"939.912 1107.4 OFFCURVE",
"852.221 1118.45 OFFCURVE",
"721.059 1098.56 CURVE SMOOTH",
"653.854 1088.36 OFFCURVE",
"579.125 1056.69 OFFCURVE",
"512 1023.77 CURVE",
"512 255.835 LINE",
"616.03 255.835 LINE",
"625.354 285.802 OFFCURVE",
"636.828 333.155 OFFCURVE",
"636.319 381.58 CURVE SMOOTH",
"635.584 451.585 OFFCURVE",
"651.793 471.804 OFFCURVE",
"704.111 541.482 CURVE SMOOTH",
"747.643 599.46 OFFCURVE",
"866.371 670.019 OFFCURVE",
"872.427 660.368 CURVE",
"923.481 589.375 OFFCURVE",
"995.911 579.799 OFFCURVE",
"995.911 579.799 CURVE SMOOTH",
"995.911 579.799 OFFCURVE",
"995.911 572.43 OFFCURVE",
"1007.7 548.113 CURVE SMOOTH",
"1019.49 523.796 OFFCURVE",
"1096.13 437.581 OFFCURVE",
"1109.39 424.319 CURVE SMOOTH",
"1122.65 411.055 OFFCURVE",
"1114.55 391.897 OFFCURVE",
"1130.02 374.949 CURVE SMOOTH",
"1139.91 364.122 OFFCURVE",
"1149.92 361.942 OFFCURVE",
"1158.16 361.616 CURVE",
"1153.02 377.181 OFFCURVE",
"1160 409.836 OFFCURVE",
"1160 409.836 CURVE",
"1162.27 393.787 OFFCURVE",
"1177.14 365.103 OFFCURVE",
"1181 361.836 CURVE",
"1206.04 342.74 OFFCURVE",
"1232.88 357.398 OFFCURVE",
"1246.45 361.685 CURVE SMOOTH",
"1260.45 366.104 OFFCURVE",
"1267.08 385.263 OFFCURVE",
"1268.56 400.003 CURVE SMOOTH",
"1270.03 414.74 OFFCURVE",
"1300.98 456.74 OFFCURVE",
"1307.61 464.112 CURVE SMOOTH",
"1314.24 471.478 OFFCURVE",
"1312.03 483.268 OFFCURVE",
"1307.61 494.321 CURVE SMOOTH",
"1303.19 505.374 OFFCURVE",
"1278.13 548.113 OFFCURVE",
"1270.03 566.534 CURVE SMOOTH",
"1261.92 584.957 OFFCURVE",
"1243.5 660.116 OFFCURVE",
"1239.82 678.54 CURVE SMOOTH",
"1236.13 696.96 OFFCURVE",
"1222.13 780.227 OFFCURVE",
"1226.55 803.071 CURVE SMOOTH",
"1230.98 825.916 OFFCURVE",
"1247.18 859.811 OFFCURVE",
"1242.03 878.233 CURVE SMOOTH",
"1236.87 896.654 OFFCURVE",
"1214.03 924.654 OFFCURVE",
"1199.29 937.917 CURVE SMOOTH",
"1184.55 951.182 OFFCURVE",
"1184.18 967.394 OFFCURVE",
"1184.18 967.394 CURVE",
"1207.4 961.498 OFFCURVE",
"1208.13 967.394 OFFCURVE",
"1208.13 967.394 CURVE",
"1181.6 970.339 OFFCURVE",
"1160.23 1024.87 OFFCURVE",
"1160.23 1024.87 CURVE",
"1180.87 1046.97 OFFCURVE",
"1197.08 1085.29 OFFCURVE",
"1197.81 1126.56 CURVE SMOOTH",
"1198.55 1167.82 OFFCURVE",
"1189.71 1199.51 OFFCURVE",
"1183.08 1200.25 CURVE SMOOTH",
"1176.45 1200.98 OFFCURVE",
"1171.29 1186.98 OFFCURVE",
"1154.34 1151.61 CURVE SMOOTH",
"1140.94 1123.64 OFFCURVE",
"1116.64 1104.28 OFFCURVE",
"1105.84 1096.5 CURVE",
"1094.84 1092.78 LINE"
);
},
{
closed = 1;
nodes = (
"993.29 842.007 OFFCURVE",
"1009.34 879.614 OFFCURVE",
"1041.75 875.428 CURVE SMOOTH",
"1067.64 872.082 OFFCURVE",
"1072.36 848.611 OFFCURVE",
"1075.7 836.917 CURVE SMOOTH",
"1079.04 825.227 OFFCURVE",
"1086.86 811.935 OFFCURVE",
"1086.86 811.935 CURVE",
"1017.52 767.653 OFFCURVE",
"981.599 843.679 OFFCURVE",
"981.599 843.679 CURVE"
);
}
);
width = 2048;
}
);
unicode = F055;
},
{
glyphname = uniF056;
lastChange = "2016-08-25 09:34:31 +0000";
layers = (
{
layerId = "7A8B565B-8C4A-454F-8A9F-3F36545C59D3";
name = Regular;
paths = (
{
closed = 1;
nodes = (
"511 256.802 LINE",
"917.113 256.802 LINE",
"928.205 261.795 OFFCURVE",
"934.744 264.754 OFFCURVE",
"934.744 264.754 CURVE SMOOTH",
"934.744 264.754 OFFCURVE",
"1038.14 409.917 OFFCURVE",
"1050.67 434.981 CURVE SMOOTH",
"1063.2 460.047 OFFCURVE",
"1130.04 550.904 OFFCURVE",
"1141.53 565.524 CURVE SMOOTH",
"1148.72 574.681 OFFCURVE",
"1152.84 588.155 OFFCURVE",
"1163.97 596.722 CURVE",
"1182.52 605.412 LINE",
"1184.95 605.329 OFFCURVE",
"1187.51 604.786 OFFCURVE",
"1190.2 603.731 CURVE",
"1201.84 601.345 OFFCURVE",
"1209.83 600.462 OFFCURVE",
"1209.83 600.462 CURVE",
"1226.21 599.132 OFFCURVE",
"1252 599.623 OFFCURVE",
"1280.43 609.398 CURVE SMOOTH",
"1320 623 OFFCURVE",
"1320.55 641.161 OFFCURVE",
"1320.55 641.161 CURVE SMOOTH",
"1320.55 641.161 OFFCURVE",
"1313.25 653.693 OFFCURVE",
"1284 661 CURVE SMOOTH",
"1254.76 668.313 OFFCURVE",
"1211 768 OFFCURVE",
"1211 768 CURVE SMOOTH",
"1211 768 OFFCURVE",
"1266 736.483 OFFCURVE",
"1295.06 721.144 CURVE SMOOTH",
"1309.66 713.434 OFFCURVE",
"1335.79 703.387 OFFCURVE",
"1335.79 703.387 CURVE SMOOTH",
"1335.79 703.387 OFFCURVE",
"1357.72 692.942 OFFCURVE",
"1355.63 673.102 CURVE SMOOTH",
"1353.53 653.258 OFFCURVE",
"1335.79 546.735 OFFCURVE",
"1335.79 546.735 CURVE SMOOTH",
"1335.79 546.735 OFFCURVE",
"1435 595.821 OFFCURVE",
"1471.55 730.539 CURVE SMOOTH",
"1508.1 865.264 OFFCURVE",
"1414.11 936.277 OFFCURVE",
"1414.11 936.277 CURVE SMOOTH",
"1414.11 936.277 OFFCURVE",
"1414.14 936.331 OFFCURVE",
"1414.2 936.426 CURVE",
"1414.2 936.426 OFFCURVE",
"1416 1161 OFFCURVE",
"1106.02 1185.88 CURVE",
"1106.02 1185.88 OFFCURVE",
"1046.37 1191.67 OFFCURVE",
"1014 1223 CURVE",
"1014 1223 OFFCURVE",
"997.731 1189.36 OFFCURVE",
"1004 1181 CURVE",
"1004 1181 OFFCURVE",
"927.504 1195.85 OFFCURVE",
"892 1223 CURVE",
"892 1223 OFFCURVE",
"898.685 1167.13 OFFCURVE",
"906 1164 CURVE",
"906 1164 OFFCURVE",
"866.461 1173.4 OFFCURVE",
"832 1164 CURVE SMOOTH",
"797.535 1154.6 OFFCURVE",
"808.381 1104.42 OFFCURVE",
"766.606 1100.24 CURVE",
"766.606 1100.24 OFFCURVE",
"773.918 1090.84 OFFCURVE",
"794.801 1091.88 CURVE",
"794.801 1091.88 OFFCURVE",
"722.74 1058.46 OFFCURVE",
"703.943 1020.87 CURVE SMOOTH",
"685.144 983.275 OFFCURVE",
"654.856 920.607 OFFCURVE",
"637.1 907.036 CURVE SMOOTH",
"621.43 895.047 OFFCURVE",
"550.424 852.141 OFFCURVE",
"511 826.438 CURVE"
);
},
{
closed = 1;
nodes = (
"1087 995.512 OFFCURVE",
"1115.65 1024.17 OFFCURVE",
"1151 1024.17 CURVE SMOOTH",
"1186.35 1024.17 OFFCURVE",
"1215 995.512 OFFCURVE",
"1215 960.165 CURVE SMOOTH",
"1215 924.818 OFFCURVE",
"1186.35 896.165 OFFCURVE",
"1151 896.165 CURVE SMOOTH",
"1115.65 896.165 OFFCURVE",
"1087 924.818 OFFCURVE",
"1087 960.165 CURVE SMOOTH"
);
}
);
width = 2048;
}
);
unicode = F056;
},
{
glyphname = uniF057;
lastChange = "2014-01-29 10:57:27 +0000";
layers = (
{
layerId = "7A8B565B-8C4A-454F-8A9F-3F36545C59D3";
name = Regular;
paths = (
{
closed = 1;
nodes = (
"1080.83 1045.08 OFFCURVE",
"1088 1216 OFFCURVE",
"1088 1216 CURVE",
"1024.8 1116.7 OFFCURVE",
"948.432 1213.59 OFFCURVE",
"831.072 1186.51 CURVE SMOOTH",
"713.712 1159.43 OFFCURVE",
"736 1056 OFFCURVE",
"736 1056 CURVE SMOOTH",
"736 1056 OFFCURVE",
"776.91 1096.25 OFFCURVE",
"849.13 1084.19 CURVE SMOOTH"
);
},
{
closed = 1;
nodes = (
"1088 640 LINE",
"1088 832 LINE",
"832 640 LINE",
"832 992 LINE",
"704 992 LINE",
"704 384 LINE",
"1344 384 LINE",
"1344 832 LINE"
);
}
);
width = 2048;
}
);
unicode = F057;
},
{
glyphname = uniF058;
lastChange = "2014-01-28 14:06:49 +0000";
layers = (
{
layerId = "7A8B565B-8C4A-454F-8A9F-3F36545C59D3";
name = Regular;
paths = (
{
closed = 1;
nodes = (
"821 671.836 OFFCURVE",
"712 713.836 OFFCURVE",
"710.888 748.785 CURVE SMOOTH",
"710.593 758.062 OFFCURVE",
"717.281 766.963 OFFCURVE",
"728.993 775.199 CURVE",
"728.985 775.43 OFFCURVE",
"728.958 775.659 OFFCURVE",
"728.958 775.891 CURVE SMOOTH",
"728.958 776.851 OFFCURVE",
"730.646 777.656 OFFCURVE",
"733.761 778.326 CURVE",
"774.595 803.543 OFFCURVE",
"866.12 821.95 OFFCURVE",
"975.551 825.102 CURVE",
"1011.93 897.854 LINE",
"794.129 898.388 OFFCURVE",
"575.363 838.515 OFFCURVE",
"575.363 718.227 CURVE SMOOTH",
"575.363 478.711 OFFCURVE",
"769.529 284.545 OFFCURVE",
"1009.04 284.545 CURVE SMOOTH",
"1248.56 284.545 OFFCURVE",
"1442.72 478.711 OFFCURVE",
"1442.72 718.227 CURVE SMOOTH",
"1442.72 762.631 OFFCURVE",
"1412.91 798.8 OFFCURVE",
"1364.34 826.74 CURVE",
"1364.34 826.74 OFFCURVE",
"1335.93 760.448 OFFCURVE",
"1301.07 733.227 CURVE SMOOTH",
"1266 705.836 OFFCURVE",
"1228.12 706.575 OFFCURVE",
"1191.58 696.476 CURVE",
"1307.73 866.366 OFFCURVE",
"1478.18 1115.67 OFFCURVE",
"1478.5 1116.23 CURVE SMOOTH",
"1498.32 1150.88 OFFCURVE",
"1438.1 1201.78 OFFCURVE",
"1403.45 1221.6 CURVE SMOOTH",
"1368.8 1241.41 OFFCURVE",
"1294.4 1267.5 OFFCURVE",
"1274.58 1232.85 CURVE SMOOTH",
"973 671.987 LINE"
);
}
);
width = 2048;
}
);
unicode = F058;
},
{
glyphname = uniF059;
lastChange = "2014-01-28 14:01:57 +0000";
layers = (
{
layerId = "7A8B565B-8C4A-454F-8A9F-3F36545C59D3";
name = Regular;
paths = (
{
closed = 1;
nodes = (
"704 1152 LINE",
"640 1088 LINE",
"640 768 LINE",
"1088 320 LINE",
"1472 704 LINE",
"1024 1152 LINE"
);
},
{
closed = 1;
nodes = (
"796.654 896 OFFCURVE",
"768 924.654 OFFCURVE",
"768 960 CURVE SMOOTH",
"768 995.346 OFFCURVE",
"796.654 1024 OFFCURVE",
"832 1024 CURVE SMOOTH",
"867.346 1024 OFFCURVE",
"896 995.346 OFFCURVE",
"896 960 CURVE SMOOTH",
"896 924.654 OFFCURVE",
"867.346 896 OFFCURVE",
"832 896 CURVE SMOOTH"
);
}
);
width = 2048;
}
);
unicode = F059;
},
{
glyphname = uniF060;
lastChange = "2014-01-29 10:17:27 +0000";
layers = (
{
layerId = "7A8B565B-8C4A-454F-8A9F-3F36545C59D3";
name = Regular;
paths = (
{
closed = 1;
nodes = (
"1024 1088 LINE",
"1024 832 LINE",
"704 1088 LINE",
"704 448 LINE",
"1024 704 LINE",
"1024 448 LINE",
"1440 768 LINE"
);
}
);
width = 2048;
}
);
unicode = F060;
},
{
glyphname = uniF061;
lastChange = "2014-01-28 13:59:16 +0000";
layers = (
{
layerId = "7A8B565B-8C4A-454F-8A9F-3F36545C59D3";
name = Regular;
paths = (
{
closed = 1;
nodes = (
"1024 448 LINE",
"1024 704 LINE",
"1344 448 LINE",
"1344 1088 LINE",
"1024 832 LINE",
"1024 1088 LINE",
"608 768 LINE"
);
}
);
width = 2048;
}
);
unicode = F061;
},
{
glyphname = uniF062;
lastChange = "2014-01-28 13:58:03 +0000";
layers = (
{
layerId = "7A8B565B-8C4A-454F-8A9F-3F36545C59D3";
name = Regular;
paths = (
{
closed = 1;
nodes = (
"768 896 LINE",
"768 640 LINE",
"960 640 LINE",
"1280 384 LINE",
"1280 1152 LINE",
"960 896 LINE"
);
}
);
width = 2048;
}
);
unicode = F062;
},
{
glyphname = uniF063;
lastChange = "2014-01-28 13:56:17 +0000";
layers = (
{
layerId = "7A8B565B-8C4A-454F-8A9F-3F36545C59D3";
name = Regular;
paths = (
{
closed = 1;
nodes = (
"704 1088 LINE",
"704 448 LINE",
"1344 448 LINE",
"1344 1088 LINE"
);
}
);
width = 2048;
}
);
unicode = F063;
},
{
glyphname = uniF064;
lastChange = "2014-01-28 13:54:22 +0000";
layers = (
{
layerId = "7A8B565B-8C4A-454F-8A9F-3F36545C59D3";
name = Regular;
paths = (
{
closed = 1;
nodes = (
"960 1088 LINE",
"704 1088 LINE",
"704 448 LINE",
"960 448 LINE"
);
},
{
closed = 1;
nodes = (
"1344 1088 LINE",
"1088 1088 LINE",
"1088 448 LINE",
"1344 448 LINE"
);
}
);
width = 2048;
}
);
unicode = F064;
},
{
glyphname = uniF065;
lastChange = "2014-01-29 10:28:35 +0000";
layers = (
{
layerId = "7A8B565B-8C4A-454F-8A9F-3F36545C59D3";
name = Regular;
paths = (
{
closed = 1;
nodes = (
"1120 800 LINE",
"1280 960 LINE",
"1408 832 LINE",
"1408 1152 LINE",
"1088 1152 LINE",
"1216 1024 LINE",
"1056 864 LINE"
);
},
{
closed = 1;
nodes = (
"992 864 LINE",
"832.418 1023.58 LINE",
"960.418 1151.58 LINE",
"640.418 1151.58 LINE",
"639.582 824.582 LINE",
"768.418 959.582 LINE",
"928 800 LINE"
);
},
{
closed = 1;
nodes = (
"928 736 LINE",
"768 576 LINE",
"640 704 LINE",
"640 384 LINE",
"967 383.164 LINE",
"832 512 LINE",
"992 672 LINE"
);
},
{
closed = 1;
nodes = (
"1120 736 LINE",
"1056 672 LINE",
"1216.42 511.582 LINE",
"1088.42 383.582 LINE",
"1408.42 383.582 LINE",
"1408.42 703.582 LINE",
"1280.42 575.582 LINE"
);
}
);
width = 2048;
}
);
unicode = F065;
},
{
glyphname = uniF066;
lastChange = "2014-01-28 13:50:52 +0000";
layers = (
{
layerId = "7A8B565B-8C4A-454F-8A9F-3F36545C59D3";
name = Regular;
paths = (
{
closed = 1;
nodes = (
"960 1088 LINE",
"704 1088 LINE",
"704 832 LINE",
"960 832 LINE"
);
},
{
closed = 1;
nodes = (
"704 448 LINE",
"960 448 LINE",
"960 704 LINE",
"704 704 LINE"
);
},
{
closed = 1;
nodes = (
"1344 1088 LINE",
"1088 1088 LINE",
"1088 832 LINE",
"1344 832 LINE"
);
},
{
closed = 1;
nodes = (
"1088 448 LINE",
"1344 448 LINE",
"1344 704 LINE",
"1088 704 LINE"
);
}
);
width = 2048;
}
);
unicode = F066;
},
{
glyphname = uniF067;
lastChange = "2014-01-28 13:49:38 +0000";
layers = (
{
layerId = "7A8B565B-8C4A-454F-8A9F-3F36545C59D3";
name = Regular;
paths = (
{
closed = 1;
nodes = (
"640 960 LINE",
"1408 960 LINE",
"1408 1088 LINE",
"640 1088 LINE"
);
},
{
closed = 1;
nodes = (
"1408 704 LINE",
"1408 832 LINE",
"640 832 LINE",
"640 704 LINE"
);
},
{
closed = 1;
nodes = (
"1408 448 LINE",
"1408 576 LINE",
"640 576 LINE",
"640 448 LINE"
);
}
);
width = 2048;
}
);
unicode = F067;
},
{
glyphname = uniF068;
lastChange = "2014-01-28 13:48:01 +0000";
layers = (
{
layerId = "7A8B565B-8C4A-454F-8A9F-3F36545C59D3";
name = Regular;
paths = (
{
closed = 1;
nodes = (
"1280 625.615 OFFCURVE",
"1165.38 511 OFFCURVE",
"1024 511 CURVE SMOOTH",
"882.614 511 OFFCURVE",
"768 625.615 OFFCURVE",
"768 767 CURVE SMOOTH",
"768 908.385 OFFCURVE",
"882.614 1023 OFFCURVE",
"1024 1023 CURVE",
"1024 896 LINE",
"1258.65 1071.98 LINE",
"1024 1280 LINE",
"1024 1152 LINE",
"811.922 1152 OFFCURVE",
"640 980.077 OFFCURVE",
"640 768 CURVE SMOOTH",
"640 555.923 OFFCURVE",
"811.922 384 OFFCURVE",
"1024 384 CURVE SMOOTH",
"1236.08 384 OFFCURVE",
"1408 555.923 OFFCURVE",
"1408 768 CURVE",
"1279.99 768 LINE",
"1279.99 767.666 OFFCURVE",
"1280 767.334 OFFCURVE",
"1280 767 CURVE SMOOTH"
);
}
);
width = 2048;
}
);
unicode = F068;
},
{
glyphname = uniF069;
lastChange = "2014-01-29 10:49:01 +0000";
layers = (
{
layerId = "7A8B565B-8C4A-454F-8A9F-3F36545C59D3";
name = Regular;
paths = (
{
closed = 1;
nodes = (
"1024 474.51 LINE",
"794.509 704 LINE",
"1472 704 LINE",
"1472 832 LINE",
"794.51 832 LINE",
"1024 1061.49 LINE",
"933.49 1152 LINE",
"552.707 768 LINE",
"933.49 384 LINE"
);
}
);
width = 2048;
}
);
unicode = F069;
},
{
glyphname = uniF070;
lastChange = "2014-01-29 10:48:37 +0000";
layers = (
{
layerId = "7A8B565B-8C4A-454F-8A9F-3F36545C59D3";
name = Regular;
paths = (
{
closed = 1;
nodes = (
"1024 1061.49 LINE",
"1253.49 832 LINE",
"576 832 LINE",
"576 704 LINE",
"1253.49 704 LINE",
"1024 474.509 LINE",
"1114.51 384 LINE",
"1495.29 768 LINE",
"1114.51 1152 LINE"
);
}
);
width = 2048;
}
);
unicode = F070;
},
{
glyphname = uniF071;
lastChange = "2014-02-05 09:45:59 +0000";
layers = (
{
layerId = "7A8B565B-8C4A-454F-8A9F-3F36545C59D3";
name = Regular;
paths = (
{
closed = 1;
nodes = (
"1317.49 768 LINE",
"1088 538.509 LINE",
"1088 1216 LINE",
"960 1216 LINE",
"960 538.51 LINE",
"730.509 768 LINE",
"640 677.49 LINE",
"1024 296.707 LINE",
"1408 677.49 LINE"
);
}
);
width = 2048;
}
);
unicode = F071;
},
{
glyphname = uniF072;
lastChange = "2014-02-05 09:46:22 +0000";
layers = (
{
layerId = "7A8B565B-8C4A-454F-8A9F-3F36545C59D3";
name = Regular;
paths = (
{
closed = 1;
nodes = (
"730.51 768 LINE",
"960 997.492 LINE",
"960 320 LINE",
"1088 320 LINE",
"1088 997.491 LINE",
"1317.49 768 LINE",
"1408 858.51 LINE",
"1024 1239.29 LINE",
"640 858.51 LINE"
);
}
);
width = 2048;
}
);
unicode = F072;
},
{
glyphname = uniF073;
lastChange = "2014-06-11 11:28:48 +0000";
layers = (
{
layerId = "7A8B565B-8C4A-454F-8A9F-3F36545C59D3";
name = Regular;
paths = (
{
closed = 1;
nodes = (
"1408 1280 OFFCURVE",
"1152 1184 OFFCURVE",
"1024 1150.28 CURVE",
"858.743 1219.41 OFFCURVE",
"687.896 1257.83 OFFCURVE",
"512 1279.36 CURVE",
"512 511.389 LINE",
"686.561 493.444 OFFCURVE",
"858.606 447.841 OFFCURVE",
"1024.04 384.139 CURVE",
"1189.52 447.745 OFFCURVE",
"1361.53 493.328 OFFCURVE",
"1536.08 511.247 CURVE",
"1536.04 1279.39 LINE"
);
},
{
closed = 1;
nodes = (
"960 803.901 LINE",
"960 747.685 LINE",
"937.756 755.014 OFFCURVE",
"912.951 762.797 OFFCURVE",
"886.265 770.552 CURVE SMOOTH",
"798.189 796.15 OFFCURVE",
"714.655 814.213 OFFCURVE",
"639.036 824.196 CURVE",
"639.036 1085 LINE",
"721.452 1074.87 OFFCURVE",
"811.968 1055.52 OFFCURVE",
"909.6 1027.09 CURVE SMOOTH",
"927.307 1021.94 OFFCURVE",
"944.149 1016.79 OFFCURVE",
"960 1011.78 CURVE",
"960 831.767 LINE"
);
},
{
closed = 1;
nodes = (
"1332.83 630.862 OFFCURVE",
"1249.43 612.818 OFFCURVE",
"1161.51 587.264 CURVE SMOOTH",
"1134.91 579.533 OFFCURVE",
"1110.19 571.777 OFFCURVE",
"1088 564.471 CURVE",
"1088 648.549 LINE",
"1103.78 653.541 OFFCURVE",
"1120.55 658.66 OFFCURVE",
"1138.17 663.791 CURVE SMOOTH",
"1235.65 692.172 OFFCURVE",
"1326.04 711.506 OFFCURVE",
"1408.35 721.654 CURVE",
"1408.35 640.854 LINE"
);
},
{
closed = 1;
nodes = (
"1332.83 812.271 OFFCURVE",
"1249.43 794.227 OFFCURVE",
"1161.51 768.672 CURVE SMOOTH",
"1134.91 760.941 OFFCURVE",
"1110.19 753.185 OFFCURVE",
"1088 745.879 CURVE",
"1088 829.957 LINE",
"1103.78 834.949 OFFCURVE",
"1120.55 840.068 OFFCURVE",
"1138.17 845.199 CURVE SMOOTH",
"1235.65 873.58 OFFCURVE",
"1326.04 892.915 OFFCURVE",
"1408.35 903.062 CURVE",
"1408.35 822.263 LINE"
);
},
{
closed = 1;
nodes = (
"1332.83 993.906 OFFCURVE",
"1249.43 975.862 OFFCURVE",
"1161.51 950.308 CURVE SMOOTH",
"1134.91 942.579 OFFCURVE",
"1110.19 934.822 OFFCURVE",
"1088 927.516 CURVE",
"1088 1011.59 LINE",
"1103.78 1016.59 OFFCURVE",
"1120.55 1021.71 OFFCURVE",
"1138.17 1026.84 CURVE SMOOTH",
"1235.65 1055.22 OFFCURVE",
"1326.04 1074.55 OFFCURVE",
"1408.35 1084.7 CURVE",
"1408.35 1003.9 LINE"
);
}
);
width = 2048;
}
);
unicode = F073;
},
{
glyphname = uniF074;
lastChange = "2014-08-20 11:36:29 +0000";
layers = (
{
layerId = "7A8B565B-8C4A-454F-8A9F-3F36545C59D3";
name = Regular;
paths = (
{
closed = 1;
nodes = (
"1536 895.835 LINE",
"1385.2 895.835 LINE",
"1380.72 908.432 OFFCURVE",
"1375.59 920.727 OFFCURVE",
"1369.86 932.677 CURVE",
"1476.55 1039.36 LINE",
"1295.53 1220.38 LINE",
"1188.61 1113.46 LINE",
"1176.73 1119.12 OFFCURVE",
"1164.52 1124.19 OFFCURVE",
"1152 1128.62 CURVE",
"1152 1279.83 LINE",
"896 1279.83 LINE",
"896 1128.62 LINE",
"883.327 1124.13 OFFCURVE",
"870.961 1118.99 OFFCURVE",
"858.94 1113.25 CURVE",
"753.138 1219.05 LINE",
"572.118 1038.03 LINE",
"677.924 932.224 LINE",
"672.282 920.416 OFFCURVE",
"667.229 908.274 OFFCURVE",
"662.797 895.835 CURVE",
"512 895.835 LINE",
"512 639.835 LINE",
"662.327 639.835 LINE",
"666.815 627.091 OFFCURVE",
"671.961 614.658 OFFCURVE",
"677.717 602.571 CURVE",
"571.452 496.307 LINE",
"752.471 315.287 LINE",
"858.503 421.318 LINE",
"870.661 415.49 OFFCURVE",
"883.174 410.283 OFFCURVE",
"896 405.74 CURVE",
"896 255.835 LINE",
"1152 255.835 LINE",
"1152 405.74 LINE",
"1164.67 410.227 OFFCURVE",
"1177.03 415.362 OFFCURVE",
"1189.04 421.103 CURVE",
"1296.2 313.953 LINE",
"1477.21 494.973 LINE",
"1370.07 602.119 LINE",
"1375.91 614.348 OFFCURVE",
"1381.13 626.932 OFFCURVE",
"1385.67 639.835 CURVE",
"1536 639.835 LINE"
);
},
{
closed = 1;
nodes = (
"928.271 594.502 OFFCURVE",
"850.667 672.106 OFFCURVE",
"850.667 767.835 CURVE SMOOTH",
"850.667 863.564 OFFCURVE",
"928.271 941.169 OFFCURVE",
"1024 941.169 CURVE SMOOTH",
"1119.73 941.169 OFFCURVE",
"1197.33 863.564 OFFCURVE",
"1197.33 767.835 CURVE SMOOTH",
"1197.33 672.106 OFFCURVE",
"1119.73 594.502 OFFCURVE",
"1024 594.502 CURVE SMOOTH"
);
}
);
width = 2048;
}
);
unicode = F074;
},
{
glyphname = uniF075;
lastChange = "2014-08-20 11:38:26 +0000";
layers = (
{
layerId = "7A8B565B-8C4A-454F-8A9F-3F36545C59D3";
name = Regular;
paths = (
{
closed = 1;
nodes = (
"937.321 987.105 OFFCURVE",
"908.667 1025.31 OFFCURVE",
"873.32 1025.31 CURVE SMOOTH",
"837.974 1025.31 OFFCURVE",
"809.32 987.105 OFFCURVE",
"809.32 939.977 CURVE SMOOTH",
"809.32 892.849 OFFCURVE",
"837.974 854.644 OFFCURVE",
"873.32 854.644 CURVE SMOOTH",
"908.667 854.644 OFFCURVE",
"937.321 892.849 OFFCURVE",
"937.321 939.977 CURVE SMOOTH"
);
},
{
closed = 1;
nodes = (
"1237.32 987.105 OFFCURVE",
"1208.67 1025.31 OFFCURVE",
"1173.32 1025.31 CURVE SMOOTH",
"1137.97 1025.31 OFFCURVE",
"1109.32 987.105 OFFCURVE",
"1109.32 939.977 CURVE SMOOTH",
"1109.32 892.849 OFFCURVE",
"1137.97 854.644 OFFCURVE",
"1173.32 854.644 CURVE SMOOTH",
"1208.67 854.644 OFFCURVE",
"1237.32 892.849 OFFCURVE",
"1237.32 939.977 CURVE SMOOTH"
);
},
{
closed = 1;
nodes = (
"864.435 948.565 OFFCURVE",
"865.669 949.773 OFFCURVE",
"864.361 949.773 CURVE SMOOTH",
"863.565 949.773 OFFCURVE",
"862.331 948.565 OFFCURVE",
"863.639 948.565 CURVE SMOOTH"
);
},
{
closed = 1;
nodes = (
"741.231 1279.83 OFFCURVE",
"512 1050.6 OFFCURVE",
"512 767.835 CURVE SMOOTH",
"512 485.065 OFFCURVE",
"741.231 255.835 OFFCURVE",
"1024 255.835 CURVE SMOOTH",
"1306.77 255.835 OFFCURVE",
"1536 485.065 OFFCURVE",
"1536 767.835 CURVE SMOOTH",
"1536 1050.6 OFFCURVE",
"1306.77 1279.83 OFFCURVE",
"1024 1279.83 CURVE SMOOTH"
);
},
{
closed = 1;
nodes = (
"776.578 319.835 OFFCURVE",
"576 520.41 OFFCURVE",
"576 767.835 CURVE SMOOTH",
"576 1015.26 OFFCURVE",
"776.578 1215.83 OFFCURVE",
"1024 1215.83 CURVE SMOOTH",
"1271.42 1215.83 OFFCURVE",
"1472 1015.26 OFFCURVE",
"1472 767.835 CURVE SMOOTH",
"1472 520.41 OFFCURVE",
"1271.42 319.835 OFFCURVE",
"1024 319.835 CURVE SMOOTH"
);
},
{
closed = 1;
nodes = (
"1266.65 568.544 OFFCURVE",
"1154.74 487.96 OFFCURVE",
"1024 487.96 CURVE SMOOTH",
"893.257 487.96 OFFCURVE",
"781.346 568.544 OFFCURVE",
"735.195 682.749 CURVE",
"691.96 682.749 LINE",
"740.069 545.742 OFFCURVE",
"870.554 447.505 OFFCURVE",
"1024 447.505 CURVE SMOOTH",
"1177.45 447.505 OFFCURVE",
"1307.93 545.742 OFFCURVE",
"1356.04 682.749 CURVE",
"1312.8 682.749 LINE"
);
}
);
width = 2048;
}
);
unicode = F075;
},
{
glyphname = uniF076;
lastChange = "2014-08-20 11:38:46 +0000";
layers = (
{
layerId = "7A8B565B-8C4A-454F-8A9F-3F36545C59D3";
name = Regular;
paths = (
{
closed = 1;
nodes = (
"940.321 987.105 OFFCURVE",
"911.667 1025.31 OFFCURVE",
"876.32 1025.31 CURVE SMOOTH",
"840.974 1025.31 OFFCURVE",
"812.32 987.105 OFFCURVE",
"812.32 939.977 CURVE SMOOTH",
"812.32 892.849 OFFCURVE",
"840.974 854.644 OFFCURVE",
"876.32 854.644 CURVE SMOOTH",
"911.667 854.644 OFFCURVE",
"940.321 892.849 OFFCURVE",
"940.321 939.977 CURVE SMOOTH"
);
},
{
closed = 1;
nodes = (
"1240.32 987.105 OFFCURVE",
"1211.67 1025.31 OFFCURVE",
"1176.32 1025.31 CURVE SMOOTH",
"1140.97 1025.31 OFFCURVE",
"1112.32 987.105 OFFCURVE",
"1112.32 939.977 CURVE SMOOTH",
"1112.32 892.849 OFFCURVE",
"1140.97 854.644 OFFCURVE",
"1176.32 854.644 CURVE SMOOTH",
"1211.67 854.644 OFFCURVE",
"1240.32 892.849 OFFCURVE",
"1240.32 939.977 CURVE SMOOTH"
);
},
{
closed = 1;
nodes = (
"867.435 948.565 OFFCURVE",
"868.669 949.773 OFFCURVE",
"867.361 949.773 CURVE SMOOTH",
"866.565 949.773 OFFCURVE",
"865.331 948.565 OFFCURVE",
"866.639 948.565 CURVE SMOOTH"
);
},
{
closed = 1;
nodes = (
"744.231 1279.83 OFFCURVE",
"515 1050.6 OFFCURVE",
"515 767.835 CURVE SMOOTH",
"515 485.065 OFFCURVE",
"744.231 255.835 OFFCURVE",
"1027 255.835 CURVE SMOOTH",
"1309.77 255.835 OFFCURVE",
"1539 485.065 OFFCURVE",
"1539 767.835 CURVE SMOOTH",
"1539 1050.6 OFFCURVE",
"1309.77 1279.83 OFFCURVE",
"1027 1279.83 CURVE SMOOTH"
);
},
{
closed = 1;
nodes = (
"779.578 319.835 OFFCURVE",
"579 520.41 OFFCURVE",
"579 767.835 CURVE SMOOTH",
"579 1015.26 OFFCURVE",
"779.578 1215.83 OFFCURVE",
"1027 1215.83 CURVE SMOOTH",
"1274.42 1215.83 OFFCURVE",
"1475 1015.26 OFFCURVE",
"1475 767.835 CURVE SMOOTH",
"1475 520.41 OFFCURVE",
"1274.42 319.835 OFFCURVE",
"1027 319.835 CURVE SMOOTH"
);
},
{
closed = 1;
nodes = (
"863.103 565.685 OFFCURVE",
"941.333 597.501 OFFCURVE",
"1027 597.501 CURVE SMOOTH",
"1112.67 597.501 OFFCURVE",
"1190.9 565.685 OFFCURVE",
"1250.54 513.234 CURVE",
"1312.86 513.234 LINE",
"1242.77 591.934 OFFCURVE",
"1140.68 641.501 OFFCURVE",
"1027 641.501 CURVE SMOOTH",
"913.326 641.501 OFFCURVE",
"811.23 591.934 OFFCURVE",
"741.143 513.234 CURVE",
"803.461 513.234 LINE"
);
}
);
width = 2048;
}
);
unicode = F076;
},
{
glyphname = uniF077;
lastChange = "2014-08-20 16:26:19 +0000";
layers = (
{
layerId = "7A8B565B-8C4A-454F-8A9F-3F36545C59D3";
name = Regular;
paths = (
{
closed = 1;
nodes = (
"1408 1189.58 LINE",
"860.569 1393.32 LINE SMOOTH",
"850.137 1397.44 OFFCURVE",
"753.941 1432.69 OFFCURVE",
"678.302 1362.78 CURVE SMOOTH",
"653.045 1339.45 OFFCURVE",
"638.759 1304.7 OFFCURVE",
"640.086 1269.79 CURVE",
"640 461.926 LINE SMOOTH",
"640 447.791 OFFCURVE",
"648.654 435.08 OFFCURVE",
"661.826 429.909 CURVE",
"1152.6 256.837 LINE",
"1408 384.657 LINE"
);
},
{
closed = 1;
nodes = (
"1217.1 321.823 LINE",
"1216.99 1042.85 LINE",
"1344.5 1107.91 LINE",
"1344 384.472 LINE"
);
},
{
closed = 1;
nodes = (
"708.315 1287.27 OFFCURVE",
"714.498 1302.53 OFFCURVE",
"725.016 1312.25 CURVE SMOOTH",
"770.672 1354.45 OFFCURVE",
"832.575 1330.43 OFFCURVE",
"834.976 1329.45 CURVE SMOOTH",
"835.371 1329.29 OFFCURVE",
"835.752 1329.13 OFFCURVE",
"836.146 1328.99 CURVE SMOOTH",
"1346.36 1140.08 LINE",
"1198.4 1061.69 LINE",
"1197.51 1062.15 OFFCURVE",
"1196.63 1062.65 OFFCURVE",
"1195.7 1063.04 CURVE SMOOTH",
"721.688 1251.87 LINE SMOOTH",
"714.837 1254.79 OFFCURVE",
"709.148 1265.19 OFFCURVE",
"708.88 1272.42 CURVE SMOOTH"
);
}
);
width = 2048;
}
);
unicode = F077;
},
{
glyphname = uniF078;
lastChange = "2014-10-23 11:28:51 +0000";
layers = (
{
layerId = "7A8B565B-8C4A-454F-8A9F-3F36545C59D3";
name = Regular;
paths = (
{
closed = 1;
nodes = (
"1212 1216.01 LINE",
"838 1216.01 LINE",
"776.623 1088 LINE",
"512 1088 LINE",
"512 383.698 LINE",
"1536 383.698 LINE",
"1536 1088 LINE",
"1273.38 1088 LINE"
);
},
{
closed = 1;
nodes = (
"885.929 517.835 OFFCURVE",
"774 629.764 OFFCURVE",
"774 767.835 CURVE SMOOTH",
"774 905.906 OFFCURVE",
"885.929 1017.84 OFFCURVE",
"1024 1017.84 CURVE SMOOTH",
"1162.07 1017.84 OFFCURVE",
"1274 905.906 OFFCURVE",
"1274 767.835 CURVE SMOOTH",
"1274 629.764 OFFCURVE",
"1162.07 517.835 OFFCURVE",
"1024 517.835 CURVE SMOOTH"
);
},
{
closed = 1;
nodes = (
"941.158 917.835 OFFCURVE",
"874 850.678 OFFCURVE",
"874 767.835 CURVE SMOOTH",
"874 684.991 OFFCURVE",
"941.158 617.835 OFFCURVE",
"1024 617.835 CURVE SMOOTH",
"1106.84 617.835 OFFCURVE",
"1174 684.991 OFFCURVE",
"1174 767.835 CURVE SMOOTH",
"1174 850.678 OFFCURVE",
"1106.84 917.835 OFFCURVE",
"1024 917.835 CURVE SMOOTH"
);
}
);
width = 2048;
}
);
unicode = F078;
},
{
glyphname = uniF079;
lastChange = "2014-11-10 13:17:46 +0000";
layers = (
{
layerId = "7A8B565B-8C4A-454F-8A9F-3F36545C59D3";
name = Regular;
paths = (
{
closed = 1;
nodes = (
"1344 944.731 OFFCURVE",
"1200.73 1088 OFFCURVE",
"1024 1088 CURVE SMOOTH",
"847.269 1088 OFFCURVE",
"704 944.731 OFFCURVE",
"704 768 CURVE SMOOTH",
"704 591.269 OFFCURVE",
"847.269 448 OFFCURVE",
"1024 448 CURVE SMOOTH",
"1200.73 448 OFFCURVE",
"1344 591.269 OFFCURVE",
"1344 768 CURVE SMOOTH"
);
}
);
width = 2048;
}
);
unicode = F079;
},
{
glyphname = uniF080;
lastChange = "2014-12-16 18:12:05 +0000";
layers = (
{
layerId = "7A8B565B-8C4A-454F-8A9F-3F36545C59D3";
name = Regular;
paths = (
{
closed = 1;
nodes = (
"959.237 1151.55 LINE",
"959.237 947.534 LINE",
"959.237 947.534 OFFCURVE",
"1534.37 902.919 OFFCURVE",
"1534.37 473.116 CURVE",
"1534.37 473.116 OFFCURVE",
"1466.86 649.516 OFFCURVE",
"1185.71 682.947 CURVE SMOOTH",
"1139.71 688.422 OFFCURVE",
"1069.83 693.787 OFFCURVE",
"959.07 693.787 CURVE",
"959.07 512.024 LINE",
"512 831.767 LINE"
);
}
);
width = 2048;
}
);
unicode = F080;
},
{
glyphname = uniF081;
lastChange = "2015-01-05 15:53:31 +0000";
layers = (
{
layerId = "7A8B565B-8C4A-454F-8A9F-3F36545C59D3";
name = Regular;
paths = (
{
closed = 1;
nodes = (
"704 1152 LINE",
"640 1152 LINE SMOOTH",
"604.654 1152 OFFCURVE",
"576 1123.35 OFFCURVE",
"576 1088 CURVE SMOOTH",
"576 1052.65 OFFCURVE",
"604.654 1024 OFFCURVE",
"640 1024 CURVE SMOOTH",
"704 1024 LINE",
"704 896 LINE",
"640 896 LINE SMOOTH",
"604.654 896 OFFCURVE",
"576 867.346 OFFCURVE",
"576 832 CURVE SMOOTH",
"576 796.654 OFFCURVE",
"604.654 768 OFFCURVE",
"640 768 CURVE SMOOTH",
"704 768 LINE",
"704 640 LINE",
"640 640 LINE SMOOTH",
"604.654 640 OFFCURVE",
"576 611.346 OFFCURVE",
"576 576 CURVE SMOOTH",
"576 540.654 OFFCURVE",
"604.654 512 OFFCURVE",
"640 512 CURVE SMOOTH",
"704 512 LINE",
"704 384 LINE",
"1411 384 LINE",
"1411 1280 LINE",
"704 1280 LINE"
);
},
{
closed = 1;
nodes = (
"829 899 LINE",
"829 1151 LINE",
"1285 1151 LINE",
"1285 899 LINE"
);
}
);
width = 2048;
}
);
unicode = F081;
},
{
glyphname = uniF082;
lastChange = "2015-03-06 15:50:25 +0000";
layers = (
{
layerId = "7A8B565B-8C4A-454F-8A9F-3F36545C59D3";
name = Regular;
paths = (
{
closed = 1;
nodes = (
"1471.28 953.766 LINE",
"1168.35 953.766 LINE SMOOTH",
"1147.32 953.766 OFFCURVE",
"1129.32 949.628 OFFCURVE",
"1115.59 942.044 CURVE SMOOTH",
"1101.91 934.453 OFFCURVE",
"1092.5 923.387 OFFCURVE",
"1088.58 909.58 CURVE SMOOTH",
"1084.83 896.285 OFFCURVE",
"1086.79 883.235 OFFCURVE",
"1093.4 872.537 CURVE SMOOTH",
"1100.04 861.812 OFFCURVE",
"1111.22 853.375 OFFCURVE",
"1125.8 849.196 CURVE SMOOTH",
"1134.64 846.638 OFFCURVE",
"1151.9 841.74 OFFCURVE",
"1166.8 837.444 CURVE SMOOTH",
"1181.8 833.141 OFFCURVE",
"1194.57 829.42 OFFCURVE",
"1194.57 829.42 CURVE",
"1251.48 813.088 OFFCURVE",
"1290.58 787.557 OFFCURVE",
"1312.21 752.349 CURVE SMOOTH",
"1333.78 717.146 OFFCURVE",
"1337.83 672.292 OFFCURVE",
"1324.7 617.307 CURVE SMOOTH",
"1289.69 470.92 OFFCURVE",
"1207.06 397.725 OFFCURVE",
"1120.89 361.128 CURVE SMOOTH",
"1034.7 324.528 OFFCURVE",
"945.08 324.528 OFFCURVE",
"896.007 324.528 CURVE SMOOTH",
"374.81 324.528 LINE",
"451.814 535.958 LINE",
"938.71 535.958 LINE SMOOTH",
"977.742 536.256 OFFCURVE",
"1003.46 538.517 OFFCURVE",
"1020.89 545.539 CURVE SMOOTH",
"1038.35 552.652 OFFCURVE",
"1047.58 564.17 OFFCURVE",
"1053.59 582.08 CURVE SMOOTH",
"1056 589.101 OFFCURVE",
"1057.07 595.704 OFFCURVE",
"1056.89 601.866 CURVE SMOOTH",
"1056.74 607.965 OFFCURVE",
"1055.31 613.676 OFFCURVE",
"1052.7 618.884 CURVE SMOOTH",
"1048.62 626.773 OFFCURVE",
"1042.26 632.45 OFFCURVE",
"1035.14 636.675 CURVE SMOOTH",
"1028 640.933 OFFCURVE",
"1020.12 643.82 OFFCURVE",
"1012.98 645.99 CURVE SMOOTH",
"1000.81 649.68 OFFCURVE",
"981.491 655.333 OFFCURVE",
"965.042 660.093 CURVE SMOOTH",
"948.465 664.798 OFFCURVE",
"934.84 668.725 OFFCURVE",
"933.826 668.958 CURVE",
"907.88 676.903 OFFCURVE",
"883.719 689.269 OFFCURVE",
"863.608 704.471 CURVE SMOOTH",
"843.464 719.673 OFFCURVE",
"827.372 737.748 OFFCURVE",
"817.429 756.883 CURVE SMOOTH",
"809.399 772.608 OFFCURVE",
"805.704 790.697 OFFCURVE",
"806.389 811.978 CURVE SMOOTH",
"807.015 833.174 OFFCURVE",
"812.106 857.574 OFFCURVE",
"821.654 885.942 CURVE SMOOTH",
"865.785 1017.84 OFFCURVE",
"923.114 1083.75 OFFCURVE",
"988.042 1116.74 CURVE SMOOTH",
"1052.97 1149.68 OFFCURVE",
"1125.42 1149.68 OFFCURVE",
"1200.04 1149.68 CURVE SMOOTH",
"1673.19 1149.68 LINE"
);
}
);
width = 2048;
}
);
unicode = F082;
},
{
glyphname = uniF083;
lastChange = "2015-03-16 12:36:43 +0000";
layers = (
{
layerId = "7A8B565B-8C4A-454F-8A9F-3F36545C59D3";
name = Regular;
paths = (
{
closed = 1;
nodes = (
"1147.67 1267.86 OFFCURVE",
"964.585 1085.09 OFFCURVE",
"952.091 856.871 CURVE",
"1180.44 868.845 OFFCURVE",
"1363.53 1051.62 OFFCURVE",
"1376.02 1279.83 CURVE"
);
},
{
closed = 1;
nodes = (
"964.585 578.856 OFFCURVE",
"1147.67 396.079 OFFCURVE",
"1376.02 384.105 CURVE",
"1363.53 612.32 OFFCURVE",
"1180.44 795.085 OFFCURVE",
"952.091 807.059 CURVE"
);
},
{
closed = 1;
nodes = (
"746.369 1279.83 LINE SMOOTH",
"722.087 1279.83 OFFCURVE",
"702.22 1259.97 OFFCURVE",
"702.22 1235.68 CURVE SMOOTH",
"702.22 432.891 LINE SMOOTH",
"702.22 388.731 OFFCURVE",
"702.22 388.731 OFFCURVE",
"746.369 388.731 CURVE SMOOTH",
"853.193 388.731 LINE SMOOTH",
"877.476 388.731 OFFCURVE",
"897.347 408.602 OFFCURVE",
"897.347 432.891 CURVE SMOOTH",
"897.347 1235.68 LINE SMOOTH",
"897.347 1279.83 OFFCURVE",
"897.347 1279.83 OFFCURVE",
"853.193 1279.83 CURVE SMOOTH"
);
}
);
width = 2048;
}
);
unicode = F083;
},
{
glyphname = uniF084;
lastChange = "2015-03-23 11:23:13 +0000";
layers = (
{
layerId = "7A8B565B-8C4A-454F-8A9F-3F36545C59D3";
name = Regular;
paths = (
{
closed = 1;
nodes = (
"1117.49 1146.49 OFFCURVE",
"1129.81 1162.06 OFFCURVE",
"1154.45 1173.67 CURVE",
"1131.25 1199.03 OFFCURVE",
"1095.02 1211.71 OFFCURVE",
"1045.74 1211.71 CURVE SMOOTH",
"1011.67 1211.71 OFFCURVE",
"984.49 1204.1 OFFCURVE",
"964.209 1188.88 CURVE SMOOTH",
"943.91 1173.67 OFFCURVE",
"933.769 1153.01 OFFCURVE",
"933.769 1126.92 CURVE SMOOTH",
"933.769 1101.54 OFFCURVE",
"942.093 1081.8 OFFCURVE",
"958.773 1067.67 CURVE SMOOTH",
"975.437 1053.54 OFFCURVE",
"1019.28 1030.17 OFFCURVE",
"1090.31 997.552 CURVE SMOOTH",
"1138.86 975.08 OFFCURVE",
"1173.29 956.241 OFFCURVE",
"1193.59 941.022 CURVE SMOOTH",
"1213.87 925.802 OFFCURVE",
"1229.09 907.321 OFFCURVE",
"1239.25 885.579 CURVE SMOOTH",
"1245.77 871.073 OFFCURVE",
"1249.03 855.14 OFFCURVE",
"1249.03 837.746 CURVE SMOOTH",
"1249.03 784.103 OFFCURVE",
"1217.51 733.382 OFFCURVE",
"1154.45 685.55 CURVE",
"1181.26 663.076 OFFCURVE",
"1199.57 642.421 OFFCURVE",
"1209.35 623.583 CURVE SMOOTH",
"1219.14 604.729 OFFCURVE",
"1224.03 582.273 OFFCURVE",
"1224.03 556.183 CURVE SMOOTH",
"1224.03 504.731 OFFCURVE",
"1205.17 463.232 OFFCURVE",
"1167.5 431.707 CURVE SMOOTH",
"1129.81 400.181 OFFCURVE",
"1080.16 384.417 OFFCURVE",
"1018.56 384.417 CURVE SMOOTH",
"954.781 384.417 OFFCURVE",
"902.243 399.825 OFFCURVE",
"860.933 430.619 CURVE SMOOTH",
"819.622 461.433 OFFCURVE",
"798.967 500.383 OFFCURVE",
"798.967 547.484 CURVE SMOOTH",
"798.967 574.29 OFFCURVE",
"805.659 595.676 OFFCURVE",
"819.078 611.625 CURVE SMOOTH",
"832.481 627.558 OFFCURVE",
"850.418 635.542 OFFCURVE",
"872.891 635.542 CURVE SMOOTH",
"890.285 635.542 OFFCURVE",
"905.317 629.376 OFFCURVE",
"918.007 617.06 CURVE SMOOTH",
"930.678 604.729 OFFCURVE",
"937.031 590.24 OFFCURVE",
"937.031 573.576 CURVE SMOOTH",
"937.031 551.834 OFFCURVE",
"924.342 534.065 OFFCURVE",
"898.981 520.307 CURVE SMOOTH",
"892.459 516.69 OFFCURVE",
"889.197 513.071 OFFCURVE",
"889.197 509.435 CURVE SMOOTH",
"889.197 500.025 OFFCURVE",
"897.521 490.241 OFFCURVE",
"914.201 480.085 CURVE SMOOTH",
"944.641 461.977 OFFCURVE",
"977.611 452.906 OFFCURVE",
"1013.13 452.906 CURVE SMOOTH",
"1049.36 452.906 OFFCURVE",
"1078.71 461.603 OFFCURVE",
"1101.19 478.997 CURVE SMOOTH",
"1123.64 496.392 OFFCURVE",
"1134.89 519.221 OFFCURVE",
"1134.89 547.484 CURVE SMOOTH",
"1134.89 569.227 OFFCURVE",
"1128.91 586.977 OFFCURVE",
"1116.95 600.754 CURVE SMOOTH",
"1104.99 614.513 OFFCURVE",
"1083.06 629.376 OFFCURVE",
"1051.18 645.325 CURVE SMOOTH",
"966.383 686.637 LINE SMOOTH",
"915.644 711.268 OFFCURVE",
"880.501 731.565 OFFCURVE",
"860.933 747.515 CURVE SMOOTH",
"824.684 777.224 OFFCURVE",
"806.577 811.655 OFFCURVE",
"806.577 850.791 CURVE SMOOTH",
"806.577 903.686 OFFCURVE",
"838.102 954.067 OFFCURVE",
"901.156 1001.9 CURVE",
"862.732 1038.13 OFFCURVE",
"843.538 1076.18 OFFCURVE",
"843.538 1116.05 CURVE SMOOTH",
"843.538 1165.33 OFFCURVE",
"861.289 1204.82 OFFCURVE",
"896.808 1234.54 CURVE SMOOTH",
"932.309 1264.25 OFFCURVE",
"979.785 1279.12 OFFCURVE",
"1039.22 1279.12 CURVE SMOOTH",
"1095.75 1279.12 OFFCURVE",
"1142.85 1265.88 OFFCURVE",
"1180.54 1239.44 CURVE SMOOTH",
"1218.22 1212.97 OFFCURVE",
"1237.08 1180.54 OFFCURVE",
"1237.08 1142.14 CURVE SMOOTH",
"1237.08 1121.84 OFFCURVE",
"1231.1 1105.35 OFFCURVE",
"1219.14 1092.67 CURVE SMOOTH",
"1207.18 1079.99 OFFCURVE",
"1191.77 1073.65 OFFCURVE",
"1172.94 1073.65 CURVE SMOOTH",
"1156.99 1073.65 OFFCURVE",
"1143.75 1078.54 OFFCURVE",
"1133.26 1088.33 CURVE SMOOTH",
"1122.74 1098.11 OFFCURVE",
"1117.49 1110.97 OFFCURVE",
"1117.49 1126.92 CURVE SMOOTH"
);
},
{
closed = 1;
nodes = (
"1006.96 938.474 OFFCURVE",
"975.793 953.693 OFFCURVE",
"953.338 966.025 CURVE",
"946.815 959.503 LINE SMOOTH",
"914.201 926.889 OFFCURVE",
"897.894 897.164 OFFCURVE",
"897.894 870.359 CURVE SMOOTH",
"897.894 850.061 OFFCURVE",
"905.861 832.667 OFFCURVE",
"921.812 818.178 CURVE SMOOTH",
"937.744 803.671 OFFCURVE",
"969.271 785.19 OFFCURVE",
"1016.39 762.734 CURVE SMOOTH",
"1042.48 750.402 OFFCURVE",
"1071.1 735.558 OFFCURVE",
"1102.27 718.163 CURVE",
"1140.68 752.221 OFFCURVE",
"1159.89 785.19 OFFCURVE",
"1159.89 817.091 CURVE SMOOTH",
"1159.89 837.372 OFFCURVE",
"1151.91 854.766 OFFCURVE",
"1135.97 869.272 CURVE SMOOTH",
"1120.02 883.762 OFFCURVE",
"1090.31 900.798 OFFCURVE",
"1046.83 920.367 CURVE SMOOTH"
);
}
);
width = 2048;
}
);
unicode = F084;
},
{
glyphname = uniF085;
lastChange = "2015-09-22 17:57:34 +0000";
layers = (
{
layerId = "7A8B565B-8C4A-454F-8A9F-3F36545C59D3";
name = Regular;
paths = (
{
closed = 1;
nodes = (
"704 384 LINE",
"896 704 LINE",
"704 704 LINE",
"960 1152 LINE",
"1408 1152 LINE",
"1088 832 LINE",
"1344 832 LINE",
"768 384 LINE"
);
}
